<?xml version="1.0" encoding="utf-8"?>
<!-- Generator: Adobe Illustrator 19.0.0, SVG Export Plug-In . SVG Version: 6.00 Build 0)  -->
<svg version="1.1" id="Layer_1" xmlns="http://www.w3.org/2000/svg" xmlns:xlink="http://www.w3.org/1999/xlink" x="0px" y="0px"
	 viewBox="0 0 949 121.9" style="enable-background:new 0 0 949 121.9;" xml:space="preserve">
<style type="text/css">
	.st0{fill:#231F20;}
	.st1{fill:#0070FF;}
</style>
<g>
	<path class="st0" d="M125.4,54.3V25.2H145v75.4h-19.6V69.6H97.1v30.9H77.5V25.2h19.6v29.1H125.4z"/>
	<path class="st0" d="M177.3,41.8v12.6h22.1v16.6h-22.1v13h23.3v16.6h-42.9V25.2h42.9v16.6H177.3z"/>
	<path class="st0" d="M272,83.9v16.6h-64.6l35.7-58.8h-29.6V25.2h62.4l-35.5,58.8H272z"/>
	<path class="st0" d="M275.1,25.2h23.5l14.1,20.5l14.1-20.5h23.5l-27.8,39.2v36.2h-19.6V64.3L275.1,25.2z"/>
	<path class="st0" d="M41.2,83.6c-11.5,0-21-9.4-21-22.2c0-10.3,9.5-19.6,21-19.6c5.9,0,11.3,2.5,15.2,6.3l13.2-14.5
		C62,26.9,51.8,23,41.2,23C19.7,23,0,38.8,0,61.3c0,24.1,17.3,41.1,41.2,41.1c12,0,22.4-4.3,29.7-11.6L56.1,77.3
		C52.3,81.3,47,83.6,41.2,83.6z"/>
</g>
<g>
	<path class="st1" d="M692.8,56.5V25.7h4.6v72.5h-4.6V60.8h-44v37.4h-4.6V25.7h4.6v30.8H692.8z"/>
	<path class="st1" d="M720.1,74.3l-9.7,23.9h-4.7l30.4-74.9l30.3,74.9h-4.7L752,74.3H720.1z M736.1,35l-14.2,35h28.4L736.1,35z"/>
	<path class="st1" d="M837.7,38.2h-0.2l-25.3,62.4L787,38.2h-0.2l-12.4,60H770l15.6-74.9l26.6,66l26.7-66l15.6,74.9h-4.4L837.7,38.2
		z"/>
	<path class="st1" d="M867.8,98.2h-4.6V25.7H876c5.7,0,11.2,0.4,15.7,4.2c4.4,3.8,6.5,9.2,6.5,14.9c0,5.2-2,11-6.1,14.3
		c-4.4,3.8-10.5,4.6-16.2,4.6h-8.2V98.2z M876.2,59.4c4.7,0,8.9-0.6,12.7-3.9c3.2-2.9,4.7-6.6,4.7-10.9c0-4.5-1.8-9-5.5-11.7
		c-3.7-2.8-8.3-2.9-12.7-2.9h-7.6v29.4H876.2z"/>
	<path class="st1" d="M942.1,37.6c-3.3-5.2-7.9-8.6-14.7-8.6c-7.8,0-13.7,6.3-13.7,13.8c0,7.6,7.2,10.8,13.1,13.6l13.8,7.2
		c5.5,3.5,8.3,7.9,8.3,14.4c0,12-11,21.1-22.7,21.1c-10.1,0-18-6.3-21.4-15.6l4-1.8c3.1,7.7,8.8,13.1,17.5,13.1
		c9.5,0,17.9-7.5,17.9-17.1c0-8.2-8.4-11.6-14.6-14.7l-13.1-6.9c-4.8-3-7.5-7.2-7.5-13c0-10.8,7.7-18.4,18.6-18.4
		c7.3,0,14.2,3.9,17.7,10.2L942.1,37.6z"/>
	<path class="st1" d="M634.9,87.3l-3.3-3c-6.1,6.4-14.6,10.5-24,10.5c-18.1,0-33-15-33-32.9c0-17.9,14.9-32.9,33-32.9
		c9.1,0,17.4,3.8,23.4,9.9l3-3.3c-6.9-6.7-16.2-10.9-26.4-10.9c-20.5,0-37.6,16.8-37.6,37.2c0,20.4,17.2,37.2,37.6,37.2
		C618.2,99.2,628,94.6,634.9,87.3z"/>
</g>
<path class="st0" d="M444.9,107.2c-4.9-4.9-8.9-10.6-12-16.8c-11.8-4.8-20.3-16.7-20.3-31.6c0-12,8.5-23.2,20.4-27.8
	c3.4-6.2,7.9-12,13.4-16.9c5.1-4.6,11.1-8.3,17.4-11.2C457.8,1,451.3,0,444.8,0c-32.7,0-62.9,24.1-62.9,58.5
	c0,36.8,26.4,62.8,62.9,62.8c6.1,0,11.9-0.7,17.3-2.1C455.7,116.2,449.9,112.1,444.9,107.2z"/>
<path class="st1" d="M492.9,93.2c-17.7,0-32.1-14.3-32.1-34c0-15.7,14.5-30,32.1-30c9.1,0,17.3,3.8,23.2,9.6l20.2-22.2
	C524.7,6.5,509.1,0.6,492.9,0.6c-32.7,0-62.9,24.1-62.9,58.5c0,36.8,26.4,62.8,62.9,62.8c18.4,0,34.2-6.6,45.3-17.8l-22.5-20.6
	C509.8,89.6,501.8,93.2,492.9,93.2z"/>
</svg>
