<?xml version="1.0" encoding="utf-8"?>
<!-- Generator: Adobe Illustrator 16.0.0, SVG Export Plug-In . SVG Version: 6.00 Build 0)  -->
<!DOCTYPE svg PUBLIC "-//W3C//DTD SVG 1.1//EN" "http://www.w3.org/Graphics/SVG/1.1/DTD/svg11.dtd">
<svg version="1.1" id="Layer_1" xmlns="http://www.w3.org/2000/svg" xmlns:xlink="http://www.w3.org/1999/xlink" x="0px" y="0px"
	 width="1276.184px" height="982.562px" viewBox="0 0 1276.184 982.562" enable-background="new 0 0 1276.184 982.562"
	 xml:space="preserve">
<path fill="#231F20" d="M507.973,863.748c-39.596-39.314-71.906-85.14-96.543-135.638
	c-95.381-38.679-163.341-134.439-163.341-255.029c0-96.801,68.419-187.122,164.313-224.21
	c27.115-50.321,63.396-96.359,108.284-136.231c41.487-36.849,89.22-67.072,140.599-89.991C611.907,7.935,559.958,0,507.134,0
	C243.231,0,0,194.585,0,471.857C0,768.6,212.818,977.776,507.134,977.776c49.08,0,95.815-5.959,139.75-17.021
	C595.167,936.198,548.224,903.724,507.973,863.748z"/>
<path fill="#0070FF" d="M910.72,751.506c-142.264,0-259.015-115.534-259.015-273.641c0-126.474,116.751-241.995,259.015-241.995
	c73.258,0,139.664,30.651,186.944,77.602l162.968-178.936C1167.11,52.621,1041.488,4.803,910.72,4.803
	c-263.872,0-507.116,194.579-507.116,471.851c0,296.73,212.83,505.908,507.116,505.908c148.021,0,275.382-52.934,365.464-143.273
	l-181.566-166.412C1047.551,722.176,982.388,751.506,910.72,751.506z"/>
</svg>
