<?xml version="1.0" encoding="utf-8"?>
<!-- Generator: Adobe Illustrator 16.0.0, SVG Export Plug-In . SVG Version: 6.00 Build 0)  -->
<!DOCTYPE svg PUBLIC "-//W3C//DTD SVG 1.1//EN" "http://www.w3.org/Graphics/SVG/1.1/DTD/svg11.dtd">
<svg version="1.1" id="Layer_1" xmlns="http://www.w3.org/2000/svg" xmlns:xlink="http://www.w3.org/1999/xlink" x="0px" y="0px"
	 width="537.393px" height="158.067px" viewBox="0 0 537.393 158.067" enable-background="new 0 0 537.393 158.067"
	 xml:space="preserve">
<path fill="#0070FF" d="M63.03,128.192c-4.913-4.879-8.922-10.564-11.979-16.832c-11.835-4.799-20.268-16.68-20.268-31.644
	c0-12.011,8.489-23.219,20.389-27.82c3.364-6.243,7.866-11.956,13.436-16.903c5.148-4.572,11.071-8.323,17.446-11.166
	C75.927,22,69.48,21.016,62.926,21.016C30.181,21.016,0,45.16,0,79.564c0,36.821,26.406,62.776,62.926,62.776
	c6.09,0,11.89-0.738,17.341-2.113C73.85,137.182,68.024,133.153,63.03,128.192z"/>
<path fill="#FFFFFF" d="M111.004,114.264c-17.652,0-32.139-14.336-32.139-33.953c0-15.694,14.486-30.029,32.139-30.029
	c9.09,0,17.33,3.804,23.196,9.63l20.222-22.203c-11.604-10.164-27.192-16.098-43.418-16.098c-32.742,0-62.924,24.145-62.924,58.547
	c0,36.82,26.408,62.775,62.924,62.775c18.367,0,34.17-6.568,45.348-17.777l-22.529-20.648
	C127.982,110.625,119.896,114.264,111.004,114.264z"/>
<g>
	<path fill="#FFFFFF" d="M312.527,31.231V2.148h19.59v75.357h-19.59V46.623h-28.283v30.883h-19.59V2.148h19.59v29.083H312.527z"/>
	<path fill="#FFFFFF" d="M364.496,18.738v12.594h22.088v16.59h-22.088v12.992h23.289v16.592h-42.877V2.148h42.877v16.59H364.496z"/>
	<path fill="#FFFFFF" d="M459.141,60.914v16.592h-64.564l35.682-58.768h-29.584V2.148h62.365l-35.48,58.766H459.141z"/>
	<path fill="#FFFFFF" d="M462.236,2.148h23.486l14.092,20.488l14.092-20.488h23.486l-27.783,39.178v36.18h-19.59v-36.18
		L462.236,2.148z"/>
	<path fill="#FFFFFF" d="M228.315,60.613c-11.548,0-21.025-9.378-21.025-22.213c0-10.266,9.477-19.644,21.025-19.644
		c5.947,0,11.338,2.488,15.175,6.3l13.229-14.525C249.127,3.882,238.93,0,228.315,0c-21.419,0-41.165,15.795-41.165,38.303
		c0,24.088,17.276,41.066,41.165,41.066c12.016,0,22.354-4.297,29.667-11.63L243.243,54.23
		C239.423,58.233,234.133,60.613,228.315,60.613z"/>
</g>
<g>
	<path fill="#0070FF" d="M300.865,118.643V91.159h4.122v64.762h-4.122v-33.412h-39.339v33.412h-4.123V91.159h4.123v27.484H300.865z"
		/>
	<path fill="#0070FF" d="M325.262,134.62l-8.676,21.301h-4.208l27.142-66.91l27.056,66.91h-4.208l-8.676-21.301H325.262z
		 M339.52,99.489l-12.712,31.266h25.338L339.52,99.489z"/>
	<path fill="#0070FF" d="M430.248,102.323h-0.172l-22.589,55.744l-22.503-55.744h-0.172l-11.08,53.598h-3.951l13.914-66.91
		l23.792,58.922l23.878-58.922l13.914,66.91h-3.951L430.248,102.323z"/>
	<path fill="#0070FF" d="M457.137,155.92h-4.123V91.159h11.424c5.068,0,9.964,0.342,14.001,3.779
		c3.95,3.35,5.841,8.244,5.841,13.313c0,4.639-1.805,9.791-5.412,12.797c-3.95,3.436-9.361,4.123-14.43,4.123h-7.301V155.92z
		 M464.609,121.305c4.209,0,7.988-0.516,11.338-3.521c2.834-2.576,4.209-5.926,4.209-9.705c0-4.037-1.632-8.074-4.896-10.479
		c-3.264-2.492-7.387-2.578-11.337-2.578h-6.786v26.283H464.609z"/>
	<path fill="#0070FF" d="M523.533,101.809c-2.92-4.639-7.043-7.645-13.142-7.645c-6.957,0-12.196,5.582-12.196,12.367
		s6.441,9.621,11.682,12.111l12.367,6.441c4.896,3.092,7.387,7.043,7.387,12.885c0,10.736-9.791,18.811-20.27,18.811
		c-9.02,0-16.063-5.584-19.068-13.916l3.607-1.631c2.748,6.871,7.816,11.682,15.633,11.682c8.503,0,15.976-6.699,15.976-15.289
		c0-7.301-7.473-10.393-13.056-13.143l-11.682-6.184c-4.295-2.662-6.699-6.441-6.699-11.596c0-9.619,6.871-16.404,16.577-16.404
		c6.528,0,12.712,3.521,15.804,9.104L523.533,101.809z"/>
	<path fill="#0070FF" d="M249.142,146.208l-2.961-2.715c-5.404,5.754-13.045,9.422-21.415,9.422
		c-16.147,0-29.461-13.4-29.461-29.375c0-15.977,13.313-29.375,29.461-29.375c8.11,0,15.538,3.418,20.908,8.857l2.689-2.953
		c-6.118-6.021-14.504-9.77-23.597-9.77c-18.295,0-33.583,15.031-33.583,33.24s15.375,33.24,33.583,33.24
		C234.254,156.78,242.967,152.692,249.142,146.208z"/>
</g>
</svg>
