<?xml version="1.0" encoding="utf-8"?>
<!-- Generator: Adobe Illustrator 16.0.0, SVG Export Plug-In . SVG Version: 6.00 Build 0)  -->
<!DOCTYPE svg PUBLIC "-//W3C//DTD SVG 1.1//EN" "http://www.w3.org/Graphics/SVG/1.1/DTD/svg11.dtd">
<svg version="1.1" id="Layer_1" xmlns="http://www.w3.org/2000/svg" xmlns:xlink="http://www.w3.org/1999/xlink" x="0px" y="0px"
	 width="948.967px" height="121.323px" viewBox="0 0 948.967 121.323" enable-background="new 0 0 948.967 121.323"
	 xml:space="preserve">
<g>
	<path fill="#FFFFFF" d="M125.378,50.959V21.875h19.589v75.358h-19.589V66.35H97.094v30.883h-19.59V21.875h19.59v29.084H125.378z"/>
	<path fill="#FFFFFF" d="M177.346,38.467v12.592h22.088v16.59h-22.088v12.994h23.289v16.59h-42.877V21.875h42.877v16.592H177.346z"
		/>
	<path fill="#FFFFFF" d="M271.99,80.643v16.59h-64.564l35.682-58.766h-29.584V21.875h62.365l-35.479,58.768H271.99z"/>
	<path fill="#FFFFFF" d="M275.087,21.875h23.486l14.092,20.489l14.092-20.489h23.486l-27.784,39.179v36.179h-19.59V61.054
		L275.087,21.875z"/>
	<path fill="#FFFFFF" d="M41.165,80.34c-11.548,0-21.024-9.377-21.024-22.211c0-10.268,9.477-19.645,21.024-19.645
		c5.946,0,11.338,2.488,15.175,6.3l13.229-14.525c-7.592-6.649-17.789-10.531-28.404-10.531C19.746,19.728,0,35.523,0,58.029
		c0,24.088,17.277,41.069,41.165,41.069c12.017,0,22.354-4.299,29.667-11.631l-14.739-13.51
		C52.273,77.961,46.982,80.34,41.165,80.34z"/>
</g>
<g>
	<path fill="#FFFFFF" d="M692.813,53.162V22.386h4.615v72.515h-4.615V57.488h-44.049v37.413h-4.616V22.386h4.616v30.776H692.813z"/>
	<path fill="#FFFFFF" d="M720.129,71.049l-9.713,23.852h-4.713l30.392-74.92l30.294,74.92h-4.711l-9.715-23.852H720.129z
		 M736.095,31.715l-14.233,35.006h28.371L736.095,31.715z"/>
	<path fill="#FFFFFF" d="M837.686,34.888h-0.192l-25.294,62.417l-25.197-62.417h-0.192l-12.406,60.013h-4.425l15.581-74.92
		l26.64,65.977l26.737-65.977l15.581,74.92h-4.425L837.686,34.888z"/>
	<path fill="#FFFFFF" d="M867.794,94.901h-4.617V22.386h12.792c5.674,0,11.156,0.384,15.678,4.231
		c4.423,3.751,6.539,9.232,6.539,14.907c0,5.193-2.021,10.964-6.06,14.329c-4.424,3.848-10.483,4.617-16.157,4.617h-8.175V94.901z
		 M876.16,56.143c4.713,0,8.944-0.577,12.695-3.942c3.174-2.886,4.713-6.637,4.713-10.868c0-4.52-1.826-9.041-5.482-11.733
		c-3.654-2.789-8.271-2.886-12.693-2.886h-7.599v29.43H876.16z"/>
	<path fill="#FFFFFF" d="M942.139,34.311c-3.271-5.193-7.887-8.559-14.714-8.559c-7.79,0-13.658,6.25-13.658,13.849
		c0,7.598,7.213,10.771,13.081,13.562l13.849,7.213c5.481,3.461,8.271,7.885,8.271,14.426c0,12.021-10.964,21.063-22.697,21.063
		c-10.099,0-17.984-6.252-21.352-15.58l4.039-1.828c3.078,7.693,8.753,13.08,17.506,13.08c9.521,0,17.889-7.502,17.889-17.119
		c0-8.176-8.367-11.637-14.62-14.715l-13.078-6.925c-4.81-2.981-7.503-7.213-7.503-12.983c0-10.771,7.693-18.369,18.563-18.369
		c7.309,0,14.232,3.943,17.695,10.194L942.139,34.311z"/>
	<path fill="#FFFFFF" d="M634.896,84.026l-3.315-3.041c-6.052,6.445-14.606,10.551-23.978,10.551
		c-18.081,0-32.988-15.004-32.988-32.893c0-17.888,14.907-32.891,32.988-32.891c9.08,0,17.396,3.828,23.41,9.918l3.012-3.307
		c-6.852-6.742-16.24-10.939-26.422-10.939c-20.486,0-37.605,16.83-37.605,37.219c0,20.389,17.216,37.221,37.605,37.221
		C618.227,95.864,627.982,91.288,634.896,84.026z"/>
</g>
<g>
	<path fill="#FFFFFF" d="M494.298,92.653c-17.652,0-32.139-14.336-32.139-33.954c0-15.693,14.486-30.027,32.139-30.027
		c9.09,0,17.33,3.803,23.195,9.629l20.223-22.203C526.11,5.934,510.522,0,494.298,0c-32.742,0-62.924,24.145-62.924,58.549
		c0,36.819,26.408,62.774,62.924,62.774c18.367,0,34.17-6.568,45.348-17.777l-22.529-20.648
		C511.276,89.014,503.19,92.653,494.298,92.653z"/>
	<path fill="#FFFFFF" d="M429.141,89.077c-0.021-0.043-0.046-0.086-0.067-0.131c-11.516-4.668-19.719-16.229-19.719-30.788
		c0-11.6,8.14-22.419,19.582-26.957c5.507-11.857,14.524-21.647,25.548-28.642c-4.507-0.986-9.152-1.512-13.857-1.512
		c-31.859,0-61.223,23.489-61.223,56.963c0,35.824,25.691,61.076,61.223,61.076c4.211,0,8.275-0.369,12.18-1.059
		C442.402,110.889,434.261,101.004,429.141,89.077z"/>
</g>
</svg>
