<?xml version="1.0" encoding="utf-8"?>
<!-- Generator: Adobe Illustrator 19.0.0, SVG Export Plug-In . SVG Version: 6.00 Build 0)  -->
<svg version="1.1" id="Layer_1" xmlns="http://www.w3.org/2000/svg" xmlns:xlink="http://www.w3.org/1999/xlink" x="0px" y="0px"
	 viewBox="-4 6 90 90" style="enable-background:new -4 6 90 90;" xml:space="preserve">
<style type="text/css">
	.st0{fill:#FFFFFF;}
	.st1{fill:none;stroke:#000000;stroke-width:18;stroke-miterlimit:10;}
</style>
<g id="XMLID_40_">
	<path id="XMLID_61_" d="M11.9,202.7c-1.1-0.2-2.2-0.7-3.1-1.5c-0.5-0.5-1.1-1.2-1.6-1.8c-0.7-0.9-1-2.2-0.8-3.4
		c0.2-0.8,0.3-1.6,0.6-2.5c0.4-1.1,0.8-2.1,1.2-3.1l0.1-0.2c0.2-0.5,0.4-1,0.7-1.6l0.4-0.9l0.6-1.3c0.5-1.1,1-2.2,1.5-3.4
		c0.6-1.4,1.3-2.7,1.9-4.1c1.2-2.5,2.4-5,3.7-7.4c0.8-1.6,1.5-2.9,2.2-4c0.9-1.5,1.8-3,2.9-4.6c0.5-0.8,1.1-1.6,1.6-2.3
		c0.2-0.2,0.4-0.5,0.5-0.7c0-0.1,0-0.2-0.1-0.2c-0.2-0.7-0.4-1.7-0.3-2.9c0-0.1,0.1-0.5,0.1-0.5s-0.1-0.2-0.4-0.5
		c-0.5-0.5-1-1-1.5-1.5c-0.6-0.6-1.2-1.2-1.8-1.9c-1.4-1.7-2.9-3.3-4.2-5c-1.5-2.1-3-4.2-4.4-6.2l-0.3-0.5c-1-1.4-1.8-2.8-2.8-4.4
		c-1-1.7-2-3.3-3-5s-1.7-3.1-2.4-4.5c-0.6-1.4-1.3-3-1.6-4.9c-0.4-3.3,1.4-5.8,4.6-6.6c0.5-0.1,1-0.2,1.5-0.3h0.1
		c0.4-0.1,0.9-0.1,1.3,0c1.6,0.2,2.5,1.3,2.8,1.6l0.5,0.5c0.9,0.9,1.8,1.9,2.6,3c1.9,2.4,3.8,5,5.6,7.6c1.6,2.2,3.2,4.6,5,7.3
		c1.3,1.9,2.6,4,4,6.4c1.2,1.9,2.3,4,3.2,6.2c0.2,0.6,0.5,1.2,0.8,1.8l0,0c1.2,0.3,2.3,0.8,3.2,1.6l0,0c0.8-0.1,1.6-0.3,2.5-0.5
		c2.2-0.6,4.5-1.2,6.9-1.5s5.2-0.6,8.1-0.8c2.5-0.2,5-0.3,7.4-0.4c2.2-0.1,4.2-0.1,6.1-0.1s4.1,0,6.3,0.4c0.7,0.1,1.3,0.2,2,0.4
		c1.2,0.3,2.9,0.8,4.2,2.4c1.1,1.3,1.4,3,0.9,4.7c-0.2,0.7-0.4,1.3-0.6,1.9l-0.1,0.3c-0.4,1-1.2,2.3-3.3,2.8l-0.5,0.1
		c-1,0.3-2.1,0.5-3.3,0.7c-3.9,0.5-7.1,0.9-10.1,1.2s-6.1,0.5-8.8,0.7c-2.1,0.1-4.3,0.2-6.6,0.3c-3.1,0.1-6-0.1-8.8-0.4
		c-0.5-0.1-0.9-0.1-1.4-0.1c-0.1,0.1-0.1,0.1-0.2,0.2c-0.8,0.9-1.7,1.5-2.8,1.9c0,0,0,0,0,0.1c-0.2,0.4-0.4,1-0.6,1.6l-0.2,0.6
		c-0.1,0.4-0.2,0.8-0.4,1.2c-0.3,1.1-0.6,2.2-1,3.3c-0.6,1.7-1.3,3.4-2,5c-1,2.3-2.1,4.7-3.4,7.2c-0.9,1.8-1.8,3.5-2.7,5.2l-0.2,0.3
		c-0.7,1.3-1.4,2.7-2.3,4.1c-1.3,2.2-2.7,4.4-4.5,6.4c-0.7,0.7-1.4,1.2-2,1.6l-0.1,0.1C14.6,202.6,13.3,202.9,11.9,202.7z"/>
	<path id="XMLID_513_" d="M12.5,188.9c0.6-1.3,1.3-2.9,2-4.6c0.6-1.3,1.2-2.7,1.9-4c1.2-2.5,2.4-4.9,3.6-7.4
		c0.6-1.3,1.3-2.6,2.1-3.8c0.9-1.5,1.8-3,2.8-4.4c0.8-1.1,1.6-2.2,2.4-3.3c0.5-0.7,0.5-1.4,0.3-2.2c-0.1-0.7-0.4-1.4-0.3-2.1
		c0-0.3,0.1-0.7,0.1-1c0-1.1-0.6-2-1.3-2.8c-1-1.2-2.2-2.2-3.2-3.4c-1.4-1.6-2.7-3.1-4-4.8c-1.6-2.1-3.1-4.4-4.6-6.6
		c-0.9-1.4-1.8-2.8-2.7-4.2c-1-1.6-2-3.2-2.9-4.9c-0.8-1.4-1.6-2.8-2.2-4.2c-0.6-1.2-1.1-2.5-1.3-3.8c-0.2-1.5,0.4-2.4,2-2.8
		c0.4-0.1,0.9-0.2,1.3-0.2c0.5-0.1,0.8,0.2,1.1,0.5c1,1.1,2,2.1,2.9,3.3c1.9,2.5,3.8,5,5.6,7.5c1.7,2.4,3.3,4.8,4.9,7.2
		c1.4,2.1,2.7,4.1,3.9,6.2c1.1,1.9,2.1,3.8,2.9,5.8c0.3,0.8,0.7,1.6,1.1,2.3c0.4,0.9,1.2,1.3,2.1,1.5c0.7,0.2,1.4,0.5,1.9,1
		c0.7,0.7,1.6,0.8,2.5,0.7c1-0.1,2-0.3,2.9-0.6c2.1-0.6,4.2-1.1,6.4-1.4c2.7-0.3,5.3-0.6,8-0.8c2.4-0.2,4.9-0.3,7.3-0.4
		c2-0.1,4-0.1,5.9-0.1c2.5,0,5,0.1,7.5,0.7c0.9,0.2,1.7,0.5,2.3,1.2c0.4,0.5,0.5,1,0.3,1.6s-0.4,1.3-0.6,1.9
		c-0.2,0.4-0.5,0.6-0.9,0.7c-1.1,0.3-2.3,0.6-3.4,0.7c-3.3,0.4-6.7,0.8-10,1.2c-2.9,0.3-5.8,0.5-8.6,0.7c-2.1,0.1-4.3,0.2-6.5,0.3
		c-2.8,0.1-5.5,0-8.3-0.4c-0.8-0.1-1.6-0.1-2.4-0.1c-0.6,0-1.1,0.4-1.6,0.8c-0.2,0.2-0.4,0.4-0.6,0.6c-0.4,0.5-1,0.8-1.6,1
		c-0.8,0.2-1.3,0.8-1.7,1.5c-0.6,0.9-0.8,2-1.1,3c-0.4,1.5-0.8,3-1.3,4.4c-0.6,1.6-1.2,3.2-1.9,4.8c-1.1,2.4-2.2,4.8-3.3,7.1
		c-0.9,1.8-1.9,3.6-2.8,5.4c-0.7,1.3-1.4,2.6-2.2,3.9c-1.2,2-2.5,4.1-4.1,5.9c-0.5,0.5-1,0.9-1.6,1.3c-0.7,0.5-1.7,0.4-2.4-0.3
		c-0.5-0.5-0.9-1-1.3-1.5c-0.1-0.2-0.2-0.5-0.1-0.7c0.1-0.7,0.3-1.4,0.5-2.1c0.3-1.1,0.8-2.1,1.2-3.1
		C11.8,190.6,12.1,189.9,12.5,188.9z"/>
</g>
<g id="XMLID_30_">
	<g id="XMLID_28_">
		<path id="XMLID_42_" d="M-324.1,52.7c-2.8,0-3.4-1.6-1.5-3.6l38.4-40.2c1.9-2,5-2,6.9,0l38.4,40.2c1.9,2,1.2,3.6-1.5,3.6H-324.1z"
			/>
	</g>
	<g id="XMLID_29_">
		<path id="XMLID_69_" d="M-264.7,93.7c0,1.6-1.3,3-3,3h-32.2c-1.7,0-3-1.4-3-3v-61c0-1.6,1.3-3,3-3h32.2c1.7,0,3,1.4,3,3V93.7z"/>
	</g>
</g>
<path class="st0" d="M41,12C19.8,12,2.7,29.1,2.7,50.3c0,21.2,17.1,38.3,38.3,38.3s38.3-17.1,38.3-38.3C79.3,29.1,62.2,12,41,12z
	 M37.8,16.5c4.6-0.1,8.4,1.6,8.5,3.8c0,2.2-3.7,4-8.3,4c-4.6,0.1-8.4-1.6-8.5-3.8S33.2,16.6,37.8,16.5z M20.9,46.2
	c-0.6,4.5-3.7,7.9-7.1,7.5c-3.3-0.4-5.6-4.4-5-9c0.6-4.5,3.7-7.9,7.1-7.5C19.2,37.7,21.4,41.7,20.9,46.2z M45.2,75.3
	c-0.4,3.2-4.4,5.5-9,4.9c-4.6-0.5-8.1-3.5-7.7-6.8c0.4-3.2,4.4-5.5,9-4.9C42.2,69,45.6,72.1,45.2,75.3z M54.4,50.3
	c-0.9,4.5-5.3,7.4-9.8,6.5c-4.5-0.9-7.4-5.3-6.5-9.8c0.9-4.5,5.3-7.4,9.8-6.5C52.4,41.5,55.3,45.8,54.4,50.3z M72.4,54.7
	c-2,0.3-4.1-3.1-4.8-7.7c-0.7-4.5,0.3-8.4,2.3-8.8c2-0.3,4.1,3.1,4.8,7.7C75.4,50.5,74.3,54.4,72.4,54.7z"/>
<g id="XMLID_15_">
	<g id="XMLID_3_">
		<polygon id="XMLID_20_" points="13.1,303.3 3.7,299.4 34.2,227.8 43.5,231.7 		"/>
	</g>
	<g id="XMLID_4_">
		<polygon id="XMLID_19_" points="49.4,303.3 40,299.4 70.5,227.8 79.8,231.7 		"/>
	</g>
	<g id="XMLID_5_">
		<rect id="XMLID_18_" x="14.2" y="282.8" width="36.4" height="10"/>
	</g>
	<g id="XMLID_6_">
		<rect id="XMLID_17_" x="24.3" y="261.4" width="36.4" height="10"/>
	</g>
	<g id="XMLID_7_">
		<rect id="XMLID_16_" x="32.3" y="240" width="36.4" height="10"/>
	</g>
</g>
<g id="XMLID_21_">
	
		<ellipse id="XMLID_8_" transform="matrix(0.3511 -0.9363 0.9363 0.3511 -466.2337 -55.1614)" cx="-272.9" cy="308.8" rx="26.1" ry="26.8"/>
	
		<ellipse id="XMLID_9_" transform="matrix(0.3511 -0.9363 0.9363 0.3511 -495.1177 -46.7863)" cx="-281.3" cy="333.8" rx="4.1" ry="6.9"/>
	<g id="XMLID_10_">
		<path id="XMLID_22_" d="M-298.7,368.6c-1.4-3.8-1.6-12.3,7.4-17.9c7.8-4.9,9.7-6,6.4-17.1l5.1-0.3c3.8,12.9,1.2,15.3-7.9,21
			c-7.3,4.6-6.8,11.5-6,13.8L-298.7,368.6z"/>
	</g>
</g>
<line id="XMLID_11_" class="st1" x1="-672.3" y1="120.9" x2="-583.8" y2="44"/>
<line id="XMLID_12_" class="st1" x1="-500.8" y1="120.9" x2="-589.3" y2="44"/>
<line id="XMLID_14_" class="st1" x1="-672.3" y1="180.9" x2="-583.8" y2="104"/>
<line id="XMLID_13_" class="st1" x1="-500.8" y1="180.9" x2="-589.3" y2="104"/>
</svg>
