<?xml version="1.0" encoding="utf-8"?>
<!-- Generator: Adobe Illustrator 19.0.0, SVG Export Plug-In . SVG Version: 6.00 Build 0)  -->
<svg version="1.1" id="Layer_1" xmlns="http://www.w3.org/2000/svg" xmlns:xlink="http://www.w3.org/1999/xlink" x="0px" y="0px"
	 viewBox="0 0 90 90" style="enable-background:new 0 0 90 90;" xml:space="preserve">
<style type="text/css">
	.st0{fill:#FFFFFF;}
	.st1{fill:none;stroke:#000000;stroke-width:18;stroke-miterlimit:10;}
</style>
<g id="XMLID_40_">
	<path id="XMLID_61_" d="M15.9-20.5c-1.1-0.2-2.2-0.7-3.1-1.5c-0.5-0.5-1.1-1.2-1.6-1.8c-0.7-0.9-1-2.2-0.8-3.4
		c0.2-0.8,0.3-1.6,0.6-2.5c0.4-1.1,0.8-2.1,1.2-3.1l0.1-0.2c0.2-0.5,0.4-1,0.7-1.6l0.4-0.9l0.6-1.3c0.5-1.1,1-2.2,1.5-3.4
		c0.6-1.4,1.3-2.7,1.9-4.1c1.2-2.5,2.4-5,3.7-7.4c0.8-1.6,1.5-2.9,2.2-4c0.9-1.5,1.8-3,2.9-4.6c0.5-0.8,1.1-1.6,1.6-2.3
		c0.2-0.2,0.4-0.5,0.5-0.7c0-0.1,0-0.2-0.1-0.2c-0.2-0.7-0.4-1.7-0.3-2.9c0-0.1,0.1-0.5,0.1-0.5c0,0-0.1-0.2-0.4-0.5
		c-0.5-0.5-1-1-1.5-1.5c-0.6-0.6-1.2-1.2-1.8-1.9c-1.4-1.7-2.9-3.3-4.2-5c-1.5-2.1-3-4.2-4.4-6.2l-0.3-0.5c-1-1.4-1.8-2.8-2.8-4.4
		c-1-1.7-2-3.3-3-5c-1-1.7-1.7-3.1-2.4-4.5c-0.6-1.4-1.3-3-1.6-4.9c-0.4-3.3,1.4-5.8,4.6-6.6c0.5-0.1,1-0.2,1.5-0.3l0.1,0
		c0.4-0.1,0.9-0.1,1.3,0c1.6,0.2,2.5,1.3,2.8,1.6l0.5,0.5c0.9,0.9,1.8,1.9,2.6,3c1.9,2.4,3.8,5,5.6,7.6c1.6,2.2,3.2,4.6,5,7.3
		c1.3,1.9,2.6,4,4,6.4c1.2,1.9,2.3,4,3.2,6.2c0.2,0.6,0.5,1.2,0.8,1.8l0,0c1.2,0.3,2.3,0.8,3.2,1.6c0,0,0,0,0,0
		c0.8-0.1,1.6-0.3,2.5-0.5c2.2-0.6,4.5-1.2,6.9-1.5c2.4-0.3,5.2-0.6,8.1-0.8c2.5-0.2,5-0.3,7.4-0.4c2.2-0.1,4.2-0.1,6.1-0.1
		c1.9,0,4.1,0,6.3,0.4c0.7,0.1,1.3,0.2,2,0.4c1.2,0.3,2.9,0.8,4.2,2.4c1.1,1.3,1.4,3,0.9,4.7c-0.2,0.7-0.4,1.3-0.6,1.9l-0.1,0.3
		c-0.4,1-1.2,2.3-3.3,2.8L81-62.5c-1,0.3-2.1,0.5-3.3,0.7c-3.9,0.5-7.1,0.9-10.1,1.2c-3,0.3-6.1,0.5-8.8,0.7
		c-2.1,0.1-4.3,0.2-6.6,0.3c-3.1,0.1-6-0.1-8.8-0.4c-0.5-0.1-0.9-0.1-1.4-0.1c-0.1,0.1-0.1,0.1-0.2,0.2c-0.8,0.9-1.7,1.5-2.8,1.9
		c0,0,0,0,0,0.1c-0.2,0.4-0.4,1-0.6,1.6l-0.2,0.6c-0.1,0.4-0.2,0.8-0.4,1.2c-0.3,1.1-0.6,2.2-1,3.3c-0.6,1.7-1.3,3.4-2,5
		c-1,2.3-2.1,4.7-3.4,7.2c-0.9,1.8-1.8,3.5-2.7,5.2l-0.2,0.3c-0.7,1.3-1.4,2.7-2.3,4.1C25-27.3,23.6-25,21.8-23
		c-0.7,0.7-1.4,1.2-2,1.6l-0.1,0.1C18.6-20.6,17.3-20.2,15.9-20.5z"/>
	<path id="XMLID_513_" d="M16.5-34.2c0.6-1.3,1.3-2.9,2-4.6c0.6-1.3,1.2-2.7,1.9-4c1.2-2.5,2.4-4.9,3.6-7.4c0.6-1.3,1.3-2.6,2.1-3.8
		c0.9-1.5,1.8-3,2.8-4.4c0.8-1.1,1.6-2.2,2.4-3.3c0.5-0.7,0.5-1.4,0.3-2.2c-0.1-0.7-0.4-1.4-0.3-2.1c0-0.3,0.1-0.7,0.1-1
		c0-1.1-0.6-2-1.3-2.8c-1-1.2-2.2-2.2-3.2-3.4c-1.4-1.6-2.7-3.1-4-4.8c-1.6-2.1-3.1-4.4-4.6-6.6c-0.9-1.4-1.8-2.8-2.7-4.2
		c-1-1.6-2-3.2-2.9-4.9c-0.8-1.4-1.6-2.8-2.2-4.2c-0.6-1.2-1.1-2.5-1.3-3.8c-0.2-1.5,0.4-2.4,2-2.8c0.4-0.1,0.9-0.2,1.3-0.2
		c0.5-0.1,0.8,0.2,1.1,0.5c1,1.1,2,2.1,2.9,3.3c1.9,2.5,3.8,5,5.6,7.5c1.7,2.4,3.3,4.8,4.9,7.2c1.4,2.1,2.7,4.1,3.9,6.2
		c1.1,1.9,2.1,3.8,2.9,5.8c0.3,0.8,0.7,1.6,1.1,2.3c0.4,0.9,1.2,1.3,2.1,1.5c0.7,0.2,1.4,0.5,1.9,1c0.7,0.7,1.6,0.8,2.5,0.7
		c1-0.1,2-0.3,2.9-0.6c2.1-0.6,4.2-1.1,6.4-1.4c2.7-0.3,5.3-0.6,8-0.8c2.4-0.2,4.9-0.3,7.3-0.4c2-0.1,4-0.1,5.9-0.1
		c2.5,0,5,0.1,7.5,0.7c0.9,0.2,1.7,0.5,2.3,1.2c0.4,0.5,0.5,1,0.3,1.6c-0.2,0.6-0.4,1.3-0.6,1.9c-0.2,0.4-0.5,0.6-0.9,0.7
		c-1.1,0.3-2.3,0.6-3.4,0.7c-3.3,0.4-6.7,0.8-10,1.2c-2.9,0.3-5.8,0.5-8.6,0.7c-2.1,0.1-4.3,0.2-6.5,0.3c-2.8,0.1-5.5,0-8.3-0.4
		c-0.8-0.1-1.6-0.1-2.4-0.1c-0.6,0-1.1,0.4-1.6,0.8c-0.2,0.2-0.4,0.4-0.6,0.6c-0.4,0.5-1,0.8-1.6,1c-0.8,0.2-1.3,0.8-1.7,1.5
		c-0.6,0.9-0.8,2-1.1,3c-0.4,1.5-0.8,3-1.3,4.4c-0.6,1.6-1.2,3.2-1.9,4.8c-1.1,2.4-2.2,4.8-3.3,7.1c-0.9,1.8-1.9,3.6-2.8,5.4
		c-0.7,1.3-1.4,2.6-2.2,3.9c-1.2,2-2.5,4.1-4.1,5.9c-0.5,0.5-1,0.9-1.6,1.3c-0.7,0.5-1.7,0.4-2.4-0.3c-0.5-0.5-0.9-1-1.3-1.5
		c-0.1-0.2-0.2-0.5-0.1-0.7c0.1-0.7,0.3-1.4,0.5-2.1c0.3-1.1,0.8-2.1,1.2-3.1C15.8-32.5,16.1-33.2,16.5-34.2z"/>
</g>
<circle id="XMLID_1_" cx="45" cy="-173" r="38.3"/>
<g id="XMLID_30_">
	<g id="XMLID_28_">
		<path id="XMLID_42_" d="M-320.1,46.7c-2.8,0-3.4-1.6-1.5-3.6l38.4-40.2c1.9-2,5-2,6.9,0l38.4,40.2c1.9,2,1.2,3.6-1.5,3.6H-320.1z"
			/>
	</g>
	<g id="XMLID_29_">
		<path id="XMLID_69_" d="M-260.7,87.7c0,1.6-1.3,3-3,3h-32.2c-1.7,0-3-1.4-3-3v-61c0-1.6,1.3-3,3-3h32.2c1.7,0,3,1.4,3,3V87.7z"/>
	</g>
</g>
<g id="XMLID_2_">
	
		<ellipse id="XMLID_43_" transform="matrix(0.994 0.109 -0.109 0.994 -15.9843 -5.3475)" class="st0" cx="40.9" cy="-148.9" rx="8.4" ry="5.9"/>
	
		<ellipse id="XMLID_62_" transform="matrix(0.9999 -1.525268e-002 1.525268e-002 0.9999 3.0996 0.6159)" class="st0" cx="41.9" cy="-202.9" rx="8.4" ry="3.9"/>
	
		<ellipse id="XMLID_63_" transform="matrix(0.9809 0.1945 -0.1945 0.9809 -33.0074 -13.1149)" class="st0" cx="50.3" cy="-174.6" rx="8.3" ry="8.3"/>
	
		<ellipse id="XMLID_64_" transform="matrix(0.9925 0.1226 -0.1226 0.9925 -21.6519 -3.6513)" class="st0" cx="18.8" cy="-177.8" rx="6.1" ry="8.3"/>
	
		<ellipse id="XMLID_65_" transform="matrix(0.9882 -0.1532 0.1532 0.9882 27.9691 9.4148)" class="st0" cx="75.1" cy="-176.8" rx="3.6" ry="8.3"/>
</g>
<g id="XMLID_15_">
	<g id="XMLID_3_">
		<polygon id="XMLID_20_" class="st0" points="17.1,88.3 7.7,84 38.2,3.5 47.5,7.9 		"/>
	</g>
	<g id="XMLID_4_">
		<polygon id="XMLID_19_" class="st0" points="53.4,88.3 44,84 74.5,3.5 83.8,7.9 		"/>
	</g>
	<g id="XMLID_5_">
		<rect id="XMLID_18_" x="18.2" y="65.3" class="st0" width="36.4" height="11.2"/>
	</g>
	<g id="XMLID_6_">
		<rect id="XMLID_17_" x="28.3" y="41.3" class="st0" width="36.4" height="11.2"/>
	</g>
	<g id="XMLID_7_">
		<rect id="XMLID_16_" x="36.3" y="17.2" class="st0" width="36.4" height="11.2"/>
	</g>
</g>
<g id="XMLID_21_">
	
		<ellipse id="XMLID_8_" transform="matrix(0.9364 0.3511 -0.3511 0.9364 89.1972 113.6591)" cx="-268.9" cy="302.8" rx="26.8" ry="26.1"/>
	
		<ellipse id="XMLID_9_" transform="matrix(0.9364 0.3511 -0.3511 0.9364 97.4408 118.2247)" cx="-277.3" cy="327.8" rx="6.9" ry="4.1"/>
	<g id="XMLID_10_">
		<path id="XMLID_22_" d="M-294.7,362.6c-1.4-3.8-1.6-12.3,7.4-17.9c7.8-4.9,9.7-6,6.4-17.1l5.1-0.3c3.8,12.9,1.2,15.3-7.9,21
			c-7.3,4.6-6.8,11.5-6,13.8L-294.7,362.6z"/>
	</g>
</g>
<line id="XMLID_11_" class="st1" x1="-668.3" y1="114.9" x2="-579.8" y2="38"/>
<line id="XMLID_12_" class="st1" x1="-496.8" y1="114.9" x2="-585.3" y2="38"/>
<line id="XMLID_14_" class="st1" x1="-668.3" y1="174.9" x2="-579.8" y2="98"/>
<line id="XMLID_13_" class="st1" x1="-496.8" y1="174.9" x2="-585.3" y2="98"/>
</svg>
