<?xml version="1.0" encoding="utf-8"?>
<!-- Generator: Adobe Illustrator 16.0.0, SVG Export Plug-In . SVG Version: 6.00 Build 0)  -->
<!DOCTYPE svg PUBLIC "-//W3C//DTD SVG 1.1//EN" "http://www.w3.org/Graphics/SVG/1.1/DTD/svg11.dtd">
<svg version="1.1" id="Layer_1" xmlns="http://www.w3.org/2000/svg" xmlns:xlink="http://www.w3.org/1999/xlink" x="0px" y="0px"
	 width="126px" height="126px" viewBox="0 0 126 126" enable-background="new 0 0 126 126" xml:space="preserve">
<path fill="#002E6D" d="M1.117,63c0,34.123,27.76,61.882,61.883,61.882S124.883,97.123,124.883,63
	c0-34.122-27.76-61.882-61.883-61.882S1.117,28.878,1.117,63"/>
<g>
	<defs>
		<rect id="SVGID_1_" width="126" height="126"/>
	</defs>
	<clipPath id="SVGID_2_">
		<use xlink:href="#SVGID_1_"  overflow="visible"/>
	</clipPath>
	<path clip-path="url(#SVGID_2_)" fill="none" stroke="#6DABE4" stroke-width="2.2349" stroke-miterlimit="10" d="M1.117,63
		c0,34.123,27.76,61.882,61.883,61.882S124.883,97.123,124.883,63c0-34.122-27.76-61.882-61.883-61.882S1.117,28.878,1.117,63z"/>
</g>
<path fill="#9CA4C3" d="M22.223,63c0,22.484,18.292,40.779,40.777,40.779c22.483,0,40.777-18.295,40.777-40.779
	c0-22.483-18.294-40.777-40.777-40.777C40.515,22.223,22.223,40.517,22.223,63"/>
<path fill="#6DABE4" d="M22.223,63c0,22.484,18.292,40.779,40.777,40.779c22.483,0,40.777-18.295,40.777-40.779
	c0-22.483-18.294-40.777-40.777-40.777C40.515,22.223,22.223,40.517,22.223,63"/>
<path fill="none" stroke="#FFFFFE" stroke-width="2.2349" stroke-miterlimit="10" d="M22.223,63
	c0,22.484,18.292,40.779,40.777,40.779c22.483,0,40.777-18.295,40.777-40.779c0-22.483-18.294-40.777-40.777-40.777
	C40.515,22.223,22.223,40.517,22.223,63z"/>
<path fill="#FFFFFE" d="M9.091,64.944c-0.82-0.018-1.643-0.035-2.464-0.035c-0.364,0-0.729,0.018-1.094,0.035V64.75
	c0.537-0.029,0.57-0.047,0.57-0.211v-3.058c0-0.103-0.04-0.13-0.537-0.188v-0.206c0.285,0.017,0.57,0.035,0.856,0.046
	c0.285,0.009,0.57,0.021,0.854,0.021c0.365,0,0.719-0.021,1.01-0.044c0.291-0.023,0.519-0.046,0.633-0.046
	c0.119,0,0.138,0.04,0.138,0.114l-0.023,0.952H8.817c-0.119-0.77-0.61-0.78-1.29-0.78H7.061v1.518h0.382
	c0.468,0,0.531-0.286,0.549-0.696h0.238c-0.012,0.256-0.022,0.506-0.022,0.763c0,0.268,0.005,0.531,0.022,0.797H7.968
	C7.957,63.346,7.91,63.06,7.442,63.06H7.061v1.17c0,0.359,0.058,0.463,0.354,0.463h0.536c0.684-0.006,0.774-0.082,0.958-0.909
	l0.262,0.025L9.091,64.944z"/>
<path fill="#FFFFFE" d="M11.999,62.149c-0.045-0.455-0.358-0.911-0.809-0.911c-0.371,0-0.646,0.238-0.646,0.619
	c0,0.793,1.791,0.479,1.791,1.938c0,0.543-0.444,1.204-1.3,1.204c-0.469,0-0.798-0.171-0.902-0.171c-0.062,0-0.118,0.046-0.158,0.08
	l-0.143-0.021c0.011-0.361,0-0.726-0.006-1.083h0.199c0.063,0.521,0.309,1.024,0.844,1.024c0.428,0,0.765-0.25,0.765-0.655
	c0-0.946-1.762-0.555-1.762-1.979c0-0.593,0.468-1.129,1.174-1.129c0.474,0,0.674,0.21,0.845,0.21c0.063,0,0.131-0.044,0.177-0.096
	l0.16,0.023c-0.018,0.295-0.03,0.633-0.035,0.947H11.999z"/>
<path fill="#FFFFFE" d="M12.764,62.184l0.034-1.062c0.303,0.006,0.6,0.018,0.901,0.021c0.296,0.007,0.6,0.012,0.895,0.012
	c0.599,0,1.198-0.033,1.797-0.068l-0.024,1.039h-0.192c-0.052-0.697-0.536-0.775-1.13-0.775v3.191c0,0.155,0.108,0.184,0.604,0.207
	v0.194c-0.359-0.018-0.718-0.035-1.077-0.035s-0.719,0.018-1.079,0.035V64.75c0.486-0.023,0.595-0.052,0.595-0.207v-3.191
	c-0.588,0-1.016,0.183-1.128,0.833H12.764z"/>
<path fill="#FFFFFE" d="M18.228,64.363c0,0.35-0.261,0.652-0.62,0.652c-0.357,0-0.618-0.303-0.618-0.652s0.261-0.651,0.618-0.651
	C17.967,63.711,18.228,64.013,18.228,64.363"/>
<path fill="#FFFFFE" d="M108.076,64.705c0.741-0.053,0.781-0.064,0.781-0.264V61.33c0-0.249-0.057-0.305-0.172-0.313l-0.491-0.043
	v-0.194c0.573,0,1.079-0.075,1.516-0.209h0.108c-0.024,0.32-0.059,0.999-0.059,1.587v2.284c0,0.199,0.039,0.211,0.783,0.264v0.217
	c-0.244-0.012-0.975-0.038-1.218-0.038c-0.575,0-0.935,0.015-1.249,0.038V64.705z"/>
<path fill="#FFFFFE" d="M114.114,63.705c0,0.654-0.603,1.244-1.524,1.244c-0.781,0-1.445-0.424-1.445-1.205
	c0-0.505,0.422-0.844,0.857-1.01c-0.366-0.205-0.685-0.617-0.685-1.045c0-0.756,0.672-1.119,1.361-1.119
	c0.853,0,1.231,0.517,1.231,0.916c0,0.473-0.282,0.736-0.691,0.92C113.741,62.726,114.114,63.04,114.114,63.705 M112.441,64.767
	c0.381,0,0.833-0.27,0.833-0.864c0-0.518-1.003-1.01-1.113-1.01c-0.256,0-0.576,0.55-0.576,0.877
	C111.585,64.306,111.855,64.767,112.441,64.767 M113.065,62.278c0.172,0,0.455-0.339,0.455-0.743c0-0.44-0.297-0.788-0.713-0.788
	c-0.401,0-0.652,0.265-0.652,0.659C112.155,61.914,112.942,62.278,113.065,62.278"/>
<path fill="#FFFFFE" d="M115.105,62.733v-2.237c0.659,0.148,1.108,0.257,1.771,0.257c0.341,0,0.71-0.096,0.858-0.404l0.16,0.077
	c-0.377,0.738-0.569,1.142-1.49,1.142c-0.366,0-0.717-0.065-1.082-0.123v0.981c0.344-0.192,0.665-0.303,1.146-0.303
	c0.813,0,1.426,0.577,1.426,1.311c0,0.892-0.742,1.515-1.792,1.515c-0.615,0-1.325-0.277-1.325-0.968
	c0-0.282,0.181-0.589,0.487-0.589c0.211,0,0.357,0.218,0.357,0.409c0,0.289-0.146,0.531-0.274,0.801
	c0.103,0.076,0.274,0.128,0.43,0.128c0.716,0,1.112-0.538,1.112-1.223c0-0.536-0.318-1.017-0.902-1.017
	c-0.261,0-0.537,0.128-0.748,0.275L115.105,62.733z"/>
<path fill="#FFFFFE" d="M118.753,64.705c0.743-0.053,0.78-0.064,0.78-0.264V61.33c0-0.249-0.056-0.305-0.172-0.313l-0.492-0.043
	v-0.194c0.577,0,1.082-0.075,1.517-0.209h0.108c-0.024,0.32-0.059,0.999-0.059,1.587v2.284c0,0.199,0.04,0.211,0.782,0.264v0.217
	c-0.242-0.012-0.975-0.038-1.216-0.038c-0.576,0-0.935,0.015-1.249,0.038V64.705z"/>
<path fill="#FFFFFE" d="M87.255,37.252v34.075c0,0,1.261,19.024-24.271,26.142C37.74,90.351,39.421,71.327,39.421,71.327V37.252
	H87.255z"/>
<path fill="#FFFFFE" d="M15.803,44.263c0.736-1.886,1.771-2.477,3.251-1.849c1.102,0.468,2.095,1.342,1.488,2.766
	c-0.337,0.788-0.833,0.745-1.566,0.432L15.803,44.263z M18.979,50.027c0.306-0.835,0.61-1.67,0.958-2.488
	c0.349-0.819,0.871-1.811,1.43-3.124c0.569-1.339,0.456-3.537-1.335-4.298c-1.453-0.618-2.709,0.063-3.496,1.326l-0.027-0.011
	c0.085-1.18-0.222-2.26-1.393-2.757c-1.537-0.654-2.668,0.479-3.263,1.875c-0.252,0.592-0.454,1.107-0.617,1.57
	c-0.184,0.471-0.33,0.892-0.51,1.315c-0.175,0.409-0.382,0.819-0.585,1.216c-0.208,0.412-0.424,0.802-0.646,1.207l0.48,0.205
	c0.578-1.086,0.717-1.177,1.026-1.045l7.543,3.21c0.424,0.179,0.448,0.356-0.045,1.596L18.979,50.027z M11.601,42.475
	c0.76-1.942,1.725-2.097,2.769-1.653c1.566,0.666,1.663,1.807,0.954,3.236L11.601,42.475z M27.366,29.408l-0.484,0.516
	c1.445,1.759,1.449,2.075,0.325,3.53l-0.891,1.133c-0.493,0.626-0.804,0.576-1.563-0.021l-2.469-1.942l0.635-0.808
	c0.776-0.987,1.455-0.609,2.293,0.011l0.435-0.556c-0.593-0.408-1.158-0.832-1.724-1.277c-0.541-0.426-1.053-0.868-1.576-1.316
	l-0.398,0.504c0.839,0.72,1.338,1.325,0.561,2.313l-0.634,0.808l-3.205-2.521l0.777-0.987c1.127-1.434,1.966-2.45,3.792-1.424
	l0.359-0.459l-1.975-1.629c-0.156-0.123-0.27-0.154-0.468,0.1c-0.189,0.24-0.52,0.76-0.955,1.413S19.228,28.231,18.622,29
	c-0.476,0.604-0.974,1.188-1.47,1.771c-0.498,0.583-1.008,1.156-1.519,1.731l0.435,0.34c0.944-0.952,1.07-0.99,1.287-0.819
	l6.457,5.077c0.349,0.275,0.328,0.376-0.501,1.556l0.409,0.322c0.57-0.8,1.14-1.598,1.745-2.369
	c1.365-1.734,2.766-3.441,4.167-5.147L27.366,29.408z M37.528,21.054l-0.604,0.368c0.92,2.081,0.84,2.387-0.634,3.487l-1.161,0.853
	c-0.643,0.471-0.929,0.34-1.499-0.439l-4.272-5.817c-0.263-0.358-0.094-0.672,0.917-1.549l-0.308-0.42
	c-0.762,0.673-1.437,1.283-2.165,1.816c-0.814,0.599-1.599,1.061-2.406,1.54l0.326,0.444c1.165-0.665,1.298-0.667,1.462-0.444
	l4.859,6.62c0.263,0.359,0.216,0.45-0.899,1.364l0.308,0.42c0.764-0.617,1.528-1.235,2.318-1.815
	c1.778-1.305,3.584-2.574,5.391-3.843L37.528,21.054z M48.898,15.915l-0.677,0.205c0.369,2.246,0.217,2.522-1.485,3.219
	l-1.337,0.537c-0.739,0.294-0.985,0.096-1.343-0.8l-2.683-6.7c-0.167-0.413,0.075-0.674,1.273-1.271l-0.194-0.482
	c-0.903,0.461-1.71,0.881-2.549,1.219c-0.939,0.375-1.813,0.625-2.714,0.889l0.204,0.512c1.295-0.354,1.424-0.322,1.526-0.066
	l3.053,7.625c0.166,0.413,0.097,0.489-1.212,1.096l0.193,0.483c0.894-0.406,1.788-0.813,2.699-1.179
	c2.047-0.82,4.112-1.598,6.18-2.376L48.898,15.915z M56.085,13.367c-0.624,0.081-1.234,0.13-1.858,0.21
	c-0.212,0.029-0.37,0.003-0.39-0.148c-0.015-0.107,0.028-0.267,0.086-0.522l0.614-2.521l0.029-0.004L56.085,13.367z M61.66,16.301
	c-0.944,0.108-1.06-0.062-1.322-0.538l-4.836-8.64L54.85,7.208l-2.41,9.246c-0.206,0.799-0.303,0.998-1.222,1.18l0.071,0.546
	c0.516-0.066,1.021-0.226,1.537-0.293c0.518-0.067,1.046-0.042,1.562-0.111l-0.07-0.547c-1.026,0.071-1.279,0.029-1.317-0.26
	c-0.023-0.183,0.004-0.326,0.067-0.566l0.454-1.837c0.038-0.174,0.132-0.294,0.296-0.331c0.826-0.185,1.683-0.266,2.534-0.362
	l0.99,1.911c0.146,0.275,0.252,0.508,0.271,0.645c0.039,0.305-0.161,0.424-1.149,0.553l0.068,0.516
	c0.865-0.113,1.721-0.316,2.586-0.43c0.866-0.113,1.744-0.135,2.61-0.249L61.66,16.301z M63.114,16.607
	c0.931,0.083,1.862,0.167,2.789,0.296c0.925,0.131,1.845,0.306,2.765,0.481l0.071-0.517c-1.22-0.232-1.497-0.349-1.441-0.758
	l0.569-4.052l0.56,0.079c1.7,0.239,1.894,1.287,1.646,3.063c-0.198,1.41,0.218,2.305,2.001,2.618l1.39,0.24l0.066-0.47
	c-1.051-0.24-1.067-0.335-0.952-2.594c0.093-1.766-0.797-2.479-2.805-2.961l0.007-0.03c1.339,0.031,3.2-0.325,3.431-1.965
	c0.246-1.76-0.903-2.509-3.058-2.81c-0.455-0.064-0.929-0.114-1.387-0.148c-0.473-0.051-0.933-0.084-1.402-0.15
	c-0.455-0.063-0.922-0.161-1.374-0.255c-0.466-0.095-0.913-0.205-1.379-0.315l-0.071,0.515c1.157,0.348,1.39,0.458,1.336,0.853
	l-1.126,8.027c-0.057,0.41-0.356,0.446-1.563,0.339L63.114,16.607z M68.502,7.521l1.094,0.152c0.696,0.098,1.549,0.853,1.372,2.125
	c-0.229,1.64-1.591,1.96-3.029,1.742L68.502,7.521z M75.607,18.295c0.521,0.185,1.042,0.372,1.545,0.6
	c0.502,0.228,0.985,0.498,1.47,0.766l0.215-0.473c-0.842-0.483-1.222-0.756-1.019-1.204l2.811-6.195l0.028,0.013l-0.013-0.008
	l0.041,8.805l0.279,0.127l6.716-6.191l0.029,0.013l-2.921,6.433c-0.254,0.558-0.464,0.649-1.572,0.196l-0.215,0.474
	c0.801,0.313,1.601,0.625,2.383,0.981c0.781,0.354,1.543,0.752,2.306,1.147l0.217-0.474c-0.925-0.521-1.016-0.73-0.742-1.33
	l3.224-7.103c0.172-0.377,0.524-0.266,1.369-0.051l0.215-0.475c-1.112-0.404-2.225-0.809-3.298-1.297l-5.649,5.179l0.026-7.73
	c-1.077-0.488-2.112-1.059-3.149-1.631l-0.215,0.475c0.949,0.616,1.056,0.935,0.721,1.674l-2.938,6.475
	c-0.297,0.656-0.571,0.666-1.646,0.33L75.607,18.295z M89.489,25.401c0.751,0.561,1.501,1.121,2.221,1.716
	c0.721,0.595,1.41,1.226,2.104,1.857l0.332-0.402c-1.026-0.947-1.075-1.105-0.811-1.426l5.116-6.188
	c0.281-0.343,0.628-0.256,1.56,0.374l0.33-0.401c-0.756-0.505-1.51-1.01-2.206-1.586c-0.697-0.576-1.336-1.223-1.975-1.87
	l-0.332,0.402c0.771,0.775,0.922,1.1,0.637,1.44l-5.113,6.19c-0.265,0.319-0.429,0.302-1.53-0.507L89.489,25.401z M95.772,30.309
	c0.371,0.431,0.742,0.86,1.079,1.317c0.336,0.457,0.634,0.941,0.933,1.424l0.418-0.307c-0.654-1.229-0.664-1.374-0.257-1.674
	l5.559-4.08l0.018,0.025l-2.696,10.439l0.536,0.729l7.126-5.232c0.631-0.462,0.872-0.392,1.6,0.442l0.52-0.38
	c-0.392-0.378-0.784-0.756-1.103-1.188c-0.153-0.21-0.304-0.441-0.446-0.662c-0.15-0.229-0.279-0.458-0.431-0.69l-0.445,0.327
	c0.633,1.018,0.627,1.27-0.001,1.733l-4.511,3.309l-0.018-0.024l2.425-8.66c-0.853-1.163-1.486-2.18-1.974-3l-0.421,0.309
	c0.357,0.821,0.068,1.698-0.179,1.88l-5.866,4.307c-0.409,0.3-0.542,0.246-1.445-0.649L95.772,30.309z M109.754,48.796l-0.205-0.678
	c-2.246,0.372-2.521,0.217-3.218-1.484l-0.536-1.337c-0.297-0.74-0.099-0.985,0.799-1.344l2.915-1.168l0.383,0.954
	c0.466,1.166-0.198,1.564-1.156,1.98l0.263,0.654c0.652-0.311,1.301-0.587,1.969-0.854c0.641-0.256,1.277-0.479,1.93-0.707
	l-0.238-0.597c-1.042,0.367-1.815,0.495-2.284-0.67l-0.381-0.953l3.785-1.516l0.466,1.166c0.68,1.693,1.141,2.927-0.663,3.994
	l0.219,0.542l2.399-0.894c0.184-0.074,0.267-0.157,0.146-0.455c-0.112-0.285-0.398-0.831-0.746-1.535
	c-0.348-0.703-0.758-1.563-1.123-2.472c-0.284-0.711-0.539-1.435-0.797-2.156c-0.255-0.723-0.498-1.451-0.742-2.179l-0.511,0.205
	c0.354,1.294,0.322,1.422,0.064,1.525l-7.624,3.054c-0.413,0.165-0.488,0.097-1.094-1.212l-0.485,0.194
	c0.407,0.893,0.815,1.787,1.179,2.696c0.82,2.049,1.599,4.115,2.377,6.179L109.754,48.796z"/>
<path fill="#FFFFFE" d="M16.709,82.351c0.521-0.222,1.263-0.51,1.812-0.619l-0.042-0.24c-0.112-0.032-0.167-0.045-0.208-0.159
	c-0.065-0.191,0.058-1.148-0.286-2.134c-0.661-1.899-2.297-2.842-4.25-2.16c-1.655,0.574-2.753,2.145-2.092,4.043
	c0.46,1.32,0.889,1.475,1.285,2.381c0.443-0.153,1.284-0.303,1.73-0.389l-0.051-0.234c-1.201,0.104-2.125-0.396-2.528-1.553
	c-0.538-1.549,0.739-2.51,2.051-2.967c1.43-0.498,2.974-0.609,3.564,1.091c0.435,1.25,0.036,2.058-1.105,2.679L16.709,82.351z
	 M14.953,88.68c0.877,1.671,2.725,2.323,4.471,1.407c1.746-0.92,2.256-2.811,1.38-4.479c-0.878-1.672-2.725-2.323-4.471-1.405
	C14.585,85.121,14.074,87.011,14.953,88.68 M20.582,85.724c0.55,1.042,0.092,2.191-1.782,3.174
	c-1.874,0.986-3.079,0.711-3.626-0.332c-0.548-1.043-0.092-2.191,1.783-3.176C18.829,84.404,20.034,84.679,20.582,85.724
	 M22.611,96.476c-1.109,0.674-1.676,0.566-2.341-0.336l-0.585-0.794c-0.26-0.354-0.232-0.589,0.131-0.856l3.901-2.875
	c0.162-0.119,0.37,0.049,0.82,0.598l0.231-0.17c-0.196-0.237-0.632-0.795-0.825-1.058c-0.358-0.485-0.694-0.976-1.037-1.474
	l-0.231,0.171c0.372,0.57,0.472,0.819,0.31,0.938l-4.018,2.959c-0.332,0.244-0.432,0.27-0.954-0.439l-0.262,0.193
	c0.301,0.36,0.735,0.886,1.38,1.744l0.795,1.077c0.657,0.909,0.95,1.372,1.188,1.744l1.701-1.1L22.611,96.476z M27.684,101.772
	c-0.994,0.835-1.57,0.815-2.364,0.023l-0.697-0.696c-0.313-0.311-0.32-0.549-0.002-0.867l3.423-3.432
	c0.142-0.141,0.372-0.006,0.902,0.467l0.202-0.203c-0.23-0.202-0.746-0.689-0.978-0.919c-0.425-0.428-0.833-0.86-1.247-1.3
	L26.72,95.05c0.455,0.508,0.591,0.737,0.448,0.879l-3.524,3.533c-0.29,0.291-0.385,0.332-1.009-0.29l-0.229,0.229
	c0.352,0.313,0.861,0.765,1.627,1.516l0.95,0.948c0.786,0.797,1.146,1.21,1.437,1.542l1.516-1.344L27.684,101.772z M36.104,102.857
	c-0.47-0.363-0.936-0.699-1.4-1.022c-0.458-0.33-0.916-0.646-1.363-0.993c-0.279-0.216-0.562-0.447-0.849-0.67l-0.839-0.686
	l-0.177,0.229c0.606,0.471,0.651,0.613,0.553,0.742l-3.076,3.978c-0.287,0.37-0.412,0.345-1.058-0.149l-0.176,0.224
	c0.398,0.285,0.88,0.632,2.1,1.575s2.012,1.581,2.416,1.918l1.241-1.401l-0.317-0.245c-0.897,0.734-1.262,0.973-1.884,0.492
	l-1.204-0.932c-0.318-0.245-0.258-0.574,0.093-1.029l1.214-1.568l0.529,0.409c0.629,0.487,0.498,0.907,0.042,1.499l0.287,0.223
	l1.619-2.03l-0.258-0.199c-0.415,0.49-0.817,0.821-1.333,0.423l-0.711-0.551l1.581-2.047l0.978,0.756
	c0.934,0.721,1.245,1.242,0.725,2.196l0.242,0.187L36.104,102.857z M40.647,110.799c0.104-0.173,0.236-0.179,0.647,0.028
	l0.133-0.256c-0.415-0.197-0.84-0.398-1.255-0.618c-0.39-0.205-0.77-0.427-1.143-0.646l-0.133,0.255
	c0.685,0.382,0.755,0.474,0.631,0.71l-0.375,0.712c-0.17,0.323-0.824,0.271-1.367-0.015c-1.475-0.777-1.284-2.453-0.61-3.732
	c0.67-1.27,1.775-2.344,3.275-1.555c1.026,0.542,1.502,1.485,1.015,2.68l0.254,0.133c0.267-0.586,0.6-1.137,0.91-1.687l-0.197-0.157
	c-0.092,0.049-0.204,0.098-0.297,0.049c-0.195-0.103-0.633-0.852-1.641-1.383c-1.764-0.93-3.59-0.441-4.527,1.338
	c-0.894,1.695-0.358,3.557,1.336,4.449c1.17,0.616,2.082,0.447,2.862,0.609L40.647,110.799z M49.452,109.089
	c-0.56-0.197-1.107-0.367-1.649-0.531c-0.54-0.168-1.074-0.326-1.607-0.514c-0.334-0.118-0.675-0.247-1.018-0.368l-1.01-0.387
	l-0.097,0.271c0.724,0.254,0.812,0.379,0.758,0.531l-1.671,4.743c-0.155,0.441-0.283,0.457-1.051,0.186l-0.097,0.273
	c0.468,0.145,1.033,0.321,2.488,0.834c1.454,0.515,2.405,0.868,2.896,1.063l0.738-1.72l-0.38-0.135
	c-0.619,0.981-0.891,1.321-1.631,1.059l-1.437-0.506c-0.38-0.132-0.426-0.463-0.234-1.006l0.66-1.869l0.63,0.223
	c0.751,0.264,0.758,0.703,0.51,1.408l0.343,0.121l0.899-2.436l-0.307-0.109c-0.241,0.597-0.519,1.038-1.132,0.822l-0.851-0.301
	l0.86-2.439l1.165,0.411c1.111,0.392,1.57,0.786,1.377,1.856l0.29,0.102L49.452,109.089z M52.394,116.401
	c0.384,0.038,0.698,0.066,1.531,0.188c0.834,0.124,1.286,0.209,1.69,0.29l0.042-0.285c-0.937-0.148-1.039-0.24-1.004-0.477
	l0.355-2.398l1.175,0.174c0.929,0.138,1.908-0.143,2.104-1.467c0.164-1.109-0.556-1.682-1.938-1.886
	c-0.284-0.043-0.541-0.071-0.779-0.098c-0.229-0.023-0.448-0.046-0.666-0.079c-0.217-0.031-0.473-0.078-0.744-0.139
	c-0.271-0.06-0.543-0.119-0.804-0.186l-0.052,0.34c0.813,0.13,0.916,0.224,0.881,0.459l-0.754,5.098
	c-0.035,0.237-0.161,0.296-0.995,0.182L52.394,116.401z M55.454,110.696l0.456,0.067c0.91,0.136,1.499,0.532,1.35,1.545
	c-0.145,0.977-0.822,1.371-1.742,1.235l-0.473-0.071L55.454,110.696z M61.616,111.256l0.449,0.002
	c0.777,0.003,1.6,0.216,1.595,1.175c-0.003,0.764-0.407,1.434-1.691,1.429h-0.362L61.616,111.256z M59.461,111.248
	c0.813,0.041,0.918,0.1,0.917,0.426l-0.019,4.959c-0.001,0.328-0.106,0.383-0.921,0.419l-0.001,0.286
	c0.488-0.015,0.977-0.032,1.465-0.032c0.536,0.003,1.073,0.024,1.609,0.046l0.002-0.289c-0.805-0.041-0.92-0.098-0.919-0.422
	l0.011-2.529l0.594,0.001c0.65,0.002,1.129,0.187,1.202,0.799c0.066,0.536,0.092,1.226,0.225,1.659
	c0.142,0.451,0.419,0.785,1.318,0.79l0.613,0.004l0.001-0.288c-0.296-0.002-0.603-0.014-0.688-0.339
	c-0.133-0.497-0.148-1.38-0.281-1.794c-0.151-0.457-0.495-0.785-1.511-0.98v-0.059c0.825-0.083,1.613-0.615,1.616-1.515
	c0.004-0.948-0.666-1.413-2.063-1.417c-0.431,0-0.767,0.006-1.045,0.017c-0.287,0.007-0.516,0.017-0.756,0.014
	c-0.201,0-0.441-0.009-0.68-0.021c-0.248-0.021-0.488-0.039-0.688-0.078L59.461,111.248z M72.013,110.089
	c-0.59,0.084-1.155,0.183-1.712,0.289c-0.556,0.1-1.103,0.205-1.661,0.283c-0.353,0.05-0.713,0.092-1.074,0.141l-1.074,0.123
	l0.039,0.285c0.76-0.105,0.896-0.039,0.916,0.125l0.703,4.978c0.064,0.463-0.039,0.536-0.847,0.65l0.039,0.284
	c0.482-0.088,1.066-0.189,2.595-0.404c1.527-0.214,2.534-0.339,3.059-0.393l-0.137-1.867l-0.4,0.057
	c-0.097,1.154-0.181,1.584-0.958,1.693l-1.51,0.212c-0.398,0.057-0.59-0.218-0.671-0.786l-0.277-1.962l0.664-0.095
	c0.786-0.11,0.998,0.277,1.101,1.016l0.361-0.051l-0.324-2.575l-0.323,0.046c0.061,0.639,0.019,1.158-0.627,1.248l-0.892,0.127
	l-0.362-2.563l1.225-0.172c1.167-0.164,1.756-0.025,2.078,1.014l0.303-0.045L72.013,110.089z M75.072,115.972
	c0.364-0.116,0.666-0.217,1.479-0.435c0.813-0.218,1.266-0.316,1.668-0.407l-0.075-0.275c-0.919,0.234-1.049,0.189-1.111-0.041
	l-0.626-2.34l1.147-0.309c0.906-0.242,1.696-0.888,1.349-2.184c-0.289-1.082-1.177-1.321-2.526-0.961
	c-0.276,0.075-0.525,0.15-0.755,0.222c-0.219,0.069-0.43,0.135-0.643,0.191c-0.213,0.058-0.465,0.116-0.737,0.168
	c-0.273,0.056-0.549,0.107-0.812,0.148l0.086,0.334c0.799-0.204,0.931-0.161,0.993,0.071l1.33,4.979
	c0.063,0.23-0.029,0.334-0.842,0.563L75.072,115.972z M75.617,109.522l0.443-0.118c0.889-0.239,1.588-0.107,1.853,0.883
	c0.256,0.952-0.211,1.582-1.108,1.822l-0.461,0.123L75.617,109.522z M81.273,107.126l0.199,6.313c0.005,0.247-0.25,0.431-0.565,0.62
	l0.114,0.263c0.264-0.114,0.51-0.272,0.771-0.386c0.326-0.142,0.651-0.252,0.985-0.377l-0.115-0.262
	c-0.594,0.258-0.728,0.242-0.804,0.066c-0.042-0.098-0.042-0.191-0.051-0.332l-0.072-1.274c-0.009-0.237,0.063-0.36,0.274-0.451
	l1.414-0.615l1.067,1.114c0.097,0.104,0.203,0.203,0.248,0.311c0.066,0.147-0.102,0.316-0.607,0.545l0.114,0.264
	c0.375-0.194,0.693-0.353,1.298-0.615c0.449-0.193,0.911-0.385,1.372-0.541l-0.112-0.266c-0.478,0.175-0.692,0.186-0.969-0.091
	l-4.343-4.382L81.273,107.126z M83.205,110.474l-1.291,0.561c-0.114,0.05-0.172,0.012-0.196-0.041
	c-0.019-0.045-0.019-0.115-0.021-0.166l-0.099-2.035l0.017-0.01L83.205,110.474z M86.926,104.74l0.388-0.229
	c0.668-0.395,1.484-0.633,1.972,0.193c0.39,0.657,0.385,1.44-0.719,2.094l-0.315,0.185L86.926,104.74z M85.071,105.837
	c0.72-0.381,0.842-0.385,1.005-0.105l2.525,4.271c0.166,0.28,0.105,0.384-0.575,0.831l0.145,0.248
	c0.411-0.267,0.821-0.531,1.243-0.779c0.462-0.271,0.932-0.529,1.403-0.786l-0.145-0.248c-0.714,0.377-0.841,0.388-1.008,0.106
	l-1.286-2.178l0.511-0.303c0.561-0.33,1.064-0.417,1.443,0.07c0.332,0.43,0.708,1.006,1.042,1.31
	c0.352,0.315,0.763,0.462,1.536,0.004l0.527-0.311l-0.145-0.249c-0.256,0.152-0.524,0.299-0.765,0.063
	c-0.37-0.361-0.833-1.11-1.158-1.396c-0.366-0.316-0.831-0.421-1.8-0.069l-0.03-0.05c0.665-0.493,1.069-1.356,0.611-2.13
	c-0.484-0.818-1.295-0.871-2.497-0.16c-0.373,0.219-0.656,0.399-0.891,0.548c-0.242,0.155-0.435,0.28-0.641,0.401
	c-0.174,0.103-0.385,0.217-0.594,0.329c-0.226,0.11-0.441,0.216-0.635,0.286L85.071,105.837z M92.865,100.12l1.915,6.019
	c0.07,0.238-0.123,0.483-0.375,0.752l0.182,0.223c0.223-0.182,0.415-0.4,0.637-0.582c0.274-0.226,0.561-0.422,0.845-0.631
	l-0.181-0.223c-0.504,0.412-0.636,0.434-0.756,0.285c-0.067-0.081-0.092-0.174-0.141-0.306l-0.416-1.208
	c-0.073-0.223-0.038-0.363,0.14-0.51l1.193-0.975l1.33,0.779c0.123,0.074,0.251,0.143,0.326,0.23
	c0.102,0.126-0.015,0.332-0.438,0.691l0.183,0.223c0.308-0.289,0.57-0.527,1.081-0.947c0.379-0.309,0.771-0.617,1.172-0.896
	l-0.181-0.222c-0.412,0.298-0.616,0.366-0.957,0.175l-5.373-3.027L92.865,100.12z M95.638,102.816l-1.09,0.891
	c-0.098,0.078-0.162,0.058-0.2,0.014c-0.03-0.037-0.049-0.107-0.065-0.156l-0.649-1.93l0.016-0.012L95.638,102.816z
	 M100.982,100.523c0.275,0.266,0.226,0.375-0.349,0.979l0.208,0.198c0.343-0.389,0.691-0.786,1.048-1.158
	c0.361-0.384,0.731-0.744,1.108-1.114l-0.207-0.198c-0.574,0.604-0.682,0.662-0.96,0.399l-3.877-3.679
	c0.638-0.674,1.44-1.338,2.303-0.549l0.197-0.209l-1.19-1.181c-0.453,0.534-1.007,1.199-1.947,2.192
	c-0.33,0.347-0.665,0.688-1.003,1.042c-0.344,0.348-0.687,0.696-1.035,1.052l1.218,1.207l0.225-0.235
	c-0.754-0.849-0.311-1.693,0.383-2.424L100.982,100.523z M107.113,94.41c1.077-1.549,0.806-3.488-0.812-4.615
	c-1.621-1.127-3.534-0.711-4.611,0.839c-1.078,1.547-0.808,3.486,0.811,4.615C104.122,96.376,106.035,95.958,107.113,94.41
	 M101.895,90.777c0.673-0.967,1.902-1.092,3.641,0.117c1.737,1.209,2.048,2.406,1.372,3.374c-0.671,0.966-1.902,1.09-3.638-0.118
	C101.531,92.938,101.221,91.743,101.895,90.777 M105.44,85.196l0.2-0.403c0.345-0.695,0.898-1.339,1.757-0.913
	c0.688,0.341,1.11,0.998,0.54,2.147l-0.163,0.327L105.44,85.196z M104.483,87.127c0.395-0.712,0.494-0.781,0.785-0.635l4.444,2.202
	c0.293,0.143,0.297,0.265-0.028,1.01l0.256,0.129c0.199-0.447,0.399-0.895,0.618-1.332c0.237-0.479,0.491-0.95,0.747-1.424
	l-0.257-0.127c-0.393,0.704-0.494,0.781-0.785,0.637l-2.267-1.125l0.264-0.531c0.289-0.584,0.666-0.929,1.248-0.727
	c0.51,0.178,1.142,0.458,1.588,0.529c0.466,0.071,0.891-0.029,1.289-0.836l0.274-0.548l-0.258-0.128
	c-0.133,0.268-0.277,0.536-0.607,0.468c-0.506-0.101-1.303-0.476-1.732-0.538c-0.48-0.064-0.925,0.099-1.547,0.924l-0.052-0.026
	c0.289-0.776,0.157-1.718-0.648-2.118c-0.851-0.423-1.56-0.025-2.181,1.229c-0.192,0.386-0.332,0.691-0.446,0.945
	c-0.119,0.26-0.215,0.471-0.32,0.684c-0.089,0.181-0.204,0.391-0.318,0.602c-0.13,0.214-0.252,0.421-0.376,0.584L104.483,87.127z
	 M113.152,80.958c0.247,0.08,0.288,0.297,0.078,0.973l0.272,0.089c0.131-0.462,0.257-0.911,0.405-1.37
	c0.168-0.517,0.354-1.021,0.54-1.535l-0.273-0.089c-0.278,0.765-0.384,0.843-0.566,0.782l-2.457-0.799l-1.794-2.044
	c-0.234-0.27-0.334-0.462-0.313-0.929l-0.327-0.107c-0.059,0.365-0.142,0.742-0.256,1.098c-0.039,0.117-0.091,0.241-0.14,0.365
	c-0.051,0.125-0.1,0.24-0.141,0.369l0.273,0.088c0.234-0.628,0.334-0.807,0.488-0.758c0.082,0.027,0.164,0.084,0.232,0.154
	l1.699,1.804l-2.404,0.485c-0.119,0.022-0.265,0.066-0.364,0.035c-0.109-0.037-0.137-0.228-0.071-0.426l0.104-0.318l-0.274-0.091
	c-0.099,0.371-0.203,0.751-0.324,1.122c-0.076,0.237-0.175,0.477-0.271,0.709c-0.099,0.24-0.194,0.472-0.293,0.709l0.292,0.097
	c0.108-0.177,0.255-0.411,0.525-0.466l3.202-0.648L113.152,80.958z"/>
<path fill="#FFFFFE" d="M86.928,37.157v34.517c0,0,1.456,19.275-24.149,26.484c-25.314-7.209-23.819-26.484-23.819-26.484V37.157
	H86.928z"/>
<path fill="none" stroke="#002E6D" stroke-width="2.1442" d="M86.928,37.157v34.517c0,0,1.456,19.275-24.149,26.484
	c-25.314-7.209-23.819-26.484-23.819-26.484V37.157H86.928z"/>
<path fill="#002E6D" d="M51.74,68.869c0-0.092,0.074-0.167,0.168-0.167c0.093,0,0.169,0.075,0.169,0.167v0.068
	c0.05-0.035,0.083-0.092,0.083-0.151v-0.665c0-0.063-0.033-0.111-0.083-0.149v0.093c0,0.088-0.076,0.164-0.169,0.164
	c-0.094,0-0.168-0.076-0.168-0.164v-0.08c-0.039,0.033-0.064,0.087-0.064,0.137v0.665c0,0.052,0.025,0.101,0.064,0.142V68.869z
	 M51.908,73.696c0.04,0,0.076,0.015,0.107,0.039c0.046-0.028,0.095-0.054,0.145-0.073v-0.657c0-0.063-0.033-0.12-0.087-0.153
	c-0.012,0.084-0.077,0.153-0.165,0.153c-0.083,0-0.147-0.065-0.16-0.144c-0.041,0.033-0.072,0.085-0.072,0.144v0.653
	c0.048,0.019,0.095,0.043,0.138,0.072C51.84,73.707,51.875,73.696,51.908,73.696 M51.908,71.224c0.088,0,0.16,0.068,0.165,0.155
	c0.054-0.037,0.087-0.093,0.087-0.155v-0.662c0-0.063-0.037-0.121-0.092-0.155c-0.024,0.071-0.084,0.121-0.16,0.121
	c-0.07,0-0.135-0.046-0.156-0.116c-0.045,0.037-0.076,0.093-0.076,0.15v0.662c0,0.055,0.031,0.111,0.072,0.145
	C51.761,71.287,51.825,71.224,51.908,71.224 M46.34,85.988c0,0-0.306-0.553-0.313-0.572l-0.366-1.211l0.023-0.037
	c0,0,0.328-0.458,0.33-0.458c0.006-0.013,0.007-0.021,0.007-0.032c0-0.021-0.021-0.041-0.034-0.063
	c-0.111,0.074-0.293,0.201-0.294,0.198c0,0.003-0.215,0.296-0.256,0.348c0.012,0.094,0.076,0.704,0.139,0.955l0.176,0.429l0.08,0.17
	c0.052,0.127,0.29,0.355,0.39,0.449c0.071,0.003,0.271,0.023,0.389,0.167c0.007,0.012,0.007,0.042,0.021,0.06
	c0.036-0.044,0.058-0.103,0.058-0.194c0-0.032-0.001-0.071-0.007-0.116c-0.046-0.041-0.179-0.055-0.257-0.046l-0.059,0.005
	L46.34,85.988z M51.908,66.353c0.073,0,0.132,0.047,0.153,0.107c0.061-0.041,0.099-0.095,0.099-0.164v-0.66
	c0-0.063-0.033-0.114-0.083-0.152v0.013c-0.004,0.091-0.081,0.164-0.173,0.162c-0.09,0-0.157-0.077-0.164-0.162
	c-0.039,0.033-0.064,0.085-0.064,0.14v0.66c0,0.064,0.033,0.115,0.085,0.152C51.781,66.396,51.844,66.353,51.908,66.353
	 M51.908,76.167c0.081,0,0.149,0.063,0.16,0.14c0.059-0.037,0.092-0.091,0.092-0.155v-0.665c0-0.063-0.037-0.113-0.092-0.153
	c-0.011,0.077-0.079,0.138-0.16,0.138c-0.077,0-0.138-0.055-0.156-0.131c-0.045,0.042-0.076,0.095-0.076,0.146v0.665
	c0,0.059,0.031,0.107,0.076,0.144C51.765,76.224,51.831,76.167,51.908,76.167 M47.277,72.566c0.024-0.028,0.05-0.173,0.05-0.323
	c0-0.001-0.001-0.005-0.001-0.011c-0.119-0.01-0.59-0.047-0.781-0.066c0.095,0.123,0.257,0.295,0.441,0.375
	C47.094,72.591,47.194,72.601,47.277,72.566 M53.025,77.902c-0.1,0.045-0.176,0.08-0.176,0.08l-0.026-0.102h-0.269l-0.065,0.041
	c0,0,0.004-0.016,0.015-0.041h-0.446c-0.032,0.053-0.081,0.09-0.149,0.09c-0.063,0-0.115-0.037-0.144-0.09l-0.423-0.002
	c0,0.008,0.004,0.014,0.004,0.014s-0.01-0.004-0.021-0.014H51.02l-0.025,0.104c0,0-0.065-0.028-0.149-0.071
	c-0.156,0.044-0.39,0.14-0.539,0.342c-0.095,0.126-0.178,0.226-0.251,0.311h3.808c-0.074-0.085-0.16-0.185-0.249-0.311
	C53.444,78.025,53.174,77.933,53.025,77.902 M61.838,75.025c0,0-0.763,0.621-0.767,0.625c-0.331,0.242-0.993,1.73-1.069,2.088
	l-0.02,0.494v0.238c0,0.409-0.021,0.908-0.208,1.327c-0.117,0.257-0.21,0.374-0.299,0.388c0.012-0.001,0.024-0.001,0.024-0.001
	c-0.019,0.013-0.452,0.24-0.836,0.362c-0.003,0.114-0.096,1.662-0.096,1.705c0.166,0.344,0.608,1.207,0.836,1.369l0.053,0.04
	l-0.263,0.817l-0.232,0.74l-0.031,0.085l-0.086-0.025c0,0-0.085-0.023-0.221,0.105l-0.025,0.052c0,0.109,0.14,0.275,0.22,0.357
	l0.122,0.112l-0.156,0.046c-0.171,0.044-0.229,0.264-0.232,0.257c0,0.003,0.035,0.483,0.035,0.483s-1.346,0.014-1.371,0.014
	c-0.069,0.074-0.135,0.143-0.164,0.169v0.413l-1.332-0.015v-0.091c0-0.215,0.172-0.377,0.208-0.402c0,0,0.348-0.121,0.391-0.135
	c0.046-0.049,0.404-0.462,0.633-0.816c0,0,0.179-1.301,0.192-1.39c-0.059-0.06-0.476-0.461-0.476-0.461l-0.003-0.032
	c-0.042-0.305-0.207-0.532-0.354-0.73c0,0-0.239-0.396-0.24-0.411c0,0-0.249-1.501-0.249-1.532l0.161-0.33
	c0.074-0.129,0.159-0.256,0.159-0.36c0,0-0.185-2.118-0.185-2.139l-0.25-0.487l-0.1-0.162l-0.198-0.336c0,0,1.902-1.453,2.012-1.537
	c-0.031-0.066-0.064-0.142-0.104-0.231c-0.171,0.126-2.393,1.785-2.393,1.785l-0.033,0.011l-0.308,0.045l-0.208,0.03H53.94
	c-0.021,0.015-0.2,0.123-0.361,0.218c0.106,0.072,0.212,0.16,0.299,0.282c0.208,0.277,0.366,0.438,0.438,0.502h0.583
	c0.09,0,0.163,0.075,0.163,0.165v0.636c0,0.091-0.073,0.163-0.163,0.163h-0.331c-0.002,0.391-0.004,1.359-0.004,1.364
	c0,0.622-0.539,1.13-1.197,1.13h-2.825c-0.661,0-1.195-0.508-1.195-1.13c0,0-0.005-1.099-0.005-1.364h-0.328
	c-0.094,0-0.164-0.072-0.164-0.163v-0.636c0-0.09,0.07-0.165,0.164-0.165h0.58c0.07-0.062,0.235-0.225,0.439-0.502
	c0.079-0.105,0.176-0.191,0.273-0.256c-0.171-0.102-0.382-0.229-0.405-0.244h-0.432l-0.212-0.03l-0.283-0.041l-0.034-0.004
	c0,0-2.242-1.67-2.41-1.796c-0.04,0.09-0.074,0.165-0.109,0.231c0.113,0.084,1.95,1.485,1.95,1.485l0.063,0.054l-0.196,0.334
	l-0.098,0.162c0,0-0.246,0.479-0.246,0.469c0,0.002-0.187,2.148-0.19,2.148c0,0.113,0.088,0.24,0.16,0.369
	c0,0,0.157,0.33,0.157,0.361c0,0-0.245,1.501-0.249,1.516l-0.234,0.396c-0.146,0.198-0.315,0.426-0.355,0.73l-0.006,0.032
	c0,0-0.418,0.401-0.474,0.461c0.031,0.216,0.178,1.303,0.178,1.354c0.242,0.388,0.604,0.803,0.644,0.852
	c0.068,0.021,0.394,0.137,0.425,0.154c0.01,0.006,0.181,0.168,0.181,0.383v0.091l-1.341,0.015v-0.413
	c-0.023-0.026-0.088-0.095-0.162-0.169c-0.02,0-1.369-0.014-1.369-0.014l0.006-0.096c0,0,0.031-0.355,0.031-0.361
	c0-0.004-0.058-0.237-0.231-0.283l-0.153-0.046l0.114-0.112c0.09-0.082,0.22-0.248,0.22-0.357l-0.021-0.052
	c-0.136-0.129-0.216-0.105-0.22-0.105l-0.094,0.025l-0.256-0.825l-0.268-0.817l0.057-0.04c0.225-0.162,0.671-1.025,0.832-1.369
	c-0.003-0.043-0.089-1.591-0.094-1.705c-0.382-0.122-0.816-0.35-0.83-0.362c0,0,0.008,0,0.019,0.001
	c-0.089-0.014-0.181-0.131-0.299-0.388c-0.187-0.419-0.212-0.918-0.212-1.327c0-0.081,0-0.159,0.003-0.238l-0.02-0.494
	c-0.075-0.357-0.737-1.846-1.069-2.092l-0.762-0.621l-0.711-1.82l1.778,0.073l1.013,0.76l0.006,0.022
	c0.195,0.443,0.79,3.786,0.79,4.104l-0.011,0.394c-0.01,0.238-0.033,0.664-0.033,0.895c0,0.077,0.004,0.136,0.011,0.154
	c0,0,0.265,0.13,0.378,0.18c0.061-0.123,0.27-0.547,0.288-0.58c-0.005-0.123-0.04-3.736-0.04-3.883v-0.006
	c0-0.003,0.04-0.207,0.04-0.466c0-0.261-0.04-0.577-0.179-0.812c-0.24-0.401-0.264-0.83-0.264-1.224v-0.325
	c0-0.437-0.045-0.595-0.049-0.62l-0.037-1.286c0,0,0.685,0.714,0.821,0.848l0.443-0.887l0.131,1.02
	c0.338,0.061,0.703,0.127,0.703,0.127c0.118,0.023,0.394,0.098,0.424,0.205c0.081,0.056,0.667,0.118,1.167,0.148l0.099,0.008
	l-0.054,0.414l-0.022,0.018c0,0-0.513,0.492-0.545,0.512c-0.049,0.012-1.064,0.377-1.497,0.475c0.005,0.118,0.028,0.631,0.037,0.689
	c0.139,0.128,1.838,1.671,1.848,1.688c0.007,0.009,0.419,0.605,0.893,0.823c0,0,1.067,0.315,1.067,0.318
	c0.156-0.011,0.674-0.05,0.82,0.121c0.106,0.122,0.142,0.316,0.153,0.435h0.262v-0.888c-0.229-0.068-0.398-0.271-0.398-0.508v-0.665
	c0-0.235,0.17-0.434,0.398-0.502v-0.461c-0.105,0.027-0.234,0.058-0.321,0.075c0.007,0.014,0.126,0.131,0.126,0.131l-0.186,0.022
	c0,0-0.563,0.066-0.567,0.066c-0.167,0.048-0.643,0.191-0.8,0.284l-0.141,0.194c-0.151,0.119-1.039,0.127-1.412,0.119h-0.035
	l-0.909-0.803l0.228-0.006c0.019,0,1.582-0.057,2.113-0.181c0,0,1.03-0.407,1.033-0.4c0.054-0.053,0.27-0.257,0.473-0.356v-0.004
	v-0.661c0-0.239,0.17-0.438,0.398-0.508v-0.765c-0.229-0.07-0.398-0.27-0.398-0.508v-0.662c0-0.236,0.17-0.438,0.398-0.508V69.29
	c-0.229-0.067-0.398-0.267-0.398-0.504v-0.665c0-0.234,0.17-0.434,0.398-0.504v-0.813c-0.229-0.068-0.398-0.269-0.398-0.508v-0.66
	c0-0.24,0.172-0.441,0.41-0.509l0.009-0.386c0.004-0.09,0.079-0.162,0.172-0.155c0.089,0,0.16,0.071,0.16,0.167l-0.007,0.371
	c0.232,0.068,0.407,0.271,0.407,0.512v0.66c0,0.246-0.177,0.451-0.416,0.516v0.797c0.239,0.064,0.416,0.271,0.416,0.512v0.665
	c0,0.245-0.177,0.45-0.416,0.515v0.752c0.239,0.063,0.416,0.268,0.416,0.51v0.662c0,0.244-0.177,0.447-0.416,0.514v0.75
	c0.239,0.064,0.416,0.27,0.416,0.517v0.661c0.206,0.095,0.424,0.304,0.453,0.338c0,0,1.053,0.414,1.053,0.42
	c0.546,0.127,2.105,0.184,2.123,0.184l0.229,0.006l-0.91,0.803h-0.034c-0.376,0.008-1.264,0-1.412-0.119l-0.142-0.194
	c-0.161-0.093-0.634-0.236-0.788-0.28l-0.763-0.093c0,0,0.113-0.117,0.126-0.131c-0.095-0.02-0.234-0.054-0.352-0.082v0.457
	c0.239,0.064,0.416,0.269,0.416,0.513v0.665c0,0.243-0.177,0.448-0.416,0.511v0.885h0.293c0.011-0.118,0.039-0.313,0.145-0.435
	c0.15-0.171,0.668-0.132,0.788-0.118c0,0,1.091-0.314,1.092-0.314c0.488-0.225,0.899-0.821,0.915-0.847c0,0,1.792-1.624,1.845-1.671
	c0-0.059,0.024-0.571,0.03-0.689c-0.433-0.098-1.452-0.463-1.529-0.494l-0.532-0.51l-0.056-0.414l0.096-0.008
	c0.496-0.03,1.091-0.093,1.15-0.115c0.051-0.141,0.327-0.215,0.44-0.238c0,0,0.368-0.066,0.7-0.127l0.138-1.02l0.438,0.887
	c0.137-0.139,0.823-0.848,0.823-0.848l-0.008,0.236c0,0-0.027,1.05-0.029,1.071c0,0.004-0.044,0.162-0.044,0.599v0.325
	c0,0.394-0.027,0.822-0.269,1.224c-0.141,0.234-0.173,0.549-0.173,0.812c0,0.265,0.032,0.472,0.035,0.483
	c0,0-0.035,3.828-0.038,3.871c0.015,0.033,0.227,0.457,0.285,0.58c0.125-0.055,0.333-0.156,0.349-0.156
	c0.027-0.042,0.032-0.181,0.032-0.351c0-0.239-0.015-0.534-0.021-0.722l-0.017-0.394c0-0.318,0.598-3.661,0.789-4.104l0.013-0.022
	l1.012-0.76l1.778-0.073L61.838,75.025z M83.627,81.479c-2.527,4.93-8.2,11.538-20.844,15.105c0,0,0-0.003-0.003-0.003V64.703
	h-3.227L40.149,45.317v-3.591l22.678,22.715v0.121l23.286,0.024v6.847c0,0.015,0.009,0.152,0.009,0.391
	C86.122,73.043,85.925,76.989,83.627,81.479 M40.149,62.484l2.188,2.236h-2.188V62.484z M40.149,55.716l8.985,8.997l-3.397,0.002
	l-5.588-5.623V55.716z M40.149,48.696l16.005,16.01l-3.623,0.006L40.149,52.333V48.696z M43.613,38.457l19.214,19.167v3.415
	L40.261,38.457H43.613z M50.221,38.457l12.606,12.586v3.201l-15.81-15.787H50.221z M57.166,38.457l5.661,5.574v3.635l-9.203-9.208
	H57.166z M62.827,38.457v2.196l-2.259-2.196H62.827z M65.405,42.33c0.164-0.176,0.212-0.32,0.212-0.32s0.197,0.556,1.065,0.826
	c0.902-0.267,1.099-0.841,1.099-0.841s0.203,0.575,1.106,0.841c0.866-0.27,1.063-0.826,1.063-0.826s0.059,0.17,0.259,0.373
	c0.14,0.481,0.15,1.142,0.15,1.142c-0.052,0.038-0.099,0.068-0.14,0.079c-0.27,0.088-0.27,0.268-0.27,0.268s0-0.18-0.269-0.268
	c-0.246-0.081-0.746-0.644-0.819-0.734c-0.117,0.135-0.581,0.646-0.809,0.719c-0.273,0.092-0.273,0.264-0.273,0.264
	s0-0.172-0.264-0.264c-0.231-0.073-0.691-0.585-0.813-0.719c-0.077,0.087-0.573,0.654-0.814,0.734
	c-0.272,0.088-0.272,0.268-0.272,0.268s0-0.18-0.268-0.268c-0.032-0.011-0.068-0.029-0.11-0.059
	C65.229,42.936,65.405,42.33,65.405,42.33 M65.814,41.641c0.838-0.245,0.943-0.631,0.943-0.631s0.134,0.394,1.039,0.631
	c0,0-0.569,0.663-0.836,0.753c-0.268,0.09-0.268,0.264-0.268,0.264s0-0.174-0.266-0.264c-0.224-0.073-0.65-0.56-0.792-0.706
	C65.636,41.688,65.81,41.666,65.814,41.641 M66.683,40.577c-0.159,0.507-0.592,0.709-0.946,0.831
	C65.736,41.408,66.014,40.906,66.683,40.577 M67.142,40.323c0.181-0.063,0.186-0.048,0.248-0.162l-0.346-0.623l0.482-0.174
	c0,0,0.272,0.444,0.648,0.823c0.123,0.128,0.564,0.192,0.663,0.363c0,0-0.433,0.601-0.805,0.666
	c-0.231,0.041-0.223,0.215-0.223,0.215s0.005-0.16-0.227-0.215c-0.423-0.098-0.846-0.674-0.846-0.674
	C66.777,40.384,66.99,40.376,67.142,40.323 M69.962,41.688c-0.14,0.146-0.567,0.632-0.787,0.706
	c-0.272,0.09-0.272,0.264-0.272,0.264s0-0.174-0.265-0.264c-0.271-0.09-0.839-0.753-0.839-0.753
	c0.904-0.237,1.039-0.631,1.039-0.631s0.108,0.386,0.945,0.631C69.79,41.666,69.962,41.688,69.962,41.688 M69.861,41.408
	c-0.355-0.122-0.79-0.324-0.945-0.831C69.583,40.906,69.861,41.408,69.861,41.408 M70.938,46.892c0,0,0.274,0.444,0.65,0.818
	c0.126,0.128,0.561,0.199,0.662,0.371c0,0-0.434,0.6-0.806,0.666c-0.232,0.037-0.225,0.213-0.225,0.213s0.005-0.16-0.226-0.213
	c-0.421-0.101-0.845-0.675-0.845-0.675c0.041-0.161,0.253-0.168,0.399-0.22c0.187-0.064,0.187-0.05,0.254-0.165l-0.345-0.618
	L70.938,46.892z M73.272,48.935c-0.355-0.122-0.79-0.322-0.947-0.833C72.995,48.436,73.272,48.935,73.272,48.935 M72.815,42.33
	c0.164-0.176,0.216-0.32,0.216-0.32s0.193,0.556,1.06,0.826c0.906-0.267,1.104-0.841,1.104-0.841s0.202,0.575,1.105,0.841
	c0.865-0.27,1.063-0.826,1.063-0.826s0.054,0.17,0.254,0.373c0.14,0.481,0.152,1.142,0.152,1.142
	c-0.05,0.038-0.101,0.068-0.14,0.079c-0.267,0.088-0.267,0.268-0.267,0.268s0-0.18-0.27-0.268c-0.247-0.081-0.741-0.644-0.822-0.734
	c-0.116,0.135-0.575,0.646-0.808,0.719c-0.27,0.092-0.27,0.264-0.27,0.264s0-0.172-0.265-0.264c-0.232-0.073-0.698-0.584-0.81-0.719
	c-0.082,0.091-0.576,0.654-0.821,0.734c-0.269,0.088-0.269,0.268-0.269,0.268s0-0.18-0.271-0.268
	c-0.029-0.011-0.073-0.029-0.11-0.059C72.635,42.936,72.815,42.33,72.815,42.33 M73.223,41.641c0.833-0.245,0.945-0.631,0.945-0.631
	s0.135,0.394,1.039,0.631c0,0-0.563,0.663-0.84,0.753c-0.262,0.09-0.262,0.264-0.262,0.264s0-0.174-0.271-0.264
	c-0.221-0.073-0.648-0.56-0.792-0.706C73.042,41.688,73.219,41.666,73.223,41.641 M74.088,40.577
	c-0.156,0.507-0.589,0.709-0.945,0.831C73.143,41.408,73.424,40.906,74.088,40.577 M74.552,40.323
	c0.179-0.063,0.184-0.048,0.248-0.162l-0.346-0.623l0.485-0.174c0,0,0.273,0.444,0.646,0.823c0.125,0.128,0.565,0.192,0.664,0.363
	c0,0-0.434,0.601-0.804,0.666c-0.232,0.041-0.227,0.215-0.227,0.215s0.011-0.16-0.226-0.215c-0.422-0.098-0.847-0.674-0.847-0.674
	C74.188,40.384,74.396,40.376,74.552,40.323 M77.371,41.688c-0.141,0.146-0.568,0.632-0.791,0.706
	c-0.268,0.09-0.268,0.264-0.268,0.264s0-0.174-0.268-0.264s-0.838-0.753-0.838-0.753c0.906-0.237,1.042-0.631,1.042-0.631
	s0.107,0.386,0.943,0.631C77.192,41.666,77.371,41.688,77.371,41.688 M77.271,41.408c-0.354-0.122-0.788-0.324-0.945-0.831
	C76.989,40.906,77.271,41.408,77.271,41.408 M78.467,46.892c0,0,0.272,0.444,0.652,0.818c0.123,0.128,0.559,0.199,0.655,0.371
	c0,0-0.429,0.6-0.802,0.666c-0.233,0.037-0.224,0.213-0.224,0.213s0.004-0.16-0.229-0.213c-0.421-0.101-0.843-0.675-0.843-0.675
	c0.039-0.161,0.25-0.168,0.402-0.22c0.182-0.064,0.184-0.05,0.25-0.165l-0.345-0.618L78.467,46.892z M84.231,44.045
	c-0.054,0.061-0.574,0.654-0.827,0.738c-0.27,0.088-0.27,0.265-0.27,0.265s0-0.177-0.268-0.265
	c-0.262-0.087-0.806-0.717-0.832-0.747c-0.022,0.03-0.571,0.659-0.831,0.747c-0.27,0.088-0.27,0.265-0.27,0.265s0-0.177-0.271-0.265
	c-0.246-0.084-0.756-0.664-0.822-0.738c-0.02,0.035-0.124,0.226-0.254,0.41c-0.033-0.233-0.091-0.555-0.091-0.555
	c0.102,0.044,0.216,0.091,0.34,0.127c0.896-0.267,1.099-0.84,1.099-0.84s0.199,0.575,1.101,0.843c0.9-0.269,1.1-0.843,1.1-0.843
	s0.203,0.575,1.097,0.84c0.132-0.037,0.246-0.083,0.347-0.133c-0.008,0.216-0.072,0.584-0.072,0.584
	C84.373,44.295,84.26,44.091,84.231,44.045 M83.095,45.256c-0.116,0.132-0.579,0.646-0.806,0.719
	c-0.273,0.09-0.273,0.266-0.273,0.266s0-0.176-0.269-0.266c-0.231-0.073-0.688-0.587-0.806-0.719
	c-0.08,0.091-0.573,0.654-0.824,0.739c-0.328-0.674-0.471-1.286-0.471-1.286c0.159-0.171,0.207-0.309,0.207-0.309
	s0.195,0.555,1.063,0.821c0.899-0.264,1.1-0.835,1.1-0.835s0.205,0.571,1.105,0.835c0.863-0.266,1.062-0.821,1.062-0.821
	s0.058,0.163,0.25,0.356c-0.162,0.586-0.49,1.253-0.49,1.253C83.691,45.926,83.174,45.347,83.095,45.256 M82.035,46.421
	c-0.022,0.032-0.571,0.662-0.831,0.749c-0.12,0.039-0.185,0.097-0.224,0.149c-0.598-0.754-0.717-1.078-0.717-1.078
	c0.538-0.281,0.671-0.661,0.671-0.661s0.199,0.568,1.101,0.838c0.9-0.27,1.1-0.838,1.1-0.838s0.156,0.387,0.675,0.669
	c-0.259,0.455-0.743,1.038-0.743,1.038c-0.044-0.042-0.104-0.085-0.199-0.118C82.605,47.083,82.062,46.454,82.035,46.421
	 M81.154,47.51c0.769-0.306,0.861-0.838,0.861-0.838s0.098,0.532,0.828,0.838c-0.165,0.199-0.632,0.578-0.632,0.578
	c-0.138,0.09-0.196,0.383-0.196,0.383s-0.075-0.325-0.225-0.406C81.522,47.862,81.154,47.51,81.154,47.51 M79.855,48.101
	c0.665,0.334,0.943,0.833,0.943,0.833C80.442,48.813,80.011,48.613,79.855,48.101 M80.722,49.169
	c0.007,0.023,0.179,0.048,0.179,0.048c-0.14,0.146-0.566,0.632-0.79,0.704c-0.27,0.09-0.27,0.266-0.27,0.266s0-0.176-0.266-0.266
	c-0.271-0.086-0.836-0.751-0.836-0.751c0.903-0.242,1.035-0.635,1.035-0.635S79.886,48.92,80.722,49.169 M81.161,51.132
	c-0.272,0.084-0.272,0.266-0.272,0.266s0-0.182-0.268-0.266c-0.244-0.083-0.741-0.644-0.823-0.736
	c-0.115,0.133-0.573,0.644-0.808,0.719c-0.265,0.089-0.265,0.263-0.265,0.263s0-0.174-0.27-0.263
	c-0.23-0.076-0.693-0.586-0.805-0.719c-0.082,0.09-0.578,0.652-0.826,0.736c-0.267,0.084-0.267,0.266-0.267,0.266
	s0-0.182-0.265-0.266c-0.036-0.013-0.077-0.033-0.116-0.06c-0.009-0.608,0.168-1.212,0.168-1.212
	c0.166-0.176,0.213-0.324,0.213-0.324s0.198,0.556,1.06,0.827c0.901-0.264,1.107-0.84,1.107-0.84s0.197,0.576,1.101,0.84
	c0.865-0.271,1.063-0.827,1.063-0.827s0.058,0.172,0.261,0.373c0.136,0.479,0.151,1.146,0.151,1.146
	C81.245,51.088,81.202,51.115,81.161,51.132 M80.938,51.567c-0.055,0.066-0.573,0.658-0.827,0.743
	c-0.27,0.086-0.27,0.266-0.27,0.266s0-0.18-0.266-0.266c-0.26-0.087-0.803-0.714-0.835-0.747c-0.025,0.032-0.566,0.659-0.831,0.747
	c-0.267,0.086-0.267,0.266-0.267,0.266s0-0.18-0.271-0.266c-0.248-0.082-0.757-0.661-0.823-0.739
	c-0.021,0.042-0.123,0.225-0.254,0.409c-0.039-0.229-0.086-0.557-0.086-0.557c0.095,0.052,0.211,0.094,0.34,0.134
	c0.896-0.27,1.095-0.841,1.095-0.841s0.201,0.573,1.098,0.841c0.902-0.268,1.101-0.841,1.101-0.841s0.203,0.572,1.097,0.841
	c0.131-0.04,0.244-0.085,0.348-0.134c-0.006,0.214-0.073,0.585-0.073,0.585C81.083,51.823,80.965,51.617,80.938,51.567
	 M79.798,52.785c-0.115,0.131-0.573,0.643-0.808,0.719c-0.265,0.089-0.265,0.264-0.265,0.264s0-0.175-0.27-0.264
	c-0.23-0.077-0.693-0.588-0.805-0.719c-0.082,0.09-0.578,0.652-0.826,0.734c-0.329-0.673-0.469-1.28-0.469-1.28
	c0.155-0.173,0.202-0.313,0.202-0.313s0.198,0.557,1.06,0.827c0.901-0.268,1.107-0.843,1.107-0.843s0.197,0.575,1.101,0.839
	c0.865-0.267,1.063-0.824,1.063-0.824s0.058,0.166,0.25,0.358c-0.163,0.586-0.492,1.254-0.492,1.254
	C80.401,53.454,79.884,52.875,79.798,52.785 M69.034,51.926c0,0,0.189,0.557,1.059,0.827c0.901-0.268,1.105-0.843,1.105-0.843
	s0.196,0.575,1.101,0.839c0.868-0.267,1.065-0.824,1.065-0.824s0.055,0.166,0.246,0.358c-0.163,0.586-0.489,1.254-0.489,1.254
	c-0.251-0.085-0.769-0.663-0.849-0.753c-0.115,0.131-0.572,0.643-0.809,0.719c-0.266,0.089-0.266,0.264-0.266,0.264
	s0-0.175-0.27-0.264c-0.234-0.077-0.691-0.588-0.807-0.719c-0.084,0.09-0.575,0.652-0.825,0.734c-0.328-0.673-0.472-1.28-0.472-1.28
	C68.984,52.066,69.034,51.926,69.034,51.926 M69.018,51.557c0.893-0.27,1.098-0.841,1.098-0.841s0.198,0.573,1.101,0.841
	c0.898-0.268,1.098-0.841,1.098-0.841s0.199,0.572,1.095,0.841c0.134-0.04,0.247-0.085,0.352-0.134
	c-0.009,0.214-0.072,0.585-0.072,0.585c-0.136-0.185-0.25-0.392-0.279-0.441c-0.051,0.066-0.573,0.658-0.825,0.743
	c-0.27,0.086-0.27,0.266-0.27,0.266s0-0.18-0.269-0.266c-0.261-0.087-0.803-0.714-0.829-0.747c-0.028,0.032-0.575,0.659-0.834,0.747
	c-0.267,0.086-0.267,0.266-0.267,0.266s0-0.18-0.27-0.266c-0.25-0.082-0.762-0.661-0.824-0.739c-0.02,0.042-0.126,0.225-0.256,0.409
	c-0.037-0.229-0.089-0.557-0.089-0.557C68.778,51.475,68.892,51.517,69.018,51.557 M73.371,49.217
	c-0.138,0.146-0.567,0.632-0.788,0.704c-0.27,0.09-0.27,0.266-0.27,0.266s0-0.176-0.269-0.266c-0.268-0.086-0.838-0.751-0.838-0.751
	c0.907-0.242,1.043-0.635,1.043-0.635s0.109,0.386,0.94,0.635C73.199,49.192,73.371,49.217,73.371,49.217 M72.76,44.455
	c-0.029-0.233-0.087-0.555-0.087-0.555c0.103,0.044,0.215,0.091,0.344,0.127c0.895-0.267,1.096-0.84,1.096-0.84
	s0.202,0.575,1.101,0.843c0.9-0.269,1.1-0.843,1.1-0.843s0.203,0.575,1.102,0.84c0.126-0.037,0.243-0.083,0.344-0.133
	c-0.008,0.216-0.074,0.584-0.074,0.584c-0.13-0.184-0.246-0.387-0.274-0.433c-0.054,0.061-0.574,0.654-0.829,0.738
	c-0.268,0.088-0.268,0.265-0.268,0.265s0-0.177-0.268-0.265c-0.259-0.087-0.804-0.717-0.832-0.747
	c-0.026,0.03-0.569,0.659-0.831,0.747c-0.27,0.088-0.27,0.265-0.27,0.265s0-0.177-0.268-0.265c-0.249-0.084-0.76-0.664-0.824-0.738
	C72.998,44.084,72.893,44.271,72.76,44.455 M73.031,44.4c0,0,0.193,0.555,1.06,0.821c0.906-0.264,1.104-0.835,1.104-0.835
	s0.202,0.571,1.105,0.835c0.865-0.266,1.063-0.821,1.063-0.821s0.054,0.163,0.246,0.356c-0.16,0.586-0.492,1.253-0.492,1.253
	c-0.247-0.083-0.764-0.663-0.846-0.753c-0.116,0.132-0.575,0.646-0.808,0.719c-0.27,0.09-0.27,0.266-0.27,0.266s0-0.176-0.265-0.266
	c-0.232-0.073-0.698-0.587-0.81-0.719c-0.084,0.091-0.576,0.654-0.821,0.739c-0.334-0.674-0.471-1.286-0.471-1.286
	C72.984,44.538,73.031,44.4,73.031,44.4 M77.695,48.534c0,0,0.136,0.393,1.044,0.635c0,0-0.572,0.666-0.839,0.751
	c-0.268,0.09-0.268,0.266-0.268,0.266s0-0.176-0.269-0.266c-0.225-0.071-0.652-0.558-0.79-0.704c0,0,0.172-0.024,0.174-0.048
	C77.586,48.92,77.695,48.534,77.695,48.534 M76.677,48.935c0,0,0.278-0.499,0.941-0.833C77.462,48.613,77.029,48.813,76.677,48.935
	 M76.045,47.17c-0.259-0.087-0.804-0.716-0.832-0.749c-0.026,0.033-0.569,0.662-0.831,0.749c-0.12,0.039-0.184,0.097-0.224,0.149
	c-0.597-0.754-0.714-1.078-0.714-1.078c0.536-0.281,0.668-0.661,0.668-0.661s0.202,0.568,1.101,0.838c0.9-0.27,1.1-0.838,1.1-0.838
	s0.156,0.387,0.671,0.669c-0.252,0.455-0.744,1.038-0.744,1.038C76.198,47.246,76.143,47.203,76.045,47.17 M76.15,55.455
	c0.664,0.331,0.944,0.828,0.944,0.828C76.739,56.163,76.303,55.965,76.15,55.455 M76.072,55.887c0,0,0.109,0.382,0.945,0.632
	c0.005,0.025,0.175,0.046,0.175,0.046c-0.138,0.145-0.566,0.632-0.786,0.707c-0.27,0.086-0.27,0.264-0.27,0.264s0-0.178-0.268-0.264
	c-0.267-0.088-0.837-0.753-0.837-0.753C75.94,56.281,76.072,55.887,76.072,55.887 M74.332,47.51
	c0.771-0.306,0.863-0.838,0.863-0.838s0.095,0.532,0.831,0.838c-0.167,0.199-0.635,0.578-0.635,0.578
	c-0.141,0.09-0.196,0.383-0.196,0.383s-0.077-0.325-0.226-0.406C74.701,47.862,74.332,47.51,74.332,47.51 M74.814,56.092
	c-0.422-0.096-0.844-0.672-0.844-0.672c0.041-0.159,0.249-0.168,0.4-0.218c0.188-0.063,0.19-0.049,0.252-0.164l-0.348-0.617
	l0.487-0.182c0,0,0.272,0.448,0.648,0.824c0.127,0.127,0.563,0.192,0.661,0.366c0,0-0.433,0.604-0.804,0.663
	c-0.23,0.044-0.227,0.215-0.227,0.215S75.049,56.151,74.814,56.092 M72.969,56.283c0,0,0.275-0.498,0.947-0.828
	C73.76,55.965,73.324,56.163,72.969,56.283 M73.044,56.52c0.84-0.25,0.95-0.632,0.95-0.632s0.131,0.394,1.038,0.632
	c0,0-0.573,0.666-0.838,0.753c-0.268,0.086-0.268,0.264-0.268,0.264s0-0.178-0.271-0.264c-0.218-0.075-0.646-0.563-0.786-0.707
	C72.869,56.566,73.042,56.545,73.044,56.52 M68.817,49.86c0.163-0.176,0.217-0.324,0.217-0.324s0.189,0.556,1.059,0.827
	c0.901-0.264,1.105-0.84,1.105-0.84s0.196,0.576,1.101,0.84c0.868-0.271,1.065-0.827,1.065-0.827s0.055,0.172,0.255,0.373
	c0.142,0.479,0.155,1.146,0.155,1.146c-0.056,0.034-0.104,0.061-0.141,0.078c-0.27,0.084-0.27,0.266-0.27,0.266s0-0.182-0.271-0.266
	c-0.243-0.083-0.741-0.644-0.821-0.736c-0.117,0.133-0.572,0.644-0.809,0.719c-0.266,0.089-0.266,0.263-0.266,0.263
	s0-0.174-0.27-0.263c-0.234-0.076-0.691-0.586-0.807-0.719c-0.084,0.09-0.575,0.652-0.825,0.736
	c-0.263,0.084-0.263,0.266-0.263,0.266s0-0.182-0.269-0.266c-0.037-0.013-0.073-0.033-0.119-0.06
	C68.642,50.464,68.817,49.86,68.817,49.86 M70.169,48.534c0,0,0.134,0.393,1.038,0.635c0,0-0.566,0.666-0.837,0.751
	c-0.27,0.09-0.27,0.266-0.27,0.266s0-0.176-0.264-0.266c-0.223-0.071-0.652-0.558-0.794-0.704c0,0,0.178-0.024,0.181-0.048
	C70.062,48.92,70.169,48.534,70.169,48.534 M69.146,48.935c0,0,0.277-0.499,0.946-0.833C69.931,48.613,69.5,48.813,69.146,48.935
	 M65.354,44.455c-0.036-0.233-0.088-0.555-0.088-0.555c0.103,0.044,0.215,0.091,0.341,0.127c0.899-0.267,1.098-0.84,1.098-0.84
	s0.198,0.575,1.098,0.843c0.901-0.269,1.101-0.843,1.101-0.843s0.199,0.575,1.097,0.84c0.126-0.037,0.245-0.083,0.351-0.133
	c-0.01,0.216-0.078,0.584-0.078,0.584c-0.13-0.184-0.247-0.387-0.274-0.433c-0.051,0.056-0.573,0.654-0.822,0.738
	c-0.272,0.088-0.272,0.265-0.272,0.265s0-0.177-0.265-0.265c-0.258-0.087-0.812-0.717-0.836-0.747
	c-0.021,0.03-0.574,0.659-0.833,0.747c-0.265,0.088-0.265,0.265-0.265,0.265s0-0.177-0.268-0.265
	c-0.252-0.084-0.762-0.664-0.824-0.738C65.59,44.084,65.48,44.271,65.354,44.455 M65.617,44.4c0,0,0.197,0.555,1.065,0.821
	c0.902-0.264,1.099-0.835,1.099-0.835s0.203,0.571,1.106,0.835c0.866-0.266,1.063-0.821,1.063-0.821s0.057,0.163,0.247,0.356
	c-0.16,0.586-0.492,1.253-0.492,1.253c-0.247-0.083-0.763-0.663-0.843-0.753c-0.117,0.132-0.581,0.646-0.809,0.719
	c-0.273,0.09-0.273,0.266-0.273,0.266s0-0.176-0.264-0.266c-0.231-0.073-0.691-0.587-0.813-0.719
	c-0.077,0.091-0.573,0.654-0.814,0.739c-0.332-0.674-0.478-1.286-0.478-1.286C65.573,44.538,65.617,44.4,65.617,44.4 M68.612,47.51
	c-0.166,0.199-0.633,0.578-0.633,0.578c-0.142,0.09-0.198,0.383-0.198,0.383s-0.074-0.325-0.221-0.406
	c-0.269-0.203-0.641-0.555-0.641-0.555c0.772-0.306,0.861-0.838,0.861-0.838S67.877,47.204,68.612,47.51 M67.802,46.421
	c-0.021,0.032-0.574,0.662-0.833,0.749c-0.115,0.039-0.184,0.097-0.224,0.149c-0.588-0.754-0.713-1.078-0.713-1.078
	c0.534-0.281,0.672-0.661,0.672-0.661s0.198,0.568,1.098,0.838c0.901-0.27,1.101-0.838,1.101-0.838s0.155,0.387,0.673,0.669
	c-0.256,0.455-0.741,1.038-0.741,1.038c-0.043-0.042-0.105-0.085-0.196-0.118C68.38,47.083,67.826,46.454,67.802,46.421
	 M72.025,55.042c-0.166,0.192-0.637,0.568-0.637,0.568c-0.138,0.093-0.19,0.386-0.19,0.386s-0.079-0.324-0.229-0.405
	c-0.266-0.204-0.641-0.556-0.641-0.556c0.777-0.305,0.869-0.838,0.869-0.838S71.289,54.73,72.025,55.042 M71.216,53.954
	c-0.028,0.029-0.575,0.657-0.834,0.744c-0.12,0.039-0.187,0.097-0.223,0.149c-0.593-0.751-0.712-1.073-0.712-1.073
	c0.531-0.287,0.668-0.668,0.668-0.668s0.198,0.574,1.101,0.841c0.898-0.268,1.098-0.841,1.098-0.841s0.155,0.388,0.677,0.673
	c-0.26,0.45-0.747,1.039-0.747,1.039c-0.041-0.044-0.097-0.086-0.198-0.12C71.784,54.611,71.242,53.983,71.216,53.954
	 M77.453,58.481c-0.268,0.09-0.268,0.266-0.268,0.266s0-0.176-0.269-0.266c-0.245-0.083-0.741-0.644-0.824-0.734
	c-0.117,0.134-0.57,0.641-0.809,0.717c-0.266,0.09-0.266,0.267-0.266,0.267s0-0.177-0.269-0.267
	c-0.232-0.076-0.689-0.583-0.808-0.717c-0.075,0.09-0.575,0.65-0.821,0.734c-0.271,0.09-0.271,0.266-0.271,0.266
	s0-0.176-0.268-0.266c-0.032-0.011-0.07-0.032-0.109-0.06c-0.011-0.608,0.161-1.213,0.161-1.213
	c0.168-0.178,0.216-0.319,0.216-0.319s0.204,0.555,1.065,0.824c0.904-0.264,1.103-0.838,1.103-0.838s0.2,0.574,1.106,0.838
	c0.858-0.27,1.061-0.824,1.061-0.824s0.059,0.172,0.261,0.369c0.138,0.48,0.152,1.144,0.152,1.144
	C77.54,58.441,77.496,58.464,77.453,58.481 M77.23,58.919c-0.05,0.063-0.57,0.657-0.824,0.741c-0.27,0.088-0.27,0.268-0.27,0.268
	s0-0.18-0.268-0.268c-0.26-0.089-0.807-0.713-0.831-0.745c-0.027,0.031-0.572,0.656-0.836,0.745
	c-0.271,0.088-0.271,0.268-0.271,0.268s0-0.18-0.265-0.268c-0.248-0.084-0.759-0.661-0.822-0.736
	c-0.021,0.035-0.133,0.224-0.259,0.407c-0.035-0.228-0.087-0.555-0.087-0.555c0.102,0.045,0.213,0.091,0.339,0.128
	c0.899-0.267,1.094-0.835,1.094-0.835s0.206,0.572,1.106,0.836c0.902-0.264,1.099-0.836,1.099-0.836s0.2,0.568,1.101,0.836
	c0.127-0.038,0.243-0.083,0.342-0.132c-0.006,0.213-0.071,0.584-0.071,0.584C77.377,59.171,77.258,58.968,77.23,58.919
	 M76.093,60.134c-0.117,0.133-0.57,0.646-0.809,0.722c-0.266,0.092-0.266,0.261-0.266,0.261s0-0.169-0.269-0.261
	c-0.232-0.077-0.689-0.589-0.808-0.722c-0.077,0.095-0.575,0.654-0.821,0.734c-0.329-0.671-0.471-1.278-0.471-1.278
	c0.153-0.174,0.2-0.314,0.2-0.314s0.204,0.553,1.065,0.826c0.904-0.266,1.103-0.838,1.103-0.838s0.2,0.572,1.106,0.838
	c0.858-0.273,1.061-0.826,1.061-0.826s0.059,0.165,0.247,0.359c-0.161,0.586-0.488,1.251-0.488,1.251
	C76.694,60.805,76.178,60.225,76.093,60.134 M75.85,62.389c-0.169,0.198-0.637,0.574-0.637,0.574
	c-0.141,0.093-0.194,0.383-0.194,0.383s-0.075-0.323-0.224-0.402c-0.271-0.206-0.644-0.558-0.644-0.558
	c0.779-0.304,0.867-0.838,0.867-0.838S75.111,62.081,75.85,62.389 M75.038,61.302c-0.027,0.029-0.572,0.658-0.836,0.746
	c-0.119,0.04-0.185,0.098-0.222,0.148c-0.594-0.752-0.713-1.074-0.713-1.074c0.534-0.287,0.664-0.667,0.664-0.667
	s0.206,0.572,1.106,0.84c0.902-0.268,1.099-0.84,1.099-0.84s0.157,0.387,0.676,0.672c-0.262,0.454-0.744,1.038-0.744,1.038
	c-0.042-0.044-0.104-0.085-0.199-0.118C75.609,61.96,75.063,61.331,75.038,61.302 M79.554,55.042
	c-0.167,0.192-0.635,0.568-0.635,0.568c-0.145,0.093-0.193,0.386-0.193,0.386s-0.076-0.324-0.225-0.405
	c-0.272-0.204-0.635-0.556-0.635-0.556c0.771-0.305,0.859-0.838,0.859-0.838S78.821,54.73,79.554,55.042 M78.74,53.954
	c-0.025,0.029-0.566,0.657-0.831,0.744c-0.12,0.039-0.188,0.097-0.226,0.149c-0.589-0.751-0.709-1.073-0.709-1.073
	c0.533-0.287,0.668-0.668,0.668-0.668s0.201,0.574,1.098,0.841c0.902-0.268,1.101-0.841,1.101-0.841s0.157,0.388,0.675,0.673
	c-0.257,0.45-0.742,1.039-0.742,1.039c-0.036-0.044-0.103-0.086-0.198-0.12C79.315,54.611,78.772,53.983,78.74,53.954 M79.637,42.33
	c0.161-0.176,0.217-0.32,0.217-0.32s0.195,0.556,1.063,0.826c0.899-0.267,1.1-0.841,1.1-0.841s0.205,0.575,1.105,0.841
	c0.863-0.27,1.062-0.826,1.062-0.826s0.06,0.17,0.259,0.373c0.137,0.481,0.151,1.142,0.151,1.142
	c-0.051,0.038-0.101,0.068-0.146,0.079c-0.265,0.088-0.265,0.268-0.265,0.268s0-0.18-0.265-0.268
	c-0.252-0.081-0.749-0.644-0.823-0.734c-0.116,0.135-0.579,0.646-0.806,0.719c-0.273,0.092-0.273,0.264-0.273,0.264
	s0-0.172-0.269-0.264c-0.231-0.073-0.688-0.585-0.806-0.719c-0.08,0.087-0.573,0.654-0.824,0.734
	c-0.264,0.088-0.264,0.268-0.264,0.268s0-0.18-0.271-0.268c-0.028-0.011-0.068-0.029-0.109-0.059
	C79.462,42.936,79.637,42.33,79.637,42.33 M80.044,41.641c0.837-0.245,0.946-0.631,0.946-0.631s0.134,0.394,1.039,0.631
	c0,0-0.57,0.663-0.839,0.753c-0.265,0.09-0.265,0.264-0.265,0.264s0-0.174-0.267-0.264c-0.222-0.073-0.652-0.56-0.795-0.706
	C79.864,41.688,80.039,41.666,80.044,41.641 M80.913,40.577c-0.157,0.507-0.59,0.709-0.945,0.831
	C79.968,41.408,80.246,40.906,80.913,40.577 M81.374,40.323c0.183-0.063,0.183-0.048,0.248-0.162l-0.347-0.623l0.481-0.174
	c0,0,0.272,0.444,0.65,0.823c0.128,0.128,0.566,0.192,0.664,0.363c0,0-0.434,0.601-0.809,0.666
	c-0.229,0.041-0.223,0.215-0.223,0.215s0.008-0.16-0.225-0.215c-0.421-0.098-0.845-0.674-0.845-0.674
	C81.01,40.384,81.224,40.376,81.374,40.323 M84.194,41.688c-0.142,0.146-0.569,0.632-0.79,0.706c-0.27,0.09-0.27,0.264-0.27,0.264
	s0-0.174-0.268-0.264c-0.271-0.09-0.838-0.753-0.838-0.753c0.906-0.237,1.042-0.631,1.042-0.631s0.103,0.386,0.94,0.631
	C84.019,41.666,84.194,41.688,84.194,41.688 M84.092,41.408c-0.355-0.122-0.788-0.324-0.943-0.831
	C83.816,40.906,84.092,41.408,84.092,41.408 M87.219,71.4V36.424H39.045v34.999c-0.008,0.07-0.023,0.328-0.023,0.773
	c0,1.6,0.26,5.382,2.358,9.717c2.503,5.17,8.226,12.104,21.254,15.777l0.149,0.041l0.145-0.041
	c13.175-3.67,19.08-10.604,21.711-15.77C87.506,76.294,87.232,71.597,87.219,71.4 M57.843,83.602
	c-0.013,0.028-0.025,0.055-0.025,0.073v0.01l0.365,0.52l-0.013,0.043c0,0-0.353,1.168-0.356,1.188l-0.34,0.604l-0.055-0.005
	c-0.078-0.009-0.209,0.005-0.272,0.075c-0.003,0.021-0.003,0.037-0.003,0.055c0,0.109,0.027,0.17,0.07,0.223
	c0.008-0.014,0.011-0.044,0.021-0.056c0.118-0.144,0.316-0.164,0.384-0.167c0.101-0.094,0.342-0.322,0.396-0.449l0.078-0.17
	l0.176-0.429c0.065-0.251,0.126-0.861,0.136-0.955c-0.05-0.067-0.234-0.321-0.234-0.329C58.17,83.832,57.941,83.671,57.843,83.602
	 M49.678,80.889c0,0.441,0.385,0.799,0.863,0.799h2.825c0.477,0,0.865-0.357,0.865-0.804l0.002-1.367h-4.562
	C49.672,79.912,49.678,80.884,49.678,80.889 M49.176,79.188h5.554v-0.291h-5.554V79.188z M56.52,72.245
	c0,0.152,0.02,0.293,0.042,0.321c0.088,0.035,0.187,0.025,0.297-0.025c0.184-0.08,0.346-0.252,0.443-0.375
	c-0.194,0.02-0.666,0.057-0.782,0.063V72.245z"/>
<path fill="#002E6D" d="M67.676,76.857c0.249-0.203,0.617-0.129,0.617-0.129l0.559,0.132l-0.082,0.917l-1.616,4.031l-0.231,0.227
	c-0.954-0.105-1.259,0.689-1.259,0.689c-0.199-0.001-0.295,0.383-0.295,0.383l0.673,0.133c0.618,0.057,1.611-0.031,1.611-0.031
	c0.565-0.175,1.623-1.605,1.968-1.98c0.354-0.371,1.736-2.411,1.736-2.411c0.21,0.548,1.346,2.194,1.346,2.194l-0.176,0.305
	c-0.649,0.057-0.869,0.59-0.869,0.59c-0.14,0.032-0.23,0.375-0.23,0.375l0.335,0.01c0,0,0.847-0.014,1.041-0.006
	c0.198,0.006,0.527-0.641,0.683-0.866c0.143-0.225,0.497-0.794,0.589-1.134c0.099-0.348-0.477-0.901-0.477-0.901l-0.055-1.154
	c0.563,0.129,1.5-0.148,1.5-0.148v1.962l0.113,1.925c0,0,0.138,0.005-0.423-0.013c-0.562-0.013-0.751,0.558-0.751,0.558
	c-0.315,0.104-0.349,0.411-0.349,0.411s0.448,0.129,0.616,0.132c0.17,0.005,1.667-0.181,1.891-0.134
	c0.223,0.044,0.366-0.951,0.366-0.951l0.275-0.684l1.771-1.875l0.613,1.33c0,0,0.706,0.75,0.902,0.912
	c0.191,0.158,0.325,0.433,0.325,0.433s-0.233,0.105-0.652,0.21c-0.431,0.104-0.416,0.605-0.416,0.605
	c-0.198,0.031-0.261,0.338-0.261,0.338s0.645,0.057,0.788,0.063c0.138,0.002,0.62-0.063,0.818-0.058
	c0.196,0.009,0.877-0.123,0.877-0.123s0.144-0.036,0.12-0.304c-0.021-0.275,0.114-0.887,0.064-1.115
	c-0.053-0.232-0.23-1.008-0.334-1.204c-0.107-0.196-0.274-1.162-0.274-1.162s0.034-1.23-0.094-1.734
	c-0.122-0.504,0.441-1.434,0.441-1.434l-0.021-1.079c0,0-1.197-2.436-1.995-3.303c-1.345-1.482-2.74-1.23-3.348-1.235
	c-0.566-0.003-1.497,0.211-1.751,0.128c-0.252-0.087-1.438,0.17-2.352,0.391c-0.967,0.237-1.975,0.406-1.975,0.406
	s-0.906-0.153-1.282,0.109c-0.373,0.252-1.192,0.193-1.309,0.499l-0.372-0.017c0,0,0.02-0.615-0.506-0.826
	c0,0-0.362,0.184-0.407,0.73l-0.504,0.021c0,0-0.196-0.331-0.491-0.401c0,0-0.566,0.078-0.498,0.954c0,0-0.047,0.421-0.079,0.614
	c-0.034,0.195-0.277,0.347-0.257,0.638c0.021,0.292,0.032,0.908-0.063,1.104c-0.09,0.188-0.376,0.699-0.468,0.827
	c-0.093,0.124-0.309,0.38-0.309,0.38s0.053,0.193,0.288,0.328c0.235,0.138,0.646,0.247,0.768,0.188l0.134,0.359
	c0,0,0.362-0.119,0.839-0.394c0.483-0.277,0.453-0.277,0.657-0.209c0.208,0.073,0.973,0.157,1.087,0.323
	C67.373,76.868,67.676,76.857,67.676,76.857"/>
</svg>
