<svg width="300" height="85" viewBox="0 0 300 85" fill="none" xmlns="http://www.w3.org/2000/svg">
<path d="M20.258 62C19.8847 62 19.5487 61.8693 19.25 61.608C18.9887 61.3467 18.858 61.0107 18.858 60.6V40.216H14.602C14.1913 40.216 13.8553 40.0853 13.594 39.824C13.3327 39.5627 13.202 39.2267 13.202 38.816V34.28C13.202 33.8693 13.3327 33.5333 13.594 33.272C13.8553 33.0107 14.1913 32.88 14.602 32.88H18.858V31.088C18.858 28.5493 19.3433 26.5147 20.314 24.984C21.322 23.416 22.7407 22.296 24.57 21.624C26.3993 20.9147 28.5833 20.56 31.122 20.56H35.49C35.8633 20.56 36.1807 20.6907 36.442 20.952C36.7407 21.2133 36.89 21.5493 36.89 21.96V26.496C36.89 26.9067 36.7407 27.2427 36.442 27.504C36.1807 27.7653 35.8633 27.896 35.49 27.896H31.57C30.3007 27.896 29.4047 28.1947 28.882 28.792C28.3967 29.3893 28.154 30.248 28.154 31.368V32.88H34.93C35.3033 32.88 35.6207 33.0107 35.882 33.272C36.1807 33.5333 36.33 33.8693 36.33 34.28V38.816C36.33 39.2267 36.1807 39.5627 35.882 39.824C35.6207 40.0853 35.3033 40.216 34.93 40.216H28.154V60.6C28.154 61.0107 28.0233 61.3467 27.762 61.608C27.5007 61.8693 27.1647 62 26.754 62H20.258ZM48.6259 62.56C46.6099 62.56 44.7993 62.1867 43.1939 61.44C41.6259 60.656 40.3753 59.6107 39.4419 58.304C38.5086 56.9973 38.0419 55.5227 38.0419 53.88C38.0419 51.2293 39.1246 49.1387 41.2899 47.608C43.4553 46.04 46.3299 44.976 49.9139 44.416L56.9139 43.352V42.568C56.9139 41.224 56.6339 40.1973 56.0739 39.488C55.5139 38.7787 54.4873 38.424 52.9939 38.424C51.9486 38.424 51.0899 38.6293 50.4179 39.04C49.7833 39.4507 49.2793 40.0107 48.9059 40.72C48.5699 41.2053 48.1033 41.448 47.5059 41.448H41.2339C40.8233 41.448 40.5059 41.336 40.2819 41.112C40.0579 40.8507 39.9646 40.552 40.0019 40.216C40.0019 39.544 40.2446 38.7787 40.7299 37.92C41.2526 37.024 42.0366 36.1467 43.0819 35.288C44.1273 34.4293 45.4713 33.72 47.1139 33.16C48.7566 32.6 50.7353 32.32 53.0499 32.32C55.4766 32.32 57.5486 32.6 59.2659 33.16C60.9833 33.72 62.3646 34.504 63.4099 35.512C64.4926 36.52 65.2953 37.7147 65.8179 39.096C66.3406 40.44 66.6019 41.9333 66.6019 43.576V60.6C66.6019 61.0107 66.4526 61.3467 66.1539 61.608C65.8926 61.8693 65.5753 62 65.2019 62H58.7059C58.2953 62 57.9593 61.8693 57.6979 61.608C57.4366 61.3467 57.3059 61.0107 57.3059 60.6V58.64C56.8206 59.3493 56.1673 60.0027 55.3459 60.6C54.5246 61.1973 53.5539 61.664 52.4339 62C51.3513 62.3733 50.0819 62.56 48.6259 62.56ZM51.2579 56.176C52.3406 56.176 53.3113 55.952 54.1699 55.504C55.0659 55.0187 55.7566 54.2907 56.2419 53.32C56.7646 52.312 57.0259 51.0613 57.0259 49.568V48.784L52.2659 49.624C50.5113 49.9227 49.2233 50.3893 48.4019 51.024C47.6179 51.6213 47.2259 52.3307 47.2259 53.152C47.2259 53.7867 47.4126 54.328 47.7859 54.776C48.1593 55.224 48.6446 55.5787 49.2419 55.84C49.8393 56.064 50.5113 56.176 51.2579 56.176ZM90.7292 62.56C88.6385 62.56 86.8839 62.2053 85.4652 61.496C84.0839 60.7867 82.9452 59.8907 82.0492 58.808V60.6C82.0492 61.0107 81.8999 61.3467 81.6012 61.608C81.3399 61.8693 81.0225 62 80.6492 62H74.3212C73.9105 62 73.5745 61.8693 73.3132 61.608C73.0519 61.3467 72.9212 61.0107 72.9212 60.6V23.64C72.9212 23.2293 73.0519 22.8933 73.3132 22.632C73.5745 22.3707 73.9105 22.24 74.3212 22.24H81.1532C81.5639 22.24 81.8999 22.3707 82.1612 22.632C82.4225 22.8933 82.5532 23.2293 82.5532 23.64V35.624C83.4492 34.6533 84.5692 33.8693 85.9132 33.272C87.2945 32.6373 88.8999 32.32 90.7292 32.32C92.5959 32.32 94.2385 32.6373 95.6572 33.272C97.1132 33.8693 98.3452 34.7467 99.3532 35.904C100.361 37.0613 101.145 38.4427 101.705 40.048C102.265 41.6533 102.583 43.464 102.657 45.48C102.695 46.1893 102.713 46.8427 102.713 47.44C102.713 48 102.695 48.6533 102.657 49.4C102.583 51.4907 102.247 53.3573 101.649 55C101.089 56.6053 100.305 57.9867 99.2972 59.144C98.2892 60.264 97.0759 61.1227 95.6572 61.72C94.2385 62.28 92.5959 62.56 90.7292 62.56ZM87.7052 55.056C88.9745 55.056 89.9639 54.7947 90.6732 54.272C91.3825 53.7493 91.8865 53.04 92.1852 52.144C92.5212 51.248 92.7265 50.2587 92.8012 49.176C92.8759 48.0187 92.8759 46.8613 92.8012 45.704C92.7265 44.6213 92.5212 43.632 92.1852 42.736C91.8865 41.84 91.3825 41.1307 90.6732 40.608C89.9639 40.0853 88.9745 39.824 87.7052 39.824C86.5479 39.824 85.5959 40.0853 84.8492 40.608C84.1025 41.0933 83.5425 41.7467 83.1692 42.568C82.7959 43.352 82.5905 44.2107 82.5532 45.144C82.5159 45.8533 82.4972 46.544 82.4972 47.216C82.4972 47.888 82.5159 48.5973 82.5532 49.344C82.5905 50.352 82.7772 51.2853 83.1132 52.144C83.4492 53.0027 83.9905 53.712 84.7372 54.272C85.4839 54.7947 86.4732 55.056 87.7052 55.056ZM115.549 62C114.989 62 114.578 61.8693 114.317 61.608C114.056 61.3467 113.85 61.0107 113.701 60.6L105.637 34.672C105.562 34.4853 105.525 34.2987 105.525 34.112C105.525 33.776 105.656 33.496 105.917 33.272C106.178 33.0107 106.477 32.88 106.813 32.88H112.581C113.066 32.88 113.44 33.0107 113.701 33.272C114 33.5333 114.186 33.7947 114.261 34.056L118.965 50.072L124.005 34.112C124.08 33.8507 124.248 33.5893 124.509 33.328C124.808 33.0293 125.218 32.88 125.741 32.88H129.437C129.96 32.88 130.352 33.0293 130.613 33.328C130.912 33.5893 131.098 33.8507 131.173 34.112L136.213 50.072L140.917 34.056C140.992 33.7947 141.16 33.5333 141.421 33.272C141.72 33.0107 142.112 32.88 142.597 32.88H148.365C148.701 32.88 148.981 33.0107 149.205 33.272C149.466 33.496 149.597 33.776 149.597 34.112C149.597 34.2987 149.578 34.4853 149.541 34.672L141.477 60.6C141.365 61.0107 141.16 61.3467 140.861 61.608C140.6 61.8693 140.189 62 139.629 62H134.589C134.066 62 133.656 61.8693 133.357 61.608C133.058 61.3467 132.853 61.0107 132.741 60.6L127.589 45.256L122.437 60.6C122.325 61.0107 122.12 61.3467 121.821 61.608C121.522 61.8693 121.112 62 120.589 62H115.549ZM167.252 62.56C164.116 62.56 161.465 62.056 159.3 61.048C157.172 60.04 155.529 58.6027 154.372 56.736C153.252 54.832 152.617 52.5733 152.468 49.96C152.431 49.2133 152.412 48.3733 152.412 47.44C152.412 46.4693 152.431 45.6293 152.468 44.92C152.617 42.2693 153.289 40.0107 154.484 38.144C155.679 36.2773 157.34 34.84 159.468 33.832C161.633 32.824 164.228 32.32 167.252 32.32C170.313 32.32 172.908 32.824 175.036 33.832C177.201 34.84 178.881 36.2773 180.076 38.144C181.271 40.0107 181.943 42.2693 182.092 44.92C182.129 45.6293 182.148 46.4693 182.148 47.44C182.148 48.3733 182.129 49.2133 182.092 49.96C181.943 52.5733 181.289 54.832 180.132 56.736C179.012 58.6027 177.369 60.04 175.204 61.048C173.076 62.056 170.425 62.56 167.252 62.56ZM167.252 55.728C168.932 55.728 170.145 55.224 170.892 54.216C171.676 53.208 172.124 51.696 172.236 49.68C172.273 49.12 172.292 48.3733 172.292 47.44C172.292 46.5067 172.273 45.76 172.236 45.2C172.124 43.2213 171.676 41.728 170.892 40.72C170.145 39.6747 168.932 39.152 167.252 39.152C165.609 39.152 164.396 39.6747 163.612 40.72C162.828 41.728 162.399 43.2213 162.324 45.2C162.287 45.76 162.268 46.5067 162.268 47.44C162.268 48.3733 162.287 49.12 162.324 49.68C162.399 51.696 162.828 53.208 163.612 54.216C164.396 55.224 165.609 55.728 167.252 55.728ZM189.056 62C188.645 62 188.309 61.8693 188.048 61.608C187.786 61.3467 187.656 61.0107 187.656 60.6V34.28C187.656 33.9067 187.786 33.5893 188.048 33.328C188.309 33.0293 188.645 32.88 189.056 32.88H195.496C195.906 32.88 196.242 33.0293 196.504 33.328C196.765 33.5893 196.896 33.9067 196.896 34.28V36.52C197.904 35.3627 199.098 34.4667 200.48 33.832C201.898 33.1973 203.485 32.88 205.24 32.88H207.704C208.077 32.88 208.394 33.0107 208.656 33.272C208.954 33.5333 209.104 33.8693 209.104 34.28V40.048C209.104 40.4213 208.954 40.7573 208.656 41.056C208.394 41.3173 208.077 41.448 207.704 41.448H202.272C200.741 41.448 199.546 41.8773 198.688 42.736C197.866 43.5573 197.456 44.7333 197.456 46.264V60.6C197.456 61.0107 197.306 61.3467 197.008 61.608C196.746 61.8693 196.41 62 196 62H189.056ZM214.485 62C214.075 62 213.739 61.8693 213.477 61.608C213.216 61.3467 213.085 61.0107 213.085 60.6V23.64C213.085 23.2293 213.216 22.8933 213.477 22.632C213.739 22.3707 214.075 22.24 214.485 22.24H220.981C221.355 22.24 221.672 22.3707 221.933 22.632C222.232 22.8933 222.381 23.2293 222.381 23.64V42.4L230.165 33.832C230.389 33.5707 230.632 33.3467 230.893 33.16C231.155 32.9733 231.528 32.88 232.013 32.88H239.517C239.853 32.88 240.133 33.0107 240.357 33.272C240.619 33.496 240.749 33.776 240.749 34.112C240.749 34.2613 240.712 34.4293 240.637 34.616C240.563 34.8027 240.451 34.952 240.301 35.064L230.221 45.928L241.701 59.872C242 60.1707 242.149 60.4693 242.149 60.768C242.149 61.104 242.019 61.4027 241.757 61.664C241.533 61.888 241.235 62 240.861 62H233.189C232.629 62 232.219 61.9067 231.957 61.72C231.696 61.496 231.453 61.272 231.229 61.048L222.381 50.408V60.6C222.381 61.0107 222.232 61.3467 221.933 61.608C221.672 61.8693 221.355 62 220.981 62H214.485ZM257.171 62.56C254.744 62.56 252.672 62.2987 250.955 61.776C249.275 61.216 247.893 60.544 246.811 59.76C245.765 58.976 244.981 58.1733 244.459 57.352C243.936 56.4933 243.656 55.7653 243.619 55.168C243.581 54.7573 243.712 54.4213 244.011 54.16C244.309 53.8613 244.627 53.712 244.963 53.712H251.347C251.459 53.712 251.552 53.7307 251.627 53.768C251.701 53.8053 251.813 53.88 251.963 53.992C252.448 54.2533 252.933 54.5893 253.419 55C253.904 55.3733 254.464 55.7093 255.099 56.008C255.733 56.3067 256.499 56.456 257.395 56.456C258.44 56.456 259.317 56.2507 260.027 55.84C260.736 55.4293 261.091 54.8133 261.091 53.992C261.091 53.3947 260.923 52.9093 260.587 52.536C260.251 52.1253 259.56 51.7333 258.515 51.36C257.507 50.9867 255.976 50.6133 253.923 50.24C251.981 49.792 250.283 49.2133 248.827 48.504C247.371 47.7573 246.251 46.8053 245.467 45.648C244.683 44.4533 244.291 43.016 244.291 41.336C244.291 39.8427 244.776 38.4053 245.747 37.024C246.717 35.6427 248.136 34.5227 250.003 33.664C251.869 32.768 254.165 32.32 256.891 32.32C259.056 32.32 260.923 32.5813 262.491 33.104C264.096 33.5893 265.44 34.224 266.523 35.008C267.643 35.792 268.483 36.5947 269.043 37.416C269.603 38.2373 269.901 38.984 269.939 39.656C269.976 40.0293 269.864 40.3653 269.603 40.664C269.341 40.9253 269.043 41.056 268.707 41.056H262.883C262.733 41.056 262.584 41.0373 262.435 41C262.285 40.9253 262.155 40.8507 262.043 40.776C261.595 40.552 261.147 40.2533 260.699 39.88C260.251 39.5067 259.728 39.1707 259.131 38.872C258.533 38.5733 257.787 38.424 256.891 38.424C255.883 38.424 255.099 38.648 254.539 39.096C253.979 39.544 253.699 40.1227 253.699 40.832C253.699 41.3173 253.848 41.7653 254.147 42.176C254.483 42.5867 255.136 42.96 256.107 43.296C257.115 43.632 258.664 44.0053 260.755 44.416C263.331 44.8267 265.384 45.4987 266.915 46.432C268.445 47.328 269.528 48.392 270.163 49.624C270.797 50.8187 271.115 52.088 271.115 53.432C271.115 55.224 270.573 56.8107 269.491 58.192C268.445 59.5733 266.877 60.656 264.787 61.44C262.696 62.1867 260.157 62.56 257.171 62.56Z" fill="#242C5A"/>
<path d="M277.26 62C276.849 62 276.513 61.8693 276.252 61.608C275.991 61.3467 275.86 61.0107 275.86 60.6V53.488C275.86 53.1147 275.991 52.7973 276.252 52.536C276.513 52.2373 276.849 52.088 277.26 52.088H284.316C284.727 52.088 285.063 52.2373 285.324 52.536C285.623 52.7973 285.772 53.1147 285.772 53.488V60.6C285.772 61.0107 285.623 61.3467 285.324 61.608C285.063 61.8693 284.727 62 284.316 62H277.26Z" fill="#3E5DFC"/>
</svg>
