<?xml version="1.0" encoding="utf-8"?>
<!-- Generator: Adobe Illustrator 16.0.0, SVG Export Plug-In . SVG Version: 6.00 Build 0)  -->
<!DOCTYPE svg PUBLIC "-//W3C//DTD SVG 1.1//EN" "http://www.w3.org/Graphics/SVG/1.1/DTD/svg11.dtd">
<svg version="1.1" id="Layer_1" xmlns="http://www.w3.org/2000/svg" xmlns:xlink="http://www.w3.org/1999/xlink" x="0px" y="0px"
	 width="178.521px" height="34.305px" viewBox="0 0 178.521 34.305" enable-background="new 0 0 178.521 34.305"
	 xml:space="preserve">
<path fill-rule="evenodd" clip-rule="evenodd" fill="#A7A9AC" d="M93.983,8.164c-1.139,1.138-1.707,2.56-1.707,4.352
	c0,1.707,0.568,3.072,1.734,4.096c0.684,0.598,1.935,1.28,3.756,2.02c1.592,0.653,2.673,1.194,3.242,1.679
	c0.938,0.797,1.422,1.82,1.422,3.072c0,1.137-0.37,2.076-1.109,2.844s-1.65,1.137-2.759,1.137c-1.337,0-2.532-0.482-3.499-1.535
	c-0.882-0.883-1.422-1.963-1.707-3.242v-0.057l-2.332,0.568v0.057c0.398,1.906,1.252,3.441,2.589,4.58
	c1.336,1.08,2.986,1.65,4.921,1.65c1.905,0,3.441-0.57,4.579-1.736c1.166-1.139,1.764-2.645,1.764-4.523
	c0-1.848-0.626-3.327-1.877-4.437c-0.74-0.654-2.02-1.394-3.897-2.19c-1.479-0.626-2.503-1.167-3.043-1.593
	c-0.882-0.74-1.337-1.65-1.337-2.73c0-1.024,0.341-1.906,1.023-2.617c0.683-0.683,1.508-1.052,2.504-1.052
	c1.223,0,2.218,0.398,2.93,1.223c0.626,0.654,1.138,1.735,1.563,3.186l0.028,0.057l2.19-0.654v-0.085
	c-0.483-1.792-1.28-3.186-2.445-4.21c-1.167-1.024-2.532-1.536-4.125-1.536C96.6,6.485,95.12,7.055,93.983,8.164L93.983,8.164z"/>
<path fill-rule="evenodd" clip-rule="evenodd" fill="#A7A9AC" d="M116.796,16.015l-0.058,0.057l1.65,1.223l0.057-0.057
	c1.081-1.621,2.333-2.418,3.727-2.418c0.91,0,1.622,0.256,2.133,0.711c0.513,0.456,0.77,1.109,0.77,1.963v0.825l-1.28,0.341
	c-2.361,0.625-4.04,1.252-5.035,1.85c-1.649,1.051-2.503,2.531-2.503,4.381c0,1.223,0.426,2.275,1.279,3.156
	c0.854,0.883,1.877,1.338,3.101,1.338c0.824,0,1.649-0.229,2.475-0.74c0.569-0.342,1.224-0.883,1.964-1.621l0.227,1.906h2.531
	l-0.028-0.086c-0.256-0.627-0.397-1.594-0.427-2.902v-8.22c0-1.622-0.597-2.874-1.82-3.784c-0.996-0.74-2.105-1.109-3.385-1.109
	C120.066,12.829,118.274,13.882,116.796,16.015L116.796,16.015z M123.735,20.623l1.339-0.371v4.438
	c-0.514,0.598-1.025,1.109-1.623,1.537c-0.909,0.654-1.82,0.939-2.73,0.939c-0.654,0-1.194-0.258-1.649-0.797
	c-0.398-0.512-0.626-1.082-0.626-1.707c0-1.109,0.626-2.02,1.85-2.73C121.006,21.504,122.172,21.078,123.735,20.623L123.735,20.623z
	"/>
<polygon fill-rule="evenodd" clip-rule="evenodd" fill="#A7A9AC" points="148.938,6.941 146.606,6.941 146.606,28.93 148.938,28.93 
	148.938,6.941 "/>
<path fill-rule="evenodd" clip-rule="evenodd" fill="#A7A9AC" d="M162.479,14.365c-0.938-1.024-2.162-1.536-3.641-1.536
	c-1.991,0-3.527,0.74-4.637,2.162c-1.081,1.451-1.621,3.499-1.621,6.117c0,2.615,0.54,4.664,1.621,6.115
	c1.109,1.422,2.646,2.162,4.637,2.162c1.28,0,2.418-0.342,3.441-0.969c1.024-0.625,1.764-1.479,2.219-2.559v-0.029l-1.649-1.109
	l-0.057,0.029c-0.342,0.625-0.739,1.109-1.224,1.564c-0.796,0.738-1.621,1.08-2.503,1.08c-1.309,0-2.304-0.484-3.016-1.508
	c-0.682-0.994-1.053-2.445-1.053-4.352h9.359v-0.057l0.057-1.109c0-1.224-0.171-2.39-0.512-3.413
	C163.56,15.901,163.104,15.047,162.479,14.365L162.479,14.365z M158.667,14.82c0.739,0,1.365,0.285,1.878,0.825
	c0.454,0.484,0.797,1.081,1.052,1.82c0.228,0.683,0.342,1.337,0.342,1.992v0.114h-6.884c0.028-1.252,0.341-2.333,0.967-3.243
	C156.705,15.332,157.586,14.82,158.667,14.82L158.667,14.82z"/>
<path fill-rule="evenodd" clip-rule="evenodd" fill="#A7A9AC" d="M168.339,13.284h-2.361l5.376,15.304
	c-0.369,1.166-0.739,1.99-1.138,2.531c-0.569,0.74-1.337,1.137-2.332,1.137l-1.252-0.227l-0.057-0.027l-0.342,1.99h0.028
	c0.654,0.199,1.223,0.313,1.707,0.313c1.536,0,2.787-0.541,3.727-1.564c0.654-0.738,1.194-1.791,1.649-3.242l5.177-16.214h-2.218
	l-3.813,11.976L168.339,13.284L168.339,13.284z"/>
<path fill-rule="evenodd" clip-rule="evenodd" fill="#A7A9AC" d="M110.822,8.249h-2.304v5.035h-2.361v1.992h2.361v9.5
	c0,0.939,0.028,1.65,0.142,2.133c0.114,0.711,0.37,1.252,0.769,1.623c0.54,0.568,1.422,0.854,2.674,0.854
	c0.654,0,1.394-0.143,2.19-0.455l0.057-0.029v-1.707l-1.821,0.199c-0.625,0-1.052-0.113-1.308-0.369
	c-0.257-0.256-0.398-0.91-0.398-1.936v-9.813h3.527v-1.992h-3.527V8.249L110.822,8.249z"/>
<path fill-rule="evenodd" clip-rule="evenodd" fill="#A7A9AC" d="M134.005,17.096c0.455-0.569,1.053-1.081,1.764-1.536
	c0.797-0.512,1.536-0.797,2.162-0.797c0.597,0,1.053,0.171,1.394,0.484c0.256,0.284,0.455,0.74,0.541,1.337l0.057,12.346h2.304
	V18.148c0-3.527-1.337-5.319-4.011-5.319c-0.796,0-1.536,0.199-2.275,0.626c-0.455,0.256-1.109,0.711-1.935,1.365v-1.536h-2.332
	V28.93h2.332V17.096L134.005,17.096z"/>
<path fill-rule="evenodd" clip-rule="evenodd" fill="#5F7AA5" d="M86.388,11.378V0H75.01L86.388,11.378L86.388,11.378z
	 M84.681,1.678v5.348l-5.319-5.348H84.681L84.681,1.678z"/>
<polygon fill-rule="evenodd" clip-rule="evenodd" points="17.409,6.941 13.397,6.941 8.732,24.945 3.954,6.941 0,6.941 0,28.93 
	2.417,28.93 2.417,9.331 7.708,28.93 9.699,28.93 14.99,9.331 14.99,28.93 17.409,28.93 17.409,6.941 "/>
<path fill-rule="evenodd" clip-rule="evenodd" d="M31.773,14.991c-1.109-1.422-2.645-2.162-4.637-2.162
	c-1.991,0-3.527,0.74-4.636,2.162c-1.081,1.451-1.649,3.499-1.649,6.117c0,2.615,0.568,4.664,1.649,6.115
	c1.109,1.422,2.645,2.162,4.636,2.162c1.992,0,3.527-0.74,4.637-2.162c1.081-1.451,1.649-3.5,1.649-6.115
	C33.422,18.489,32.854,16.441,31.773,14.991L31.773,14.991z M27.136,14.82c1.536,0,2.617,0.768,3.271,2.276
	c0.455,1.024,0.683,2.361,0.683,4.012c0,1.648-0.228,2.986-0.683,4.037c-0.654,1.508-1.735,2.248-3.271,2.248
	c-1.507,0-2.617-0.74-3.271-2.248c-0.456-1.051-0.684-2.389-0.684-4.037c0-1.651,0.228-2.988,0.684-4.012
	C24.52,15.588,25.629,14.82,27.136,14.82L27.136,14.82z"/>
<path fill-rule="evenodd" clip-rule="evenodd" d="M39.396,16.555v-3.271h-2.333V28.93h2.333v-8.877
	c0.569-1.507,1.167-2.645,1.82-3.441c0.938-1.109,2.048-1.592,3.3-1.422h0.057v-2.133h-0.882c-1.052,0-1.934,0.341-2.702,1.052
	C40.449,14.649,39.908,15.474,39.396,16.555L39.396,16.555z"/>
<path fill-rule="evenodd" clip-rule="evenodd" d="M55.354,13.682c-1.024-0.74-2.19-1.109-3.413-1.109
	c-1.621,0-2.93,0.512-3.982,1.508c-1.024,1.024-1.564,2.333-1.564,3.896c0,0.825,0.142,1.565,0.426,2.191
	c0.228,0.512,0.654,1.166,1.28,1.877l-0.739,0.768c-0.427,0.342-0.683,0.654-0.854,0.883c-0.228,0.342-0.341,0.738-0.341,1.195
	c0,0.938,0.625,1.648,1.849,2.16c-1.735,0.797-2.588,1.793-2.588,3.045c0,0.938,0.342,1.764,1.081,2.389
	c1.109,1.053,2.987,1.535,5.604,1.535c2.162,0,3.812-0.313,4.95-1.023c1.138-0.711,1.679-1.707,1.679-3.072
	c0-1.678-0.825-2.844-2.476-3.527c-0.938-0.398-2.531-0.711-4.779-0.91l-2.19-0.283c-0.598-0.143-0.882-0.342-0.882-0.654
	c0-0.398,0.341-0.854,1.052-1.424l0.228-0.17c0.796,0.313,1.621,0.484,2.475,0.484c1.508,0,2.759-0.512,3.783-1.537
	c0.995-1.023,1.507-2.304,1.507-3.783v-0.085c-0.028-1.252-0.341-2.333-0.967-3.215c0.426-0.228,0.938-0.341,1.564-0.341h0.825
	v-1.962C57.744,12.403,56.577,12.8,55.354,13.682L55.354,13.682z M51.998,14.365c1.082,0,1.934,0.398,2.503,1.195
	c0.483,0.654,0.711,1.479,0.711,2.475c0,1.109-0.313,1.991-0.91,2.645c-0.597,0.654-1.451,0.967-2.503,0.967
	c-0.995,0-1.763-0.369-2.361-1.137c-0.541-0.684-0.796-1.48-0.796-2.447c0-0.996,0.284-1.821,0.854-2.532
	C50.12,14.734,50.974,14.365,51.998,14.365L51.998,14.365z M48.584,28.473c0.512-0.369,1.166-0.596,1.934-0.738l2.389,0.143
	c2.39,0.143,3.612,0.795,3.612,1.904c0,0.939-0.54,1.564-1.564,1.963c-0.711,0.285-1.622,0.428-2.73,0.428
	c-3.072,0-4.58-0.74-4.58-2.191C47.646,29.412,47.958,28.9,48.584,28.473L48.584,28.473z"/>
<path fill-rule="evenodd" clip-rule="evenodd" d="M61.015,16.015l-0.028,0.057l1.649,1.223l0.029-0.057
	c1.109-1.621,2.333-2.418,3.755-2.418c0.882,0,1.593,0.256,2.133,0.711c0.483,0.456,0.74,1.109,0.74,1.963v0.825l-1.28,0.341
	c-2.361,0.625-4.039,1.252-5.006,1.85c-1.678,1.051-2.503,2.531-2.503,4.381c0,1.223,0.427,2.275,1.28,3.156
	c0.853,0.883,1.878,1.338,3.072,1.338c0.853,0,1.678-0.229,2.475-0.74c0.597-0.342,1.251-0.883,1.992-1.621l0.198,1.906h2.532
	l-0.028-0.086c-0.228-0.627-0.398-1.594-0.398-2.902v-8.22c0-1.622-0.626-2.874-1.82-3.784c-0.996-0.74-2.134-1.109-3.385-1.109
	C64.286,12.829,62.494,13.882,61.015,16.015L61.015,16.015z M67.955,20.623l1.337-0.371v4.438c-1.366,1.65-2.816,2.477-4.353,2.477
	c-0.625,0-1.166-0.258-1.621-0.797c-0.426-0.512-0.654-1.082-0.654-1.707c0-1.109,0.626-2.02,1.849-2.73
	C65.253,21.504,66.391,21.078,67.955,20.623L67.955,20.623z"/>
<path fill-rule="evenodd" clip-rule="evenodd" d="M78.167,13.284h-2.333V28.93h2.333V17.096c0.456-0.569,1.052-1.081,1.764-1.536
	c0.796-0.512,1.507-0.797,2.162-0.797c0.597,0,1.052,0.171,1.365,0.484c0.285,0.284,0.484,0.74,0.57,1.337
	c0.028,0.341,0.057,0.881,0.057,1.649L84.056,28.93h2.332V18.148c0-3.527-1.337-5.319-4.039-5.319c-0.768,0-1.536,0.199-2.276,0.626
	c-0.455,0.228-1.081,0.683-1.906,1.365V13.284L78.167,13.284z"/>
</svg>
