<?xml version="1.0" encoding="UTF-8" standalone="no"?>
<svg xmlns:rdf="http://www.w3.org/1999/02/22-rdf-syntax-ns#" xmlns="http://www.w3.org/2000/svg" enable-background="new 9.5 141.5 782.5 310" xml:space="preserve" height="126.06" viewBox="9.5 141.5 563.58099 126.064" width="563.58" version="1.1" y="0px" x="0px" xmlns:cc="http://creativecommons.org/ns#" xmlns:dc="http://purl.org/dc/elements/1.1/">
<g transform="translate(-104.77 -102.55)">
	<g fill="#0066b3">
		<path d="m344 320.82c0 2.301 2.671 4.978 4.969 4.978l34.052-0.021-7.623-12.271h-19.724v-47.204h-11.67l-0.004 54.518z"/>
		<path d="m219.1 297.46c0-28.394-23.021-51.415-51.417-51.415s-51.415 23.021-51.415 51.415c0 28.396 23.019 51.417 51.415 51.417 3.019 0 5.889-0.28 8.765-0.778l-0.087 20.01h14.46v-24.896c16.7-8.499 28.279-25.738 28.279-45.753zm-28.279 23.992v-16.555l-14.46 4.129 0.016 20.52c-2.775 0.754-5.68 1.221-8.693 1.221-18.394 0-33.305-14.912-33.305-33.306 0-18.391 14.911-33.302 33.305-33.302s33.305 14.911 33.305 33.302c-0.001 9.413-3.897 17.927-10.168 23.991z"/>
		<path d="m266.53 325.8h-33.599c-2.301 0-5.007-2.668-5.007-4.969l-0.024-54.534h11.672v47.204h20.244v-47.204h11.672l0.011 54.534c0.001 2.301-2.668 4.969-4.969 4.969z"/>
		</g>
			<path fill="#0066b3" d="m423.25 268.5c-4.665-2.733-10.135-4.31-15.934-4.31-17.425 0-31.552 14.126-31.552 31.55 0 17.429 14.127 31.556 31.552 31.556 5.442 0 10.648-1.421 15.123-3.85l-5.693-10.245c-2.81 1.526-6.006 2.405-9.43 2.405-10.974 0-19.868-8.895-19.868-19.867 0-10.97 8.895-19.864 19.868-19.864 3.705 0 7.188 1.049 10.155 2.817l5.779-10.192z"/>
		<g fill="#0066b3">
		<path d="m450.28 264.35c-17.423 0-31.523 14.206-31.523 31.632 0 17.424 14.102 31.466 31.523 31.466 17.43 0 31.556-14.127 31.556-31.548 0-17.426-14.126-31.55-31.556-31.55zm0 51.416c-10.968 0-19.84-8.815-19.84-19.783 0-10.97 8.872-19.946 19.84-19.946 10.973 0 19.873 8.895 19.873 19.864s-8.9 19.865-19.873 19.865z"/>
		<path d="m313.53 266.41h-11.566l-26.029 59.08h12.393l6.114-13.02 26.981 0.006 0.551 1.25 5.192 11.764h12.393l-26.029-59.08zm-15.187 36.373 9.385-21.349 9.42 21.349h-18.805z"/>
		<path d="m669.55 318.49-21.37-49.32c-1.276-2.377-3.472-3.475-6.578-3.475-3.101 0-5.295 1.097-6.571 3.475l-15.712 36.165-15.711-36.165c-1.272-2.377-3.468-3.475-6.573-3.475-3.106 0-5.301 1.097-6.578 3.475l-15.712 36.249-15.706-36.249c-1.277-2.377-3.472-3.475-6.572-3.475-3.105 0-5.301 1.097-6.578 3.475l-15.712 36.165-15.706-36.165c-1.282-2.377-3.473-3.475-6.578-3.475s-5.296 1.097-6.577 3.475l-21.373 49.318c-2.941 7.718 7.676 11.688 11.143 5.479l16.809-39.275 16.804 39.275c2.194 4.019 8.953 3.839 10.963 0l16.809-39.275 16.804 39.275c1.103 1.974 2.926 2.82 4.803 2.942 0.232 0.037 0.445 0.048 0.673 0.059 0.233-0.011 0.451-0.021 0.679-0.059 1.877-0.122 3.705-0.971 4.809-2.942l16.804-39.275 16.804 39.275c2.009 3.839 8.768 4.019 10.956 0l16.81-39.275 16.804 39.275c3.466 6.21 14.072 2.239 11.136-5.479z"/>
	</g>
	<path fill="#0066b3" d="m668.88 266.81c-3.796 0-7.008 2.921-7.008 6.88 0 3.997 3.212 6.917 7.008 6.917 3.758 0 6.976-2.921 6.976-6.917 0-3.96-3.218-6.88-6.976-6.88zm0 12.647c-3.159 0-5.619-2.443-5.619-5.767 0-3.265 2.46-5.73 5.619-5.73 3.122 0 5.587 2.465 5.587 5.73 0 3.324-2.465 5.767-5.587 5.767zm3.175-7.463c0-1.569-0.928-2.263-2.81-2.263h-3.026v7.956h1.198v-3.448h1.389l2.1 3.448h1.352l-2.263-3.504c1.164-0.146 2.06-0.766 2.06-2.189zm-4.638 1.221v-2.462h1.644c0.843 0 1.732 0.183 1.732 1.169 0 1.222-0.906 1.293-1.936 1.293h-1.44z"/>
</g>
</svg>
