<?xml version="1.0" encoding="utf-8"?>
<!-- Generator: Adobe Illustrator 16.0.0, SVG Export Plug-In . SVG Version: 6.00 Build 0)  -->
<!DOCTYPE svg PUBLIC "-//W3C//DTD SVG 1.1//EN" "http://www.w3.org/Graphics/SVG/1.1/DTD/svg11.dtd">
<svg version="1.1" id="Layer_1" xmlns="http://www.w3.org/2000/svg" xmlns:xlink="http://www.w3.org/1999/xlink" x="0px" y="0px"
	 width="696.274px" height="148.434px" viewBox="-34.843 0 696.274 148.434" enable-background="new -34.843 0 696.274 148.434"
	 xml:space="preserve">
<path fill="#27468D" d="M36.087,87.394c-6.475,0-12.827-1.11-19.057-3.338c-6.232-2.225-11.895-5.644-16.993-10.257L11.082,60.57
	c3.884,3.155,7.869,5.664,11.956,7.525c4.085,1.861,8.558,2.792,13.413,2.792c3.884,0,6.898-0.708,9.043-2.126
	c2.144-1.414,3.216-3.377,3.216-5.886v-0.243c0-1.214-0.223-2.286-0.669-3.217c-0.448-0.929-1.3-1.798-2.556-2.609
	c-1.258-0.807-3.002-1.617-5.234-2.428c-2.231-0.808-5.131-1.657-8.701-2.547c-4.301-1.052-8.195-2.227-11.686-3.522
	c-3.489-1.293-6.449-2.892-8.882-4.794c-2.435-1.9-4.32-4.267-5.661-7.101c-1.338-2.831-2.007-6.353-2.007-10.561v-0.242
	c0-3.886,0.722-7.385,2.169-10.5c1.448-3.113,3.477-5.807,6.09-8.071c2.615-2.265,5.734-4.005,9.362-5.22
	c3.626-1.214,7.627-1.821,11.996-1.821c6.229,0,11.956,0.932,17.176,2.793c5.219,1.861,10.013,4.532,14.382,8.01l-9.709,14.08
	c-3.804-2.588-7.526-4.631-11.168-6.13c-3.641-1.496-7.283-2.244-10.924-2.244s-6.372,0.709-8.193,2.124
	c-1.821,1.416-2.731,3.176-2.731,5.28v0.241c0,1.378,0.263,2.57,0.791,3.582c0.527,1.014,1.478,1.924,2.86,2.729
	c1.379,0.811,3.265,1.578,5.659,2.308c2.394,0.729,5.415,1.578,9.068,2.549c4.3,1.135,8.132,2.408,11.501,3.823
	c3.367,1.417,6.206,3.116,8.519,5.099c2.312,1.984,4.057,4.309,5.233,6.979c1.175,2.67,1.766,5.869,1.766,9.59v0.242
	c0,4.208-0.764,7.951-2.292,11.229c-1.528,3.275-3.659,6.027-6.39,8.253c-2.737,2.227-5.998,3.926-9.787,5.098
	C44.901,86.806,40.699,87.394,36.087,87.394"/>
<path fill="#27468D" d="M118.869,87.518c-11.41,0-20.393-3.156-26.947-9.47c-6.555-6.312-9.831-15.736-9.831-28.281V1.214h18.693
	v48.068c0,6.96,1.617,12.198,4.854,15.718c3.237,3.52,7.727,5.281,13.473,5.281c5.745,0,10.237-1.701,13.473-5.1
	c3.237-3.398,4.856-8.497,4.856-15.295V1.214h18.693V49.16c0,6.474-0.871,12.099-2.61,16.873c-1.741,4.773-4.229,8.759-7.465,11.954
	c-3.237,3.199-7.16,5.584-11.774,7.162C129.672,86.727,124.532,87.518,118.869,87.518"/>
<rect x="176.04" y="1.214" fill="#27468D" width="18.693" height="84.968"/>
<polyline fill="#27468D" points="235.758,18.45 209.906,18.45 209.906,1.214 280.306,1.214 280.306,18.45 254.452,18.45 
	254.452,86.181 235.758,86.181 235.758,18.45 "/>
<path fill="#27468D" d="M323.76,0.607h17.235l36.416,85.574h-19.543L350.1,67.124h-35.929l-7.768,19.057h-19.058L323.76,0.607
	 M343.422,50.617l-11.287-27.556l-11.289,27.556H343.422z"/>
<path fill="#27468D" d="M390.518,1.214H429.9c9.771,0,17.162,2.51,22.171,7.525c3.878,3.884,5.814,8.7,5.814,14.445v0.242
	c0,2.428-0.302,4.572-0.903,6.433c-0.604,1.863-1.407,3.541-2.412,5.038s-2.17,2.813-3.497,3.944
	c-1.328,1.135-2.754,2.104-4.281,2.914c4.912,1.862,8.779,4.39,11.599,7.585c2.818,3.199,4.231,7.629,4.231,13.292v0.243
	c0,3.884-0.749,7.282-2.244,10.194c-1.494,2.914-3.634,5.342-6.423,7.285c-2.788,1.941-6.14,3.398-10.059,4.369
	c-3.918,0.97-8.26,1.457-13.024,1.457h-40.354V1.214 M425.962,35.565c4.128,0,7.404-0.707,9.831-2.125
	c2.429-1.415,3.643-3.702,3.643-6.857V26.34c0-2.831-1.053-4.996-3.154-6.493c-2.105-1.497-5.143-2.246-9.104-2.246h-18.451v17.964
	H425.962z M430.938,69.794c4.13,0,7.363-0.747,9.714-2.246c2.345-1.495,3.519-3.822,3.519-6.979v-0.243
	c0-2.831-1.091-5.077-3.277-6.735c-2.184-1.659-5.703-2.489-10.559-2.489h-21.608v18.692H430.938z"/>
<polyline fill="#27468D" points="478.154,1.214 496.847,1.214 496.847,69.31 539.208,69.31 539.208,86.182 478.154,86.182 
	478.154,1.214 "/>
<polyline fill="#27468D" points="553.289,1.214 617.256,1.214 617.256,17.843 571.739,17.843 571.739,35.08 611.794,35.08 
	611.794,51.709 571.739,51.709 571.739,69.552 617.864,69.552 617.864,86.182 553.289,86.182 553.289,1.214 "/>
<polyline fill="#27468D" points="15.108,108.002 0,108.002 0,97.93 41.142,97.93 41.142,108.002 26.033,108.002 26.033,147.583 
	15.108,147.583 15.108,108.002 "/>
<polyline fill="#27468D" points="52.348,97.93 89.731,97.93 89.731,107.646 63.129,107.646 63.129,117.719 86.538,117.719 
	86.538,127.437 63.129,127.437 63.129,137.865 90.085,137.865 90.085,147.583 52.348,147.583 52.348,97.93 "/>
<path fill="#27468D" d="M125.979,148.434c-3.644,0-7.024-0.663-10.145-1.986c-3.121-1.321-5.816-3.133-8.086-5.427
	c-2.269-2.294-4.043-5.001-5.319-8.123c-1.278-3.121-1.917-6.454-1.917-10.001v-0.141c0-3.547,0.639-6.869,1.917-9.967
	c1.276-3.098,3.05-5.816,5.319-8.157c2.27-2.341,4.989-4.187,8.157-5.532c3.169-1.35,6.668-2.021,10.498-2.021
	c2.317,0,4.434,0.188,6.35,0.566c1.914,0.379,3.653,0.898,5.213,1.562c1.56,0.663,3.002,1.467,4.327,2.411
	c1.323,0.945,2.553,1.986,3.689,3.12l-6.952,8.018c-1.939-1.748-3.913-3.121-5.923-4.115c-2.01-0.993-4.268-1.489-6.774-1.489
	c-2.083,0-4.008,0.403-5.781,1.205c-1.774,0.806-3.299,1.916-4.575,3.334c-1.278,1.42-2.27,3.063-2.979,4.931
	c-0.711,1.869-1.065,3.866-1.065,5.995v0.143c0,2.128,0.354,4.139,1.065,6.028c0.709,1.892,1.69,3.548,2.943,4.966
	c1.252,1.42,2.767,2.543,4.54,3.368c1.774,0.828,3.724,1.24,5.852,1.24c2.836,0,5.237-0.518,7.2-1.56
	c1.961-1.038,3.912-2.458,5.851-4.256l6.953,7.021c-1.277,1.373-2.602,2.604-3.973,3.69c-1.372,1.088-2.872,2.02-4.504,2.801
	c-1.632,0.78-3.417,1.373-5.356,1.774C130.564,148.231,128.389,148.434,125.979,148.434"/>
<polyline fill="#27468D" points="157.898,97.93 168.822,97.93 168.822,117.576 188.967,117.576 188.967,97.93 199.891,97.93 
	199.891,147.583 188.967,147.583 188.967,127.65 168.822,127.65 168.822,147.583 157.898,147.583 157.898,97.93 "/>
<polyline fill="#27468D" points="214.645,97.93 224.717,97.93 247.984,128.502 247.984,97.93 258.765,97.93 258.765,147.583 
	249.473,147.583 225.426,116.016 225.426,147.583 214.645,147.583 214.645,97.93 "/>
<path fill="#27468D" d="M297.637,148.434c-3.83,0-7.353-0.674-10.569-2.022c-3.216-1.348-5.994-3.167-8.335-5.462
	c-2.34-2.293-4.162-4.987-5.462-8.087c-1.3-3.097-1.951-6.419-1.951-9.966v-0.141c0-3.547,0.663-6.869,1.986-9.967
	c1.325-3.098,3.158-5.816,5.499-8.157c2.34-2.341,5.131-4.187,8.37-5.532c3.239-1.35,6.774-2.021,10.604-2.021
	c3.83,0,7.353,0.673,10.569,2.021c3.218,1.348,5.994,3.168,8.334,5.461c2.343,2.294,4.161,4.99,5.463,8.087
	c1.302,3.099,1.951,6.419,1.951,9.967v0.143c0,3.546-0.664,6.869-1.985,9.965c-1.325,3.099-3.156,5.818-5.497,8.159
	c-2.344,2.341-5.132,4.184-8.371,5.53C305.003,147.76,301.468,148.434,297.637,148.434 M297.779,138.36
	c2.175,0,4.185-0.398,6.03-1.203c1.844-0.805,3.416-1.917,4.716-3.336c1.302-1.419,2.316-3.061,3.05-4.93
	c0.732-1.868,1.1-3.866,1.1-5.994v-0.141c0-2.128-0.367-4.139-1.1-6.029c-0.733-1.891-1.772-3.547-3.12-4.967
	c-1.348-1.418-2.944-2.541-4.788-3.369c-1.844-0.827-3.855-1.241-6.03-1.241c-2.222,0-4.245,0.403-6.065,1.205
	c-1.82,0.806-3.381,1.916-4.681,3.334c-1.302,1.42-2.318,3.063-3.05,4.931c-0.734,1.868-1.1,3.866-1.1,5.995v0.143
	c0,2.128,0.366,4.139,1.1,6.028c0.732,1.892,1.774,3.548,3.12,4.966c1.349,1.42,2.932,2.543,4.753,3.368
	C293.535,137.948,295.556,138.36,297.779,138.36z"/>
<polyline fill="#27468D" points="336.651,97.93 347.575,97.93 347.575,137.723 372.331,137.723 372.331,147.583 336.651,147.583 
	336.651,97.93 "/>
<path fill="#27468D" d="M407.512,148.434c-3.83,0-7.353-0.674-10.567-2.022c-3.218-1.348-5.993-3.167-8.335-5.462
	c-2.342-2.293-4.162-4.987-5.462-8.087c-1.302-3.097-1.95-6.419-1.95-9.966v-0.141c0-3.547,0.662-6.869,1.984-9.967
	c1.324-3.098,3.156-5.816,5.498-8.157c2.34-2.341,5.131-4.187,8.37-5.532c3.239-1.35,6.775-2.021,10.605-2.021
	s7.352,0.673,10.566,2.021c3.218,1.348,5.994,3.168,8.335,5.461c2.343,2.294,4.161,4.99,5.462,8.087
	c1.303,3.099,1.951,6.419,1.951,9.967v0.143c0,3.546-0.663,6.869-1.984,9.965c-1.324,3.099-3.156,5.818-5.497,8.159
	c-2.343,2.341-5.133,4.184-8.37,5.53C414.878,147.76,411.344,148.434,407.512,148.434 M407.655,138.36
	c2.174,0,4.183-0.398,6.027-1.203c1.846-0.805,3.416-1.917,4.719-3.336c1.301-1.419,2.314-3.061,3.05-4.93
	c0.73-1.868,1.099-3.866,1.099-5.994v-0.141c0-2.128-0.367-4.139-1.099-6.029c-0.734-1.891-1.773-3.547-3.121-4.967
	c-1.347-1.418-2.945-2.541-4.789-3.369c-1.843-0.827-3.855-1.241-6.029-1.241c-2.222,0-4.245,0.403-6.063,1.205
	c-1.82,0.806-3.381,1.916-4.684,3.334c-1.301,1.42-2.315,3.063-3.051,4.931c-0.732,1.868-1.099,3.866-1.099,5.995v0.143
	c0,2.128,0.364,4.139,1.099,6.028c0.734,1.892,1.776,3.548,3.121,4.966c1.35,1.42,2.932,2.543,4.754,3.368
	C403.41,137.948,405.43,138.36,407.655,138.36z"/>
<path fill="#27468D" d="M470.431,148.434c-3.878,0-7.413-0.639-10.604-1.914c-3.191-1.277-5.938-3.053-8.229-5.322
	c-2.293-2.27-4.078-4.966-5.354-8.086c-1.278-3.12-1.916-6.524-1.916-10.215v-0.141c0-3.547,0.648-6.869,1.951-9.967
	c1.3-3.098,3.106-5.816,5.427-8.157c2.313-2.341,5.058-4.187,8.228-5.532c3.167-1.35,6.645-2.021,10.429-2.021
	c2.222,0,4.243,0.152,6.063,0.462c1.821,0.309,3.512,0.743,5.073,1.312c1.56,0.567,3.026,1.276,4.396,2.128
	c1.371,0.853,2.695,1.82,3.973,2.908l-6.879,8.299c-0.947-0.803-1.894-1.513-2.838-2.127c-0.947-0.614-1.93-1.135-2.944-1.561
	c-1.02-0.428-2.117-0.757-3.298-0.994c-1.185-0.235-2.484-0.354-3.902-0.354c-1.986,0-3.842,0.416-5.566,1.245
	c-1.729,0.828-3.239,1.943-4.541,3.341c-1.302,1.4-2.316,3.035-3.051,4.905c-0.732,1.873-1.1,3.877-1.1,6.007v0.145
	c0,2.273,0.366,4.37,1.1,6.291c0.733,1.92,1.775,3.592,3.121,5.014c1.351,1.422,2.933,2.522,4.753,3.305
	c1.82,0.783,3.841,1.174,6.065,1.174c4.063,0,7.494-1,10.285-3.001v-7.143h-10.994v-9.436h21.563v21.564
	c-2.554,2.175-5.593,4.032-9.112,5.567C479.001,147.665,474.97,148.434,470.431,148.434"/>
<rect x="505.471" y="97.93" fill="#27468D" width="10.924" height="49.652"/>
<polyline fill="#27468D" points="531.645,97.93 569.028,97.93 569.028,107.646 542.426,107.646 542.426,117.719 565.836,117.719 
	565.836,127.437 542.426,127.437 542.426,137.865 569.382,137.865 569.382,147.583 531.645,147.583 531.645,97.93 "/>
<path fill="#27468D" d="M599.743,148.292c-3.785,0-7.497-0.65-11.138-1.949c-3.643-1.301-6.95-3.299-9.933-5.995l6.456-7.731
	c2.271,1.845,4.598,3.312,6.988,4.398c2.386,1.088,5,1.631,7.838,1.631c2.269,0,4.03-0.413,5.284-1.243
	c1.252-0.825,1.88-1.972,1.88-3.438v-0.143c0-0.71-0.131-1.337-0.393-1.881c-0.263-0.543-0.76-1.05-1.492-1.522
	c-0.736-0.476-1.756-0.946-3.062-1.42c-1.303-0.474-2.999-0.969-5.083-1.489c-2.515-0.613-4.789-1.299-6.829-2.058
	c-2.04-0.757-3.77-1.69-5.189-2.804c-1.425-1.109-2.527-2.494-3.31-4.146c-0.781-1.654-1.175-3.713-1.175-6.173v-0.143
	c0-2.27,0.423-4.314,1.271-6.135c0.845-1.821,2.028-3.394,3.558-4.717c1.527-1.323,3.35-2.343,5.471-3.052
	c2.119-0.71,4.457-1.063,7.012-1.063c3.642,0,6.985,0.545,10.035,1.632c3.052,1.088,5.854,2.649,8.405,4.682l-5.673,8.229
	c-2.224-1.512-4.399-2.705-6.528-3.581c-2.127-0.875-4.255-1.313-6.383-1.313s-3.723,0.414-4.789,1.239
	c-1.063,0.829-1.594,1.857-1.594,3.086v0.143c0,0.807,0.153,1.502,0.461,2.094c0.309,0.592,0.865,1.125,1.671,1.595
	c0.807,0.476,1.91,0.924,3.309,1.351c1.398,0.425,3.163,0.921,5.3,1.487c2.512,0.664,4.753,1.408,6.721,2.235
	c1.968,0.828,3.626,1.82,4.978,2.979c1.354,1.158,2.371,2.52,3.061,4.078c0.687,1.563,1.031,3.432,1.031,5.605v0.14
	c0,2.459-0.446,4.647-1.34,6.563c-0.894,1.914-2.138,3.521-3.734,4.822s-3.504,2.295-5.718,2.979
	C604.893,147.948,602.438,148.292,599.743,148.292"/>
<polyline fill="#27468D" points="631.84,4.08 626.8,4.08 626.8,0 641.537,0 641.537,4.08 636.497,4.08 636.497,16.8 631.84,16.8 
	631.84,4.08 "/>
<polyline fill="#27468D" points="643.577,0 648.497,0 652.504,6.504 656.512,0 661.432,0 661.432,16.8 656.8,16.8 656.8,7.152 
	652.516,13.728 652.42,13.728 648.161,7.2 648.161,16.8 643.577,16.8 643.577,0 "/>
</svg>
