<?xml version="1.0" encoding="utf-8"?>
<!-- Generator: Adobe Illustrator 16.0.0, SVG Export Plug-In . SVG Version: 6.00 Build 0)  -->
<!DOCTYPE svg PUBLIC "-//W3C//DTD SVG 1.1//EN" "http://www.w3.org/Graphics/SVG/1.1/DTD/svg11.dtd">
<svg version="1.1" id="Layer_1" xmlns="http://www.w3.org/2000/svg" xmlns:xlink="http://www.w3.org/1999/xlink" x="0px" y="0px"
	 width="976.636px" height="294.322px" viewBox="22.813 51.15 976.636 294.322"
	 enable-background="new 22.813 51.15 976.636 294.322" xml:space="preserve">
<path fill="#A1A1A4" d="M888.938,168.823c-0.693,0-1.368,0.213-1.947,0.613c0,0-76.979,53.521-80.687,56.102
	c-3.712-2.569-81.082-56.104-81.082-56.104c-0.571-0.396-1.249-0.608-1.942-0.608h-71.233c-1.503,0-2.827,0.979-3.269,2.41
	c-0.099,0.33-0.147,0.665-0.147,1c0,1.112,0.549,2.179,1.497,2.823c0,0,107.632,72.853,115.444,78.143
	c-7.879,5.273-125.269,83.91-125.269,83.91c-0.96,0.65-1.509,1.723-1.509,2.833c0,0.335,0.047,0.671,0.153,0.995
	c0.426,1.438,1.751,2.416,3.259,2.416h72.797c0.7,0,1.375-0.208,1.938-0.607c0,0,85.619-59.271,89.351-61.854
	c3.729,2.604,88.569,61.85,88.569,61.85c0.574,0.4,1.254,0.613,1.955,0.613h71.624c1.502,0,2.827-0.979,3.259-2.411
	c0.104-0.329,0.152-0.665,0.152-1c0-1.11-0.55-2.178-1.51-2.82c0,0-116.632-78.622-124.488-83.917
	c7.813-5.266,115.835-78.144,115.835-78.144c0.959-0.646,1.503-1.716,1.503-2.828c0-0.335-0.053-0.67-0.147-0.994
	c-0.439-1.437-1.767-2.416-3.26-2.416h-70.847V168.823L888.938,168.823z"/>
<path fill="#A1A1A4" d="M328.877,168.823c-1.02,0-1.99,0.462-2.64,1.248c0,0-101.656,124.344-106.732,130.552
	c-5.016-6.249-104.794-130.521-104.794-130.521c-0.65-0.813-1.624-1.278-2.66-1.278H52.235c-1.325,0-2.523,0.762-3.086,1.953
	c-0.564,1.199-0.386,2.604,0.451,3.625l138.126,167.714c0.645,0.786,1.614,1.237,2.635,1.237h58.242c1.01,0,1.97-0.439,2.619-1.224
	l140.096-167.709c0.847-1.015,1.033-2.431,0.472-3.629c-0.564-1.204-1.767-1.97-3.092-1.97L328.877,168.823L328.877,168.823z"/>
<path fill="#EE3524" d="M423.417,168.792c-6.853-12.595-11.011-29.267-11.011-47.363c0-38.197,19.138-70.278,42.438-70.278H602.25
	c7.854,0,14.305,10.696,14.305,23.683c0,12.984-6.452,23.682-14.305,23.682H454.845c-7.848,0-13.848,10.69-13.848,22.915
	c0,12.22,5.553,24.063,13.848,24.063h147.406c7.853,0,14.305,10.528,14.305,23.32v0.011c0,12.798-6.452,23.326-14.305,23.326
	H454.845c-8.295,0-13.848,11.844-13.848,24.058c0,12.229,6,22.915,13.848,22.915h147.406c7.853,0,14.305,10.695,14.305,23.677
	c0,12.991-6.452,23.688-14.305,23.688H454.845c-23.301,0-42.438-32.084-42.438-70.278c0-18.092,4.158-34.764,11.011-47.362
	L423.417,168.792L423.417,168.792z"/>
<path fill="#A1A1A4" d="M987.965,322.49c1.93,0,3.813,0.491,5.65,1.481c1.837,0.989,3.27,2.405,4.295,4.248
	c1.023,1.844,1.538,3.768,1.538,5.768c0,1.979-0.508,3.886-1.52,5.712c-1.011,1.827-2.428,3.243-4.249,4.255
	c-1.821,1.01-3.727,1.519-5.717,1.519c-1.989,0-3.896-0.509-5.721-1.519c-1.823-1.012-3.239-2.428-4.254-4.255
	c-1.018-1.826-1.523-3.73-1.523-5.712c0-2,0.514-3.924,1.543-5.768c1.03-1.843,2.469-3.259,4.308-4.248
	C984.152,322.982,986.036,322.49,987.965,322.49 M987.965,324.394c-1.613,0-3.188,0.411-4.716,1.237
	c-1.527,0.828-2.721,2.012-3.584,3.55c-0.862,1.538-1.295,3.143-1.295,4.808c0,1.654,0.421,3.238,1.27,4.758
	c0.85,1.519,2.036,2.698,3.561,3.548c1.521,0.849,3.112,1.272,4.767,1.272c1.655,0,3.244-0.426,4.769-1.272
	c1.521-0.85,2.706-2.029,3.549-3.548c0.843-1.52,1.264-3.104,1.264-4.758c0-1.665-0.431-3.27-1.289-4.808
	c-0.855-1.538-2.051-2.722-3.584-3.55C991.138,324.805,989.569,324.394,987.965,324.394 M982.924,340.339v-12.366h4.249
	c1.452,0,2.503,0.111,3.152,0.341c0.648,0.229,1.168,0.629,1.554,1.197s0.579,1.173,0.579,1.813c0,0.903-0.325,1.69-0.97,2.36
	c-0.646,0.67-1.498,1.045-2.564,1.127c0.438,0.183,0.787,0.4,1.052,0.653c0.498,0.488,1.106,1.306,1.828,2.452l1.507,2.422h-2.437
	l-1.097-1.949c-0.863-1.533-1.56-2.492-2.086-2.879c-0.366-0.283-0.899-0.426-1.602-0.426h-1.173v5.254H982.924L982.924,340.339z
	 M984.919,333.379h2.421c1.158,0,1.945-0.173,2.366-0.52c0.421-0.345,0.636-0.802,0.636-1.371c0-0.363-0.103-0.693-0.306-0.982
	c-0.203-0.29-0.487-0.503-0.849-0.646c-0.359-0.143-1.024-0.213-2-0.213h-2.271L984.919,333.379L984.919,333.379z"/>
</svg>
