<svg xmlns="http://www.w3.org/2000/svg" id="Layer_1" viewBox="0 0 535.54 62.22">
  <defs fill="#222222">
    <style>
      .cls-1 {
        fill: #00aeef;
      }
    </style>
  </defs>
  <polygon class="cls-1" points="21.49 61.19 0 1.07 13.17 1.07 28.38 45.57 43.11 1.07 55.99 1.07 34.45 61.19 21.49 61.19 21.49 61.19" fill="#222222"/>
  <polygon class="cls-1" points="57.61 1.07 69.75 1.07 69.75 61.19 57.61 61.19 57.61 1.07 57.61 1.07" fill="#222222"/>
  <polygon class="cls-1" points="92.46 61.19 70.97 1.07 84.13 1.07 99.35 45.57 114.07 1.07 126.95 1.07 105.42 61.19 92.46 61.19 92.46 61.19" fill="#222222"/>
  <polygon class="cls-1" points="128.58 1.07 140.72 1.07 140.72 61.19 128.58 61.19 128.58 1.07 128.58 1.07" fill="#222222"/>
  <path class="cls-1" d="M160.18,11.24v39.83h9.06c3.39,0,5.84-.19,7.34-.57,1.97-.49,3.6-1.33,4.9-2.5,1.3-1.17,2.36-3.11,3.18-5.8.82-2.69,1.23-6.36,1.23-11.01s-.41-8.22-1.23-10.71c-.82-2.49-1.97-4.43-3.45-5.82-1.48-1.39-3.35-2.34-5.62-2.83-1.7-.38-5.02-.57-9.97-.57h-5.45ZM148.04,1.07h22.19c5,0,8.82.38,11.44,1.15,3.53,1.04,6.55,2.89,9.07,5.54,2.51,2.65,4.43,5.9,5.74,9.74,1.31,3.84,1.97,8.58,1.97,14.21,0,4.95-.62,9.22-1.85,12.8-1.5,4.38-3.65,7.92-6.44,10.62-2.1,2.05-4.95,3.65-8.53,4.8-2.68.85-6.26,1.27-10.75,1.27h-22.85V1.07h0Z" fill="#222222"/>
  <polygon points="205.16 61.19 205.16 1.07 213.12 1.07 213.12 25.76 244.37 25.76 244.37 1.07 252.33 1.07 252.33 61.19 244.37 61.19 244.37 32.85 213.12 32.85 213.12 61.19 205.16 61.19 205.16 61.19" fill="#222222"/>
  <path d="M264.64,32.03c0,7.25,1.95,12.95,5.84,17.12,3.9,4.17,8.78,6.26,14.66,6.26s10.92-2.11,14.79-6.32c3.87-4.21,5.8-10.19,5.8-17.92,0-4.9-.83-9.17-2.48-12.82-1.65-3.65-4.07-6.48-7.26-8.49-3.18-2.01-6.76-3.02-10.72-3.02-5.63,0-10.48,1.93-14.54,5.8-4.06,3.87-6.09,10.33-6.09,19.38M256.44,31.91c0-9.98,2.68-17.79,8.04-23.44,5.36-5.65,12.28-8.47,20.75-8.47,5.55,0,10.55,1.33,15.01,3.98,4.46,2.65,7.85,6.35,10.19,11.09,2.34,4.74,3.51,10.12,3.51,16.14s-1.23,11.55-3.69,16.36c-2.46,4.81-5.95,8.45-10.46,10.93-4.51,2.47-9.38,3.71-14.6,3.71-5.66,0-10.72-1.37-15.18-4.1-4.46-2.73-7.83-6.47-10.13-11.2-2.3-4.73-3.45-9.74-3.45-15.01" fill="#222222"/>
  <path d="M314.77,41.88l7.51-.66c.36,3.01,1.18,5.48,2.48,7.4,1.3,1.93,3.32,3.49,6.05,4.68,2.73,1.19,5.81,1.78,9.23,1.78,3.04,0,5.71-.45,8.04-1.35,2.32-.9,4.05-2.14,5.19-3.71,1.14-1.57,1.7-3.29,1.7-5.15s-.55-3.53-1.64-4.94c-1.09-1.41-2.9-2.59-5.41-3.55-1.61-.63-5.18-1.61-10.71-2.93-5.52-1.33-9.39-2.58-11.61-3.75-2.87-1.5-5.01-3.37-6.42-5.6-1.41-2.23-2.11-4.72-2.11-7.49,0-3.04.86-5.87,2.58-8.51,1.72-2.64,4.24-4.64,7.55-6.01,3.31-1.37,6.99-2.05,11.03-2.05,4.46,0,8.39.72,11.79,2.15,3.4,1.44,6.02,3.55,7.85,6.34,1.83,2.79,2.82,5.95,2.95,9.47l-7.63.57c-.41-3.8-1.8-6.67-4.16-8.61-2.37-1.94-5.86-2.91-10.48-2.91s-8.32.88-10.52,2.65c-2.2,1.76-3.3,3.89-3.3,6.38,0,2.16.78,3.94,2.34,5.33,1.53,1.39,5.53,2.82,12,4.29,6.47,1.46,10.9,2.74,13.31,3.83,3.5,1.61,6.08,3.66,7.75,6.13,1.67,2.47,2.5,5.33,2.5,8.55s-.92,6.21-2.75,9.04c-1.83,2.83-4.46,5.03-7.89,6.6-3.43,1.57-7.29,2.36-11.59,2.36-5.44,0-10-.79-13.68-2.38-3.68-1.59-6.56-3.97-8.65-7.16-2.09-3.19-3.19-6.79-3.3-10.81" fill="#222222"/>
  <polygon points="382.08 61.19 382.08 8.16 362.27 8.16 362.27 1.07 409.93 1.07 409.93 8.16 390.04 8.16 390.04 61.19 382.08 61.19 382.08 61.19" fill="#222222"/>
  <polygon points="412.73 1.07 420.68 1.07 420.68 61.19 412.73 61.19 412.73 1.07 412.73 1.07" fill="#222222"/>
  <polygon points="427.91 61.19 427.91 1.07 436.07 1.07 467.65 48.27 467.65 1.07 475.28 1.07 475.28 61.19 467.12 61.19 435.54 13.94 435.54 61.19 427.91 61.19 427.91 61.19" fill="#222222"/>
  <path d="M510.07,37.61v-7.05l25.47-.04v22.31c-3.91,3.12-7.94,5.46-12.1,7.03-4.16,1.57-8.42,2.36-12.8,2.36-5.91,0-11.27-1.26-16.1-3.79-4.83-2.53-8.47-6.19-10.93-10.97-2.46-4.78-3.69-10.13-3.69-16.04s1.22-11.31,3.67-16.39c2.45-5.07,5.97-8.84,10.56-11.3,4.59-2.46,9.89-3.69,15.87-3.69,4.35,0,8.28.7,11.79,2.11,3.51,1.41,6.27,3.37,8.27,5.89,2,2.52,3.51,5.8,4.55,9.84l-7.18,1.97c-.9-3.06-2.02-5.47-3.36-7.22-1.34-1.75-3.25-3.15-5.74-4.2-2.49-1.05-5.25-1.58-8.29-1.58-3.64,0-6.78.55-9.43,1.66-2.65,1.11-4.79,2.56-6.42,4.37-1.63,1.8-2.89,3.79-3.79,5.95-1.53,3.72-2.3,7.75-2.3,12.1,0,5.36.92,9.84,2.77,13.45,1.85,3.61,4.53,6.29,8.06,8.04,3.53,1.75,7.27,2.62,11.24,2.62,3.44,0,6.81-.66,10.09-1.99,3.28-1.33,5.77-2.74,7.47-4.24v-11.2h-17.68Z" fill="#222222"/>
</svg>