<?xml version="1.0" encoding="utf-8"?>
<!DOCTYPE svg PUBLIC "-//W3C//DTD SVG 1.1//EN" "http://www.w3.org/Graphics/SVG/1.1/DTD/svg11.dtd">
<svg height="100" width="100" version="1.1" id="_x32_" xmlns="http://www.w3.org/2000/svg" xmlns:xlink="http://www.w3.org/1999/xlink"
	 viewBox="0 0 512 512"  xml:space="preserve">
<g style="fill:rgb(192,192,0);stroke:rgb(0,0,0);stroke-width:2;">
	<path class="st0" d="M497.569,215.166l-55.345-13.064c-4.032-13.946-9.495-27.27-16.376-39.732l29.85-48.303
		c4.57-7.397,3.452-16.946-2.688-23.086l-31.99-31.99c-6.129-6.129-15.678-7.248-23.076-2.678l-48.292,29.851
		c-12.462-6.882-25.785-12.344-39.732-16.377l-13.064-55.368C294.856,5.978,287.306,0,278.63,0h-45.237
		c-8.678,0-16.227,5.978-18.227,14.419l-13.064,55.368c-13.946,4.032-27.27,9.484-39.732,16.377l-48.303-29.872
		c-7.387-4.549-16.946-3.441-23.086,2.699L58.99,90.97c-6.13,6.14-7.248,15.709-2.689,23.087l29.862,48.313
		c-6.882,12.462-12.344,25.786-16.367,39.721l-55.378,13.065C5.978,217.165,0,224.704,0,233.392v45.226
		c0,8.678,5.978,16.237,14.419,18.226l55.378,13.065c4.032,13.946,9.485,27.259,16.367,39.71l-29.872,48.324
		c-4.549,7.398-3.441,16.957,2.699,23.098l31.979,31.979c6.14,6.14,15.709,7.257,23.087,2.688l48.323-29.872
		c12.463,6.882,25.786,12.344,39.722,16.366l13.064,55.366c2,8.463,9.549,14.431,18.227,14.431h45.237
		c8.677,0,16.226-5.968,18.226-14.431l13.064-55.366c13.937-4.021,27.259-9.484,39.712-16.366l48.312,29.861
		c7.398,4.57,16.947,3.452,23.087-2.688l31.989-31.99c6.13-6.129,7.248-15.688,2.678-23.087l-29.861-48.302
		c6.893-12.452,12.345-25.774,16.377-39.721l55.366-13.065c8.463-2.001,14.42-9.539,14.42-18.226v-45.238
		C512,224.714,506.032,217.165,497.569,215.166z M256.006,303.103c-26.002,0-47.098-21.097-47.098-47.108
		s21.097-47.108,47.098-47.108c26.011,0,47.108,21.097,47.108,47.108S282.017,303.103,256.006,303.103z"/>
</g>
</svg>